<?xml version="1.0" encoding="UTF-8" standalone="no"?>
<!-- Created with Inkscape (http://www.inkscape.org/) -->

<svg
   xmlns:dc="http://purl.org/dc/elements/1.1/"
   xmlns:cc="http://creativecommons.org/ns#"
   xmlns:rdf="http://www.w3.org/1999/02/22-rdf-syntax-ns#"
   xmlns:svg="http://www.w3.org/2000/svg"
   xmlns="http://www.w3.org/2000/svg"
   xmlns:sodipodi="http://sodipodi.sourceforge.net/DTD/sodipodi-0.dtd"
   xmlns:inkscape="http://www.inkscape.org/namespaces/inkscape"
   version="1.1"
   id="svg2"
   xml:space="preserve"
   width="1436"
   height="460"
   viewBox="0 0 1436 460"
   sodipodi:docname="enabling.svg"
   inkscape:version="0.92.2 5c3e80d, 2017-08-06"><metadata
     id="metadata8"><rdf:RDF><cc:Work
         rdf:about=""><dc:format>image/svg+xml</dc:format><dc:type
           rdf:resource="http://purl.org/dc/dcmitype/StillImage" /><dc:title></dc:title><dc:subject><rdf:Bag><rdf:li>SELinux</rdf:li></rdf:Bag></dc:subject></cc:Work></rdf:RDF></metadata><defs
     id="defs6"><clipPath
       clipPathUnits="userSpaceOnUse"
       id="clipPath44"><path
         d="M 0,345 H 1077 V 0 H 0 Z"
         id="path42"
         inkscape:connector-curvature="0" /></clipPath></defs><sodipodi:namedview
     pagecolor="#ffffff"
     bordercolor="#666666"
     borderopacity="1"
     objecttolerance="10"
     gridtolerance="10"
     guidetolerance="10"
     inkscape:pageopacity="0"
     inkscape:pageshadow="2"
     inkscape:window-width="1100"
     inkscape:window-height="643"
     id="namedview4"
     showgrid="false"
     inkscape:zoom="0.65983502"
     inkscape:cx="718"
     inkscape:cy="230"
     inkscape:window-x="0"
     inkscape:window-y="0"
     inkscape:window-maximized="0"
     inkscape:current-layer="g10" /><g
     id="g10"
     inkscape:groupmode="layer"
     inkscape:label="enabling"
     transform="matrix(1.3333333,0,0,-1.3333333,0,460)"><path
       d="M 283,20.867 H 24 v 119.125 h 259 z"
       style="fill:#e6e6e6;fill-opacity:1;fill-rule:nonzero;stroke:none"
       id="path12"
       inkscape:connector-curvature="0" /><path
       d="M 283,206.867 H 24 v 119.125 h 259 z"
       style="fill:#e6e6e6;fill-opacity:1;fill-rule:nonzero;stroke:none"
       id="path14"
       inkscape:connector-curvature="0" /><path
       d="M 1060,20.867 H 801 v 119.125 h 259 z"
       style="fill:#e6e6e6;fill-opacity:1;fill-rule:nonzero;stroke:none"
       id="path16"
       inkscape:connector-curvature="0" /><path
       d="M 1060,206.867 H 801 v 119.125 h 259 z"
       style="fill:#e6e6e6;fill-opacity:1;fill-rule:nonzero;stroke:none"
       id="path18"
       inkscape:connector-curvature="0" /><path
       d="m 671.5,113.867 h -259 v 119.125 h 259 z"
       style="fill:#e6e6e6;fill-opacity:1;fill-rule:nonzero;stroke:none"
       id="path20"
       inkscape:connector-curvature="0" /><g
       id="g22"
       transform="translate(412.5,172.4292)"><path
         d="m 0,0 h -68 v 93.071 h -50.736 v 2 H -66 V 2 H 0 Z"
         style="fill:#0088ce;fill-opacity:1;fill-rule:nonzero;stroke:none"
         id="path24"
         inkscape:connector-curvature="0" /></g><g
       id="g26"
       transform="translate(295.9526,273.9795)"><path
         d="M 0,0 -12.953,-7.479 0,-14.959 Z"
         style="fill:#0088ce;fill-opacity:1;fill-rule:nonzero;stroke:none"
         id="path28"
         inkscape:connector-curvature="0" /></g><g
       id="g30"
       transform="translate(346.5,79)"><path
         d="M 0,0 H -52.736 V 2 H -2 v 93.429 h 68 v -2 H 0 Z"
         style="fill:#0088ce;fill-opacity:1;fill-rule:nonzero;stroke:none"
         id="path32"
         inkscape:connector-curvature="0" /></g><g
       id="g34"
       transform="translate(295.9526,87.4795)"><path
         d="M 0,0 -12.953,-7.479 0,-14.959 Z"
         style="fill:#0088ce;fill-opacity:1;fill-rule:nonzero;stroke:none"
         id="path36"
         inkscape:connector-curvature="0" /></g><g
       id="g38"><g
         id="g40"
         clip-path="url(#clipPath44)"><g
           id="g46"
           transform="translate(675,172.4292)"><path
             d="m 0,0 h -3 c -0.553,0 -1,0.448 -1,1 0,0.552 0.447,1 1,1 H 0 C 0.553,2 1,1.552 1,1 1,0.448 0.553,0 0,0"
             style="fill:#4c4c4c;fill-opacity:1;fill-rule:nonzero;stroke:none"
             id="path48"
             inkscape:connector-curvature="0" /></g><g
           id="g50"
           transform="translate(686.0918,172.4292)"><path
             d="m 0,0 h -5.546 c -0.553,0 -1,0.448 -1,1 0,0.552 0.447,1 1,1 H 0 C 0.553,2 1,1.552 1,1 1,0.448 0.553,0 0,0 M 11.091,0 H 5.545 c -0.553,0 -1,0.448 -1,1 0,0.552 0.447,1 1,1 h 5.546 c 0.553,0 1,-0.448 1,-1 0,-0.552 -0.447,-1 -1,-1 m 11.091,0 h -5.546 c -0.553,0 -1,0.448 -1,1 0,0.552 0.447,1 1,1 h 5.546 c 0.552,0 1,-0.448 1,-1 0,-0.552 -0.448,-1 -1,-1 m 11.09,0 h -5.545 c -0.553,0 -1,0.448 -1,1 0,0.552 0.447,1 1,1 h 5.545 c 0.553,0 1,-0.448 1,-1 0,-0.552 -0.447,-1 -1,-1 m 11.091,0 h -5.546 c -0.552,0 -1,0.448 -1,1 0,0.552 0.448,1 1,1 h 5.546 c 0.553,0 1,-0.448 1,-1 0,-0.552 -0.447,-1 -1,-1"
             style="fill:#4c4c4c;fill-opacity:1;fill-rule:nonzero;stroke:none"
             id="path52"
             inkscape:connector-curvature="0" /></g><g
           id="g54"
           transform="translate(739,172.4292)"><path
             d="m 0,0 h -3 c -0.553,0 -1,0.448 -1,1 0,0.552 0.447,1 1,1 h 2 V 4 C -1,4.552 -0.553,5 0,5 0.553,5 1,4.552 1,4 V 1 C 1,0.448 0.553,0 0,0"
             style="fill:#4c4c4c;fill-opacity:1;fill-rule:nonzero;stroke:none"
             id="path56"
             inkscape:connector-curvature="0" /></g><g
           id="g58"
           transform="translate(739,250.8906)"><path
             d="m 0,0 c -0.553,0 -1,0.448 -1,1 v 5.805 c 0,0.552 0.447,1 1,1 0.553,0 1,-0.448 1,-1 V 1 C 1,0.448 0.553,0 0,0 m 0,-11.609 c -0.553,0 -1,0.447 -1,1 v 5.804 c 0,0.553 0.447,1 1,1 0.553,0 1,-0.447 1,-1 v -5.804 c 0,-0.553 -0.447,-1 -1,-1 m 0,-11.61 c -0.553,0 -1,0.448 -1,1 v 5.805 c 0,0.552 0.447,1 1,1 0.553,0 1,-0.448 1,-1 v -5.805 c 0,-0.552 -0.447,-1 -1,-1 m 0,-11.61 c -0.553,0 -1,0.448 -1,1 v 5.806 c 0,0.552 0.447,1 1,1 0.553,0 1,-0.448 1,-1 v -5.806 c 0,-0.552 -0.447,-1 -1,-1 m 0,-11.609 c -0.553,0 -1,0.448 -1,1 v 5.805 c 0,0.552 0.447,1 1,1 0.553,0 1,-0.448 1,-1 v -5.805 c 0,-0.552 -0.447,-1 -1,-1 m 0,-11.609 c -0.553,0 -1,0.447 -1,1 v 5.804 c 0,0.553 0.447,1 1,1 0.553,0 1,-0.447 1,-1 v -5.804 c 0,-0.553 -0.447,-1 -1,-1 m 0,-11.61 c -0.553,0 -1,0.448 -1,1 v 5.805 c 0,0.552 0.447,1 1,1 0.553,0 1,-0.448 1,-1 v -5.805 c 0,-0.552 -0.447,-1 -1,-1"
             style="fill:#4c4c4c;fill-opacity:1;fill-rule:nonzero;stroke:none"
             id="path60"
             inkscape:connector-curvature="0" /></g><g
           id="g62"
           transform="translate(739,262.5)"><path
             d="m 0,0 c -0.553,0 -1,0.448 -1,1 v 3 c 0,0.552 0.447,1 1,1 H 3 C 3.553,5 4,4.552 4,4 4,3.448 3.553,3 3,3 H 1 V 1 C 1,0.448 0.553,0 0,0"
             style="fill:#4c4c4c;fill-opacity:1;fill-rule:nonzero;stroke:none"
             id="path64"
             inkscape:connector-curvature="0" /></g><g
           id="g66"
           transform="translate(755.0664,265.5)"><path
             d="m 0,0 h -6.533 c -0.553,0 -1,0.448 -1,1 0,0.552 0.447,1 1,1 H 0 C 0.553,2 1,1.552 1,1 1,0.448 0.553,0 0,0 M 13.067,0 H 6.534 c -0.553,0 -1,0.448 -1,1 0,0.552 0.447,1 1,1 h 6.533 c 0.553,0 1,-0.448 1,-1 0,-0.552 -0.447,-1 -1,-1 m 13.068,0 h -6.533 c -0.553,0 -1,0.448 -1,1 0,0.552 0.447,1 1,1 h 6.533 c 0.552,0 1,-0.448 1,-1 0,-0.552 -0.448,-1 -1,-1"
             style="fill:#4c4c4c;fill-opacity:1;fill-rule:nonzero;stroke:none"
             id="path68"
             inkscape:connector-curvature="0" /></g><g
           id="g70"
           transform="translate(790.7354,265.5)"><path
             d="m 0,0 h -3 c -0.553,0 -1,0.448 -1,1 0,0.552 0.447,1 1,1 H 0 C 0.553,2 1,1.552 1,1 1,0.448 0.553,0 0,0"
             style="fill:#4c4c4c;fill-opacity:1;fill-rule:nonzero;stroke:none"
             id="path72"
             inkscape:connector-curvature="0" /></g><g
           id="g74"
           transform="translate(788.5469,259.0205)"><path
             d="M 0,0 12.953,7.479 0,14.959 Z"
             style="fill:#4c4c4c;fill-opacity:1;fill-rule:nonzero;stroke:none"
             id="path76"
             inkscape:connector-curvature="0" /></g><g
           id="g78"
           transform="translate(675,172.4292)"><path
             d="m 0,0 h -3 c -0.553,0 -1,0.448 -1,1 0,0.552 0.447,1 1,1 H 0 C 0.553,2 1,1.552 1,1 1,0.448 0.553,0 0,0"
             style="fill:#4c4c4c;fill-opacity:1;fill-rule:nonzero;stroke:none"
             id="path80"
             inkscape:connector-curvature="0" /></g><g
           id="g82"
           transform="translate(686.0918,172.4292)"><path
             d="m 0,0 h -5.546 c -0.553,0 -1,0.448 -1,1 0,0.552 0.447,1 1,1 H 0 C 0.553,2 1,1.552 1,1 1,0.448 0.553,0 0,0 M 11.091,0 H 5.545 c -0.553,0 -1,0.448 -1,1 0,0.552 0.447,1 1,1 h 5.546 c 0.553,0 1,-0.448 1,-1 0,-0.552 -0.447,-1 -1,-1 m 11.091,0 h -5.546 c -0.553,0 -1,0.448 -1,1 0,0.552 0.447,1 1,1 h 5.546 c 0.552,0 1,-0.448 1,-1 0,-0.552 -0.448,-1 -1,-1 m 11.09,0 h -5.545 c -0.553,0 -1,0.448 -1,1 0,0.552 0.447,1 1,1 h 5.545 c 0.553,0 1,-0.448 1,-1 0,-0.552 -0.447,-1 -1,-1 m 11.091,0 h -5.546 c -0.552,0 -1,0.448 -1,1 0,0.552 0.448,1 1,1 h 5.546 c 0.553,0 1,-0.448 1,-1 0,-0.552 -0.447,-1 -1,-1"
             style="fill:#4c4c4c;fill-opacity:1;fill-rule:nonzero;stroke:none"
             id="path84"
             inkscape:connector-curvature="0" /></g><g
           id="g86"
           transform="translate(739,169.4292)"><path
             d="m 0,0 c -0.553,0 -1,0.448 -1,1 v 2 h -2 c -0.553,0 -1,0.448 -1,1 0,0.552 0.447,1 1,1 H 0 C 0.553,5 1,4.552 1,4 V 1 C 1,0.448 0.553,0 0,0"
             style="fill:#4c4c4c;fill-opacity:1;fill-rule:nonzero;stroke:none"
             id="path88"
             inkscape:connector-curvature="0" /></g><g
           id="g90"
           transform="translate(739,157.772)"><path
             d="m 0,0 c -0.553,0 -1,0.448 -1,1 v 5.829 c 0,0.552 0.447,1 1,1 0.553,0 1,-0.448 1,-1 V 1 C 1,0.448 0.553,0 0,0 m 0,-11.657 c -0.553,0 -1,0.448 -1,1 v 5.828 c 0,0.553 0.447,1 1,1 0.553,0 1,-0.447 1,-1 v -5.828 c 0,-0.552 -0.447,-1 -1,-1 m 0,-11.657 c -0.553,0 -1,0.447 -1,1 v 5.828 c 0,0.552 0.447,1 1,1 0.553,0 1,-0.448 1,-1 v -5.828 c 0,-0.553 -0.447,-1 -1,-1 m 0,-11.658 c -0.553,0 -1,0.448 -1,1 v 5.829 c 0,0.552 0.447,1 1,1 0.553,0 1,-0.448 1,-1 v -5.829 c 0,-0.552 -0.447,-1 -1,-1 m 0,-11.657 c -0.553,0 -1,0.448 -1,1 v 5.829 c 0,0.552 0.447,1 1,1 0.553,0 1,-0.448 1,-1 v -5.829 c 0,-0.552 -0.447,-1 -1,-1 m 0,-11.657 c -0.553,0 -1,0.448 -1,1 v 5.828 c 0,0.553 0.447,1 1,1 0.553,0 1,-0.447 1,-1 v -5.828 c 0,-0.552 -0.447,-1 -1,-1 m 0,-11.657 c -0.553,0 -1,0.447 -1,1 v 5.828 c 0,0.552 0.447,1 1,1 0.553,0 1,-0.448 1,-1 v -5.828 c 0,-0.553 -0.447,-1 -1,-1"
             style="fill:#4c4c4c;fill-opacity:1;fill-rule:nonzero;stroke:none"
             id="path92"
             inkscape:connector-curvature="0" /></g><g
           id="g94"
           transform="translate(742,79)"><path
             d="m 0,0 h -3 c -0.553,0 -1,0.448 -1,1 v 3 c 0,0.552 0.447,1 1,1 0.553,0 1,-0.448 1,-1 V 2 H 0 C 0.553,2 1,1.552 1,1 1,0.448 0.553,0 0,0"
             style="fill:#4c4c4c;fill-opacity:1;fill-rule:nonzero;stroke:none"
             id="path96"
             inkscape:connector-curvature="0" /></g><g
           id="g98"
           transform="translate(755.0664,79)"><path
             d="m 0,0 h -6.533 c -0.553,0 -1,0.448 -1,1 0,0.552 0.447,1 1,1 H 0 C 0.553,2 1,1.552 1,1 1,0.448 0.553,0 0,0 M 13.067,0 H 6.534 c -0.553,0 -1,0.448 -1,1 0,0.552 0.447,1 1,1 h 6.533 c 0.553,0 1,-0.448 1,-1 0,-0.552 -0.447,-1 -1,-1 m 13.068,0 h -6.533 c -0.553,0 -1,0.448 -1,1 0,0.552 0.447,1 1,1 h 6.533 c 0.552,0 1,-0.448 1,-1 0,-0.552 -0.448,-1 -1,-1"
             style="fill:#4c4c4c;fill-opacity:1;fill-rule:nonzero;stroke:none"
             id="path100"
             inkscape:connector-curvature="0" /></g><g
           id="g102"
           transform="translate(790.7354,79)"><path
             d="m 0,0 h -3 c -0.553,0 -1,0.448 -1,1 0,0.552 0.447,1 1,1 H 0 C 0.553,2 1,1.552 1,1 1,0.448 0.553,0 0,0"
             style="fill:#4c4c4c;fill-opacity:1;fill-rule:nonzero;stroke:none"
             id="path104"
             inkscape:connector-curvature="0" /></g><g
           id="g106"
           transform="translate(788.5469,72.5205)"><path
             d="M 0,0 12.953,7.479 0,14.959 Z"
             style="fill:#4c4c4c;fill-opacity:1;fill-rule:nonzero;stroke:none"
             id="path108"
             inkscape:connector-curvature="0" /></g><g
           id="g110"
           transform="translate(512.2695,190.1846)"><path
             d="M 0,0 C -0.308,0.902 -0.616,1.826 -0.771,2.398 -0.924,1.826 -1.232,0.902 -1.541,0 l -0.99,-2.794 H 0.99 Z m 3.256,-9.153 -1.21,3.432 h -5.633 l -1.21,-3.432 H -8.098 L -2.201,6.249 H 0.792 L 6.645,-9.153 Z"
             style="fill:#4c4c4c;fill-opacity:1;fill-rule:nonzero;stroke:none"
             id="path112"
             inkscape:connector-curvature="0" /></g><g
           id="g114"
           transform="translate(526.1729,189.9644)"><path
             d="m 0,0 c -0.946,0 -1.43,-0.396 -1.87,-0.968 v -4.357 c 0.462,-0.638 1.166,-0.99 2.046,-0.99 1.166,0 1.804,1.012 1.804,2.949 C 1.98,-0.99 1.188,0 0,0 m 0.572,-9.175 c -1.012,0 -1.892,0.396 -2.442,0.902 v -3.389 L -4.907,-13.18 V 2.619 H -1.87 V 1.893 c 0.572,0.505 1.342,0.968 2.442,0.968 2.465,0 4.489,-1.849 4.489,-6.161 0,-3.455 -1.628,-5.875 -4.489,-5.875"
             style="fill:#4c4c4c;fill-opacity:1;fill-rule:nonzero;stroke:none"
             id="path116"
             inkscape:connector-curvature="0" /></g><g
           id="g118"
           transform="translate(539.8115,185.8721)"><path
             d="m 0,0 c -0.527,0.33 -1.034,0.484 -2.112,0.484 -1.144,0 -1.761,-0.528 -1.761,-1.452 0,-0.814 0.463,-1.54 1.761,-1.54 0.99,0 1.782,0.506 2.112,1.056 z m 0,-4.841 v 0.77 c -0.55,-0.572 -1.518,-1.012 -2.596,-1.012 -2.156,0 -4.313,1.32 -4.313,4.115 0,2.552 2.068,3.828 4.687,3.828 1.056,0 1.739,-0.22 2.222,-0.462 L 0,2.97 c 0,0.814 -0.55,1.474 -1.649,1.474 -1.387,0 -2.113,-0.197 -3.169,-0.77 l -1.167,2.113 c 1.342,0.77 2.464,1.166 4.336,1.166 2.794,0 4.686,-1.453 4.686,-4.049 v -7.745 z"
             style="fill:#4c4c4c;fill-opacity:1;fill-rule:nonzero;stroke:none"
             id="path120"
             inkscape:connector-curvature="0" /></g><g
           id="g122"
           transform="translate(550.5039,180.7891)"><path
             d="m 0,0 c -3.015,0 -5.413,2.464 -5.413,6.007 0,3.542 2.332,6.029 5.545,6.029 2.2,0 3.608,-1.078 4.576,-2.553 L 2.706,7.459 c -0.682,0.968 -1.408,1.65 -2.641,1.65 -1.452,0 -2.398,-1.21 -2.398,-3.102 0,-1.848 0.946,-3.08 2.398,-3.08 1.189,0 1.937,0.528 2.729,1.474 L 4.73,2.575 C 3.608,1.078 2.288,0 0,0"
             style="fill:#4c4c4c;fill-opacity:1;fill-rule:nonzero;stroke:none"
             id="path124"
             inkscape:connector-curvature="0" /></g><g
           id="g126"
           transform="translate(564.4736,181.0312)"><path
             d="m 0,0 v 6.249 c 0,2.068 -0.704,2.684 -1.959,2.684 -1.254,0 -1.979,-0.616 -1.979,-2.618 V 0 h -3.038 v 14.522 l 3.038,1.519 v -5.259 c 0.527,0.55 1.496,1.012 2.706,1.012 2.948,0 4.268,-2.024 4.268,-5.281 L 3.036,0 Z"
             style="fill:#4c4c4c;fill-opacity:1;fill-rule:nonzero;stroke:none"
             id="path128"
             inkscape:connector-curvature="0" /></g><g
           id="g130"
           transform="translate(574.7471,190.1846)"><path
             d="M 0,0 C -1.1,0 -1.782,-0.902 -1.893,-2.068 H 2.068 C 1.98,-1.034 1.364,0 0,0 m 4.973,-4.356 h -6.91 c 0.111,-1.585 1.277,-2.179 2.377,-2.179 0.836,0 1.54,0.308 1.981,0.814 L 4.577,-7.525 C 3.652,-8.713 1.98,-9.396 0.44,-9.396 c -3.323,0 -5.435,2.355 -5.435,6.007 0,3.543 2.223,6.03 5.149,6.03 3.08,0 4.863,-2.729 4.863,-6.03 0,-0.44 -0.022,-0.748 -0.044,-0.967"
             style="fill:#4c4c4c;fill-opacity:1;fill-rule:nonzero;stroke:none"
             id="path132"
             inkscape:connector-curvature="0" /></g><g
           id="g134"
           transform="translate(518.5195,158.0312)"><path
             d="M 0,0 V 5.348 C 0,7.256 -0.72,7.94 -1.945,7.94 -3.187,7.94 -3.889,7.058 -3.889,5.528 V 0 h -1.855 v 12.154 l 1.855,0.972 V 8.553 c 0.468,0.684 1.404,1.098 2.376,1.098 2.197,0 3.367,-1.441 3.367,-4.232 V 0 Z"
             style="fill:#4c4c4c;fill-opacity:1;fill-rule:nonzero;stroke:none"
             id="path136"
             inkscape:connector-curvature="0" /></g><g
           id="g138"
           transform="translate(527.4668,158.2651)"><path
             d="m 0,0 c -0.45,-0.252 -1.08,-0.432 -1.818,-0.432 -1.315,0 -2.125,0.81 -2.125,2.503 v 5.455 h -1.35 v 1.693 h 1.35 v 2.701 l 1.818,0.972 V 9.219 H 0.216 V 7.526 H -2.125 V 2.395 c 0,-0.882 0.289,-1.134 0.973,-1.134 0.486,0 1.026,0.179 1.368,0.378 z"
             style="fill:#4c4c4c;fill-opacity:1;fill-rule:nonzero;stroke:none"
             id="path140"
             inkscape:connector-curvature="0" /></g><g
           id="g142"
           transform="translate(534.4526,158.2651)"><path
             d="m 0,0 c -0.45,-0.252 -1.08,-0.432 -1.818,-0.432 -1.315,0 -2.125,0.81 -2.125,2.503 v 5.455 h -1.35 v 1.693 h 1.35 v 2.701 l 1.818,0.972 V 9.219 H 0.216 V 7.526 H -2.125 V 2.395 c 0,-0.882 0.289,-1.134 0.973,-1.134 0.486,0 1.026,0.179 1.368,0.378 z"
             style="fill:#4c4c4c;fill-opacity:1;fill-rule:nonzero;stroke:none"
             id="path144"
             inkscape:connector-curvature="0" /></g><g
           id="g146"
           transform="translate(541.1484,165.9717)"><path
             d="m 0,0 c -0.882,0 -1.656,-0.594 -2.143,-1.207 v -3.979 c 0.414,-0.558 1.279,-1.242 2.215,-1.242 1.332,0 2.053,1.008 2.053,3.007 C 2.125,-1.044 1.368,0 0,0 m 0.252,-8.139 c -0.954,0 -1.855,0.505 -2.376,1.081 v -3.403 l -1.837,-0.955 V 1.512 h 1.837 v -0.9 c 0.684,0.63 1.476,1.098 2.467,1.098 2.034,0 3.636,-1.476 3.636,-5.077 0,-3.241 -1.764,-4.772 -3.727,-4.772"
             style="fill:#4c4c4c;fill-opacity:1;fill-rule:nonzero;stroke:none"
             id="path148"
             inkscape:connector-curvature="0" /></g><g
           id="g150"
           transform="translate(553.1553,164.7295)"><path
             d="m 0,0 c -0.414,0.558 -1.278,1.242 -2.215,1.242 -1.333,0 -2.053,-1.008 -2.053,-3.007 0,-2.377 0.756,-3.421 2.125,-3.421 0.882,0 1.657,0.594 2.143,1.207 z m -0.019,-6.698 v 0.9 c -0.683,-0.63 -1.476,-1.098 -2.466,-1.098 -2.035,0 -3.637,1.476 -3.637,5.077 0,3.241 1.765,4.772 3.726,4.772 0.956,0 1.856,-0.505 2.377,-1.081 V 5.474 L 1.818,6.428 V -6.698 Z"
             style="fill:#4c4c4c;fill-opacity:1;fill-rule:nonzero;stroke:none"
             id="path152"
             inkscape:connector-curvature="0" /></g><path
           d="m 556.339,156.555 h 9.002 v -1.71 h -9.002 z"
           style="fill:#4c4c4c;fill-opacity:1;fill-rule:nonzero;stroke:none"
           id="path154"
           inkscape:connector-curvature="0" /><g
           id="g156"
           transform="translate(571.2266,158.2651)"><path
             d="m 0,0 c -0.45,-0.252 -1.08,-0.432 -1.818,-0.432 -1.315,0 -2.125,0.81 -2.125,2.503 v 5.455 h -1.351 v 1.693 h 1.351 v 2.701 l 1.818,0.972 V 9.219 H 0.216 V 7.526 H -2.125 V 2.395 c 0,-0.882 0.288,-1.134 0.973,-1.134 0.486,0 1.026,0.179 1.368,0.378 z"
             style="fill:#4c4c4c;fill-opacity:1;fill-rule:nonzero;stroke:none"
             id="path158"
             inkscape:connector-curvature="0" /></g><g
           id="g160"
           transform="translate(864.1162,272.0508)"><path
             d="M 0,0 H -2.993 L 4.181,19.363 H 7.173 Z"
             style="fill:#4c4c4c;fill-opacity:1;fill-rule:nonzero;stroke:none"
             id="path162"
             inkscape:connector-curvature="0" /></g><g
           id="g164"
           transform="translate(878.2852,274.0312)"><path
             d="m 0,0 h -3.125 l -4.158,11.552 h 3.344 l 1.695,-5.347 c 0.285,-0.88 0.594,-1.98 0.725,-2.531 0.132,0.573 0.441,1.629 0.726,2.531 l 1.695,5.347 h 3.256 z"
             style="fill:#4c4c4c;fill-opacity:1;fill-rule:nonzero;stroke:none"
             id="path166"
             inkscape:connector-curvature="0" /></g><g
           id="g168"
           transform="translate(890.2764,278.8721)"><path
             d="m 0,0 c -0.528,0.33 -1.034,0.484 -2.112,0.484 -1.145,0 -1.76,-0.528 -1.76,-1.452 0,-0.814 0.462,-1.54 1.76,-1.54 0.99,0 1.782,0.506 2.112,1.056 z m 0,-4.841 v 0.77 c -0.55,-0.572 -1.519,-1.012 -2.597,-1.012 -2.156,0 -4.312,1.32 -4.312,4.115 0,2.552 2.068,3.828 4.687,3.828 1.056,0 1.739,-0.22 2.222,-0.462 L 0,2.97 c 0,0.814 -0.55,1.474 -1.649,1.474 -1.387,0 -2.114,-0.197 -3.169,-0.77 l -1.167,2.113 c 1.342,0.77 2.464,1.166 4.336,1.166 2.793,0 4.685,-1.453 4.685,-4.049 v -7.745 z"
             style="fill:#4c4c4c;fill-opacity:1;fill-rule:nonzero;stroke:none"
             id="path170"
             inkscape:connector-curvature="0" /></g><g
           id="g172"
           transform="translate(902.9043,282.0405)"><path
             d="m 0,0 c -0.484,0.44 -1.078,0.748 -1.76,0.748 -1.188,0 -1.959,-0.506 -1.959,-2.508 V -8.009 H -6.755 V 3.542 h 3.036 v -0.77 c 0.529,0.55 1.299,1.013 2.377,1.013 0.99,0 1.738,-0.397 2.135,-0.815 z"
             style="fill:#4c4c4c;fill-opacity:1;fill-rule:nonzero;stroke:none"
             id="path174"
             inkscape:connector-curvature="0" /></g><g
           id="g176"
           transform="translate(905.1895,272.0508)"><path
             d="M 0,0 H -2.992 L 4.182,19.363 H 7.174 Z"
             style="fill:#4c4c4c;fill-opacity:1;fill-rule:nonzero;stroke:none"
             id="path178"
             inkscape:connector-curvature="0" /></g><g
           id="g180"
           transform="translate(913.8125,274.0312)"><path
             d="m 0,0 v 14.522 l 3.037,1.519 V 0 Z"
             style="fill:#4c4c4c;fill-opacity:1;fill-rule:nonzero;stroke:none"
             id="path182"
             inkscape:connector-curvature="0" /></g><path
           d="m 920.018,285.583 h 3.035 v -11.552 h -3.035 z m 1.517,0.946 c -0.946,0 -1.738,0.792 -1.738,1.738 0,0.946 0.792,1.738 1.738,1.738 0.945,0 1.738,-0.792 1.738,-1.738 0,-0.946 -0.793,-1.738 -1.738,-1.738"
           style="fill:#4c4c4c;fill-opacity:1;fill-rule:nonzero;stroke:none"
           id="path184"
           inkscape:connector-curvature="0" /><g
           id="g186"
           transform="translate(931.0176,282.9644)"><path
             d="m 0,0 c -0.946,0 -1.43,-0.396 -1.87,-0.968 v -4.357 c 0.462,-0.638 1.166,-0.99 2.046,-0.99 1.166,0 1.804,1.012 1.804,2.949 C 1.98,-0.99 1.187,0 0,0 m 0.572,-9.175 c -1.011,0 -1.892,0.396 -2.442,0.902 v -0.66 H -4.906 V 5.589 L -1.87,7.107 V 1.893 c 0.571,0.505 1.343,0.968 2.442,0.968 2.465,0 4.489,-1.849 4.489,-6.161 0,-3.455 -1.628,-5.875 -4.489,-5.875"
             style="fill:#4c4c4c;fill-opacity:1;fill-rule:nonzero;stroke:none"
             id="path188"
             inkscape:connector-curvature="0" /></g><g
           id="g190"
           transform="translate(939.4414,272.0508)"><path
             d="M 0,0 H -2.992 L 4.182,19.363 H 7.174 Z"
             style="fill:#4c4c4c;fill-opacity:1;fill-rule:nonzero;stroke:none"
             id="path192"
             inkscape:connector-curvature="0" /></g><g
           id="g194"
           transform="translate(951.4551,282.9644)"><path
             d="m 0,0 c -0.947,0 -1.431,-0.396 -1.871,-0.968 v -4.357 c 0.463,-0.638 1.166,-0.99 2.047,-0.99 1.166,0 1.804,1.012 1.804,2.949 C 1.98,-0.99 1.187,0 0,0 m 0.572,-9.175 c -1.012,0 -1.892,0.396 -2.443,0.902 v -3.389 L -4.907,-13.18 V 2.619 h 3.036 V 1.893 c 0.572,0.505 1.343,0.968 2.443,0.968 2.464,0 4.489,-1.849 4.489,-6.161 0,-3.455 -1.629,-5.875 -4.489,-5.875"
             style="fill:#4c4c4c;fill-opacity:1;fill-rule:nonzero;stroke:none"
             id="path196"
             inkscape:connector-curvature="0" /></g><g
           id="g198"
           transform="translate(965.248,281.9746)"><path
             d="m 0,0 c -0.461,0.638 -1.166,0.99 -2.046,0.99 -1.166,0 -1.804,-1.012 -1.804,-2.948 0,-2.377 0.791,-3.367 1.981,-3.367 0.945,0 1.43,0.396 1.869,0.968 z m -1.936,-12.19 -1.078,2.288 C -0.638,-9.572 0,-9 0,-7.217 c -0.571,-0.506 -1.342,-0.969 -2.441,-0.969 -2.465,0 -4.489,1.849 -4.489,6.162 0,3.454 1.627,5.875 4.489,5.875 1.011,0 1.892,-0.397 2.441,-0.903 v 0.66 h 3.037 v -9.593 c 0,-3.807 -0.924,-5.765 -4.973,-6.205"
             style="fill:#4c4c4c;fill-opacity:1;fill-rule:nonzero;stroke:none"
             id="path200"
             inkscape:connector-curvature="0" /></g><g
           id="g202"
           transform="translate(975.6992,273.7891)"><path
             d="m 0,0 c -1.826,0 -3.609,0.528 -4.842,1.342 l 1.013,2.311 c 1.231,-0.682 2.53,-1.056 4.005,-1.056 1.187,0 1.54,0.286 1.54,0.88 0,0.528 -0.419,0.792 -1.695,1.166 -2.772,0.836 -4.554,1.518 -4.554,3.961 0,2.398 1.914,3.432 4.621,3.432 1.451,0 3.036,-0.44 4.267,-1.122 L 3.388,8.516 C 2.244,9.131 0.99,9.439 0.021,9.439 c -1.232,0 -1.562,-0.242 -1.562,-0.748 0,-0.483 0.352,-0.682 2.398,-1.342 C 2.926,6.667 4.708,5.919 4.708,3.609 4.708,0.946 2.596,0 0,0"
             style="fill:#4c4c4c;fill-opacity:1;fill-rule:nonzero;stroke:none"
             id="path204"
             inkscape:connector-curvature="0" /></g><g
           id="g206"
           transform="translate(989.207,281.9746)"><path
             d="m 0,0 c -0.463,0.638 -1.167,0.99 -2.047,0.99 -1.166,0 -1.805,-1.012 -1.805,-2.948 0,-2.377 0.793,-3.367 1.981,-3.367 0.946,0 1.43,0.396 1.871,0.968 z m 0,-12.19 v 4.973 c -0.572,-0.506 -1.344,-0.969 -2.443,-0.969 -2.465,0 -4.489,1.849 -4.489,6.162 0,3.454 1.628,5.875 4.489,5.875 1.011,0 1.892,-0.397 2.443,-0.903 v 0.66 h 3.035 v -14.28 z"
             style="fill:#4c4c4c;fill-opacity:1;fill-rule:nonzero;stroke:none"
             id="path208"
             inkscape:connector-curvature="0" /></g><g
           id="g210"
           transform="translate(995.3437,274.0312)"><path
             d="m 0,0 v 14.522 l 3.037,1.519 V 0 Z"
             style="fill:#4c4c4c;fill-opacity:1;fill-rule:nonzero;stroke:none"
             id="path212"
             inkscape:connector-curvature="0" /></g><g
           id="g214"
           transform="translate(869.4893,253.9717)"><path
             d="m 0,0 c -0.882,0 -1.657,-0.594 -2.143,-1.207 v -3.979 c 0.414,-0.558 1.279,-1.242 2.214,-1.242 1.333,0 2.053,1.008 2.053,3.007 C 2.124,-1.044 1.368,0 0,0 m 0.252,-8.139 c -0.954,0 -1.855,0.505 -2.376,1.081 v -3.403 l -1.838,-0.955 V 1.512 h 1.838 v -0.9 c 0.684,0.63 1.477,1.098 2.467,1.098 2.033,0 3.636,-1.476 3.636,-5.077 0,-3.241 -1.764,-4.772 -3.727,-4.772"
             style="fill:#4c4c4c;fill-opacity:1;fill-rule:nonzero;stroke:none"
             id="path216"
             inkscape:connector-curvature="0" /></g><g
           id="g218"
           transform="translate(879.4785,253.9175)"><path
             d="m 0,0 c -1.404,0 -2.268,-1.242 -2.268,-3.115 0,-2.071 0.954,-3.205 2.358,-3.205 1.404,0 2.323,1.423 2.323,3.151 C 2.413,-1.242 1.494,0 0,0 m 0.019,-8.084 c -2.377,0 -4.16,1.962 -4.16,4.915 0,3.097 1.836,4.934 4.213,4.934 2.413,0 4.213,-1.927 4.213,-4.88 0,-3.133 -1.836,-4.969 -4.266,-4.969"
             style="fill:#4c4c4c;fill-opacity:1;fill-rule:nonzero;stroke:none"
             id="path220"
             inkscape:connector-curvature="0" /></g><g
           id="g222"
           transform="translate(888.9277,245.833)"><path
             d="m 0,0 c -1.277,0 -2.664,0.504 -3.619,1.207 l 0.848,1.404 c 0.88,-0.612 1.871,-0.936 2.753,-0.936 1.17,0 1.729,0.378 1.729,1.044 0,0.72 -0.828,1.062 -2.196,1.585 -2.035,0.792 -2.773,1.476 -2.773,2.97 0,1.693 1.332,2.575 3.223,2.575 1.187,0 2.358,-0.432 3.205,-1.044 L 2.359,7.382 c -0.774,0.54 -1.548,0.81 -2.449,0.81 -0.9,0 -1.296,-0.359 -1.296,-0.864 0,-0.468 0.324,-0.81 1.747,-1.368 C 2.467,5.15 3.548,4.574 3.548,2.791 3.548,0.702 1.855,0 0,0"
             style="fill:#4c4c4c;fill-opacity:1;fill-rule:nonzero;stroke:none"
             id="path224"
             inkscape:connector-curvature="0" /></g><g
           id="g226"
           transform="translate(899.1885,246.2651)"><path
             d="m 0,0 c -0.45,-0.252 -1.08,-0.432 -1.818,-0.432 -1.315,0 -2.124,0.81 -2.124,2.503 v 5.455 h -1.352 v 1.693 h 1.352 v 2.701 l 1.818,0.972 V 9.219 h 2.34 V 7.526 h -2.34 V 2.395 c 0,-0.882 0.287,-1.134 0.972,-1.134 0.486,0 1.026,0.179 1.368,0.378 z"
             style="fill:#4c4c4c;fill-opacity:1;fill-rule:nonzero;stroke:none"
             id="path228"
             inkscape:connector-curvature="0" /></g><g
           id="g230"
           transform="translate(907.1826,252.7295)"><path
             d="m 0,0 c -0.414,0.558 -1.278,1.242 -2.215,1.242 -1.333,0 -2.052,-1.008 -2.052,-3.007 0,-2.377 0.756,-3.421 2.124,-3.421 0.882,0 1.657,0.594 2.143,1.207 z m -2.647,-10.173 -0.629,1.404 c 2.664,0.126 3.24,0.846 3.24,2.809 v 0.162 c -0.684,-0.63 -1.459,-1.098 -2.449,-1.098 -2.016,0 -3.637,1.476 -3.637,5.077 0,3.241 1.783,4.772 3.726,4.772 0.956,0 1.856,-0.505 2.36,-1.081 v 0.882 h 1.854 v -8.552 c 0,-2.881 -1.044,-4.267 -4.465,-4.375"
             style="fill:#4c4c4c;fill-opacity:1;fill-rule:nonzero;stroke:none"
             id="path232"
             inkscape:connector-curvature="0" /></g><g
           id="g234"
           transform="translate(916.8672,253.5215)"><path
             d="m 0,0 c -0.396,0.216 -0.811,0.342 -1.423,0.342 -1.171,0 -1.854,-0.828 -1.854,-2.431 V -7.49 h -1.856 v 9.452 h 1.856 v -0.9 c 0.431,0.63 1.224,1.099 2.16,1.099 0.756,0 1.224,-0.144 1.603,-0.396 z"
             style="fill:#4c4c4c;fill-opacity:1;fill-rule:nonzero;stroke:none"
             id="path236"
             inkscape:connector-curvature="0" /></g><g
           id="g238"
           transform="translate(922.376,254.0078)"><path
             d="M 0,0 C -1.243,0 -1.999,-0.864 -2.161,-2.377 H 2.232 C 2.143,-1.081 1.53,0 0,0 m 4.052,-3.907 h -6.248 c 0.197,-1.819 1.224,-2.593 2.377,-2.593 0.791,0 1.422,0.288 2.051,0.756 l 1.099,-1.188 c -0.828,-0.793 -1.818,-1.243 -3.26,-1.243 -2.214,0 -4.086,1.783 -4.086,4.916 0,3.205 1.692,4.933 4.141,4.933 2.683,0 3.978,-2.178 3.978,-4.735 0,-0.342 -0.035,-0.648 -0.052,-0.846"
             style="fill:#4c4c4c;fill-opacity:1;fill-rule:nonzero;stroke:none"
             id="path240"
             inkscape:connector-curvature="0" /></g><g
           id="g242"
           transform="translate(931.6631,245.833)"><path
             d="m 0,0 c -1.278,0 -2.665,0.504 -3.619,1.207 l 0.847,1.404 c 0.881,-0.612 1.873,-0.936 2.753,-0.936 1.171,0 1.729,0.378 1.729,1.044 0,0.72 -0.828,1.062 -2.195,1.585 -2.036,0.792 -2.774,1.476 -2.774,2.97 0,1.693 1.332,2.575 3.223,2.575 1.188,0 2.359,-0.432 3.205,-1.044 L 2.358,7.382 c -0.773,0.54 -1.547,0.81 -2.448,0.81 -0.9,0 -1.296,-0.359 -1.296,-0.864 0,-0.468 0.324,-0.81 1.746,-1.368 C 2.467,5.15 3.548,4.574 3.548,2.791 3.548,0.702 1.854,0 0,0"
             style="fill:#4c4c4c;fill-opacity:1;fill-rule:nonzero;stroke:none"
             id="path244"
             inkscape:connector-curvature="0" /></g><g
           id="g246"
           transform="translate(943.1113,252.7295)"><path
             d="m 0,0 c -0.414,0.558 -1.277,1.242 -2.215,1.242 -1.332,0 -2.053,-1.008 -2.053,-3.007 0,-2.377 0.757,-3.421 2.125,-3.421 0.883,0 1.657,0.594 2.143,1.207 z m -0.018,-10.173 v 4.375 c -0.683,-0.63 -1.476,-1.098 -2.466,-1.098 -2.036,0 -3.637,1.476 -3.637,5.077 0,3.241 1.764,4.772 3.726,4.772 0.956,0 1.856,-0.505 2.377,-1.081 V 2.754 H 1.818 V -9.219 Z"
             style="fill:#4c4c4c;fill-opacity:1;fill-rule:nonzero;stroke:none"
             id="path248"
             inkscape:connector-curvature="0" /></g><g
           id="g250"
           transform="translate(947.7539,246.0312)"><path
             d="m 0,0 v 12.154 l 1.854,0.972 V 0 Z"
             style="fill:#4c4c4c;fill-opacity:1;fill-rule:nonzero;stroke:none"
             id="path252"
             inkscape:connector-curvature="0" /></g><path
           d="m 951.065,244.555 h 9.003 v -1.71 h -9.003 z"
           style="fill:#4c4c4c;fill-opacity:1;fill-rule:nonzero;stroke:none"
           id="path254"
           inkscape:connector-curvature="0" /><g
           id="g256"
           transform="translate(967.1416,252.7295)"><path
             d="m 0,0 c -0.414,0.558 -1.278,1.242 -2.215,1.242 -1.333,0 -2.052,-1.008 -2.052,-3.007 0,-2.377 0.756,-3.421 2.124,-3.421 0.882,0 1.657,0.594 2.143,1.207 z m -0.019,-6.698 v 0.9 c -0.683,-0.63 -1.476,-1.098 -2.466,-1.098 -2.035,0 -3.637,1.476 -3.637,5.077 0,3.241 1.765,4.772 3.726,4.772 0.956,0 1.856,-0.505 2.377,-1.081 V 5.474 L 1.818,6.428 V -6.698 Z"
             style="fill:#4c4c4c;fill-opacity:1;fill-rule:nonzero;stroke:none"
             id="path258"
             inkscape:connector-curvature="0" /></g><g
           id="g260"
           transform="translate(975.6543,253.9717)"><path
             d="m 0,0 c -0.882,0 -1.656,-0.594 -2.143,-1.207 v -3.979 c 0.414,-0.558 1.28,-1.242 2.215,-1.242 1.332,0 2.053,1.008 2.053,3.007 C 2.125,-1.044 1.369,0 0,0 m 0.252,-8.139 c -0.953,0 -1.854,0.505 -2.376,1.081 V -7.94 H -3.961 V 4.231 l 1.837,0.955 V 0.612 c 0.685,0.63 1.476,1.098 2.467,1.098 2.034,0 3.636,-1.476 3.636,-5.077 0,-3.241 -1.764,-4.772 -3.727,-4.772"
             style="fill:#4c4c4c;fill-opacity:1;fill-rule:nonzero;stroke:none"
             id="path262"
             inkscape:connector-curvature="0" /></g><path
           d="m 980.585,244.555 h 9.003 v -1.71 h -9.003 z"
           style="fill:#4c4c4c;fill-opacity:1;fill-rule:nonzero;stroke:none"
           id="path264"
           inkscape:connector-curvature="0" /><g
           id="g266"
           transform="translate(995.4727,246.2651)"><path
             d="m 0,0 c -0.449,-0.252 -1.08,-0.432 -1.818,-0.432 -1.315,0 -2.125,0.81 -2.125,2.503 v 5.455 h -1.35 v 1.693 h 1.35 v 2.701 l 1.818,0.972 V 9.219 H 0.217 V 7.526 H -2.125 V 2.395 c 0,-0.882 0.289,-1.134 0.973,-1.134 0.486,0 1.027,0.179 1.369,0.378 z"
             style="fill:#4c4c4c;fill-opacity:1;fill-rule:nonzero;stroke:none"
             id="path268"
             inkscape:connector-curvature="0" /></g><g
           id="g270"
           transform="translate(873.4004,85.251)"><path
             d="M 0,0 H -2.993 L 4.18,19.363 h 2.992 z"
             style="fill:#4c4c4c;fill-opacity:1;fill-rule:nonzero;stroke:none"
             id="path272"
             inkscape:connector-curvature="0" /></g><g
           id="g274"
           transform="translate(888.8887,87.2314)"><path
             d="m 0,0 v 6.249 c 0,2.068 -0.705,2.684 -1.959,2.684 -1.254,0 -1.98,-0.616 -1.98,-2.618 V 0 h -3.037 v 14.522 l 3.037,1.519 v -5.259 c 0.528,0.55 1.496,1.012 2.707,1.012 2.948,0 4.268,-2.024 4.268,-5.281 L 3.036,0 Z"
             style="fill:#4c4c4c;fill-opacity:1;fill-rule:nonzero;stroke:none"
             id="path276"
             inkscape:connector-curvature="0" /></g><g
           id="g278"
           transform="translate(899.3809,96.0986)"><path
             d="m 0,0 c -1.451,0 -2.134,-1.32 -2.134,-3.103 0,-1.782 0.683,-3.08 2.134,-3.08 1.453,0 2.156,1.475 2.156,3.08 C 2.156,-1.342 1.453,0 0,0 m 0,-9.109 c -3.014,0 -5.215,2.464 -5.215,6.006 0,3.543 2.201,6.03 5.215,6.03 3.016,0 5.237,-2.487 5.237,-6.03 0,-3.542 -2.221,-6.006 -5.237,-6.006"
             style="fill:#4c4c4c;fill-opacity:1;fill-rule:nonzero;stroke:none"
             id="path280"
             inkscape:connector-curvature="0" /></g><g
           id="g282"
           transform="translate(920.4805,87.2314)"><path
             d="m 0,0 v 6.249 c 0,2.068 -0.594,2.684 -1.848,2.684 -1.254,0 -1.871,-0.616 -1.871,-2.618 V 0 h -3.036 v 6.249 c 0,2.068 -0.594,2.684 -1.849,2.684 -1.253,0 -1.869,-0.616 -1.869,-2.618 V 0 h -3.037 v 11.552 h 3.037 v -0.77 c 0.528,0.55 1.321,1.012 2.53,1.012 1.474,0 2.333,-0.419 3.191,-1.475 0.791,0.815 1.76,1.475 3.674,1.475 2.949,0 4.115,-2.024 4.115,-5.281 L 3.037,0 Z"
             style="fill:#4c4c4c;fill-opacity:1;fill-rule:nonzero;stroke:none"
             id="path284"
             inkscape:connector-curvature="0" /></g><g
           id="g286"
           transform="translate(930.7539,96.3848)"><path
             d="M 0,0 C -1.101,0 -1.783,-0.902 -1.893,-2.068 H 2.068 C 1.979,-1.034 1.363,0 0,0 m 4.973,-4.356 h -6.91 c 0.111,-1.585 1.277,-2.179 2.376,-2.179 0.836,0 1.54,0.308 1.981,0.814 L 4.576,-7.525 C 3.652,-8.713 1.979,-9.396 0.439,-9.396 c -3.322,0 -5.435,2.355 -5.435,6.007 0,3.543 2.223,6.03 5.149,6.03 3.081,0 4.863,-2.729 4.863,-6.03 0,-0.44 -0.022,-0.748 -0.043,-0.967"
             style="fill:#4c4c4c;fill-opacity:1;fill-rule:nonzero;stroke:none"
             id="path288"
             inkscape:connector-curvature="0" /></g><g
           id="g290"
           transform="translate(939.2256,85.251)"><path
             d="M 0,0 H -2.993 L 4.181,19.363 H 7.173 Z"
             style="fill:#4c4c4c;fill-opacity:1;fill-rule:nonzero;stroke:none"
             id="path292"
             inkscape:connector-curvature="0" /></g><g
           id="g294"
           transform="translate(953.3262,87.2314)"><path
             d="m 0,0 v 0.77 c -0.529,-0.55 -1.497,-1.012 -2.707,-1.012 -2.948,0 -4.269,2.024 -4.269,5.281 v 6.513 h 3.037 V 5.303 c 0,-2.069 0.705,-2.685 1.959,-2.685 1.253,0 1.98,0.616 1.98,2.619 v 6.315 H 3.035 V 0 Z"
             style="fill:#4c4c4c;fill-opacity:1;fill-rule:nonzero;stroke:none"
             id="path296"
             inkscape:connector-curvature="0" /></g><g
           id="g298"
           transform="translate(963.7314,86.9893)"><path
             d="m 0,0 c -1.826,0 -3.608,0.528 -4.841,1.342 l 1.012,2.311 c 1.232,-0.682 2.531,-1.056 4.005,-1.056 1.188,0 1.54,0.286 1.54,0.88 0,0.528 -0.418,0.792 -1.694,1.166 -2.773,0.836 -4.554,1.518 -4.554,3.961 0,2.398 1.914,3.432 4.62,3.432 1.452,0 3.036,-0.44 4.268,-1.122 L 3.388,8.516 C 2.244,9.131 0.99,9.439 0.022,9.439 -1.21,9.439 -1.54,9.197 -1.54,8.691 -1.54,8.208 -1.188,8.009 0.858,7.349 2.927,6.667 4.708,5.919 4.708,3.609 4.708,0.946 2.597,0 0,0"
             style="fill:#4c4c4c;fill-opacity:1;fill-rule:nonzero;stroke:none"
             id="path300"
             inkscape:connector-curvature="0" /></g><g
           id="g302"
           transform="translate(975.3027,96.3848)"><path
             d="M 0,0 C -1.1,0 -1.782,-0.902 -1.893,-2.068 H 2.068 C 1.98,-1.034 1.364,0 0,0 m 4.973,-4.356 h -6.91 c 0.111,-1.585 1.277,-2.179 2.376,-2.179 0.836,0 1.541,0.308 1.981,0.814 L 4.576,-7.525 C 3.652,-8.713 1.98,-9.396 0.439,-9.396 c -3.322,0 -5.433,2.355 -5.433,6.007 0,3.543 2.222,6.03 5.148,6.03 3.08,0 4.863,-2.729 4.863,-6.03 0,-0.44 -0.023,-0.748 -0.044,-0.967"
             style="fill:#4c4c4c;fill-opacity:1;fill-rule:nonzero;stroke:none"
             id="path304"
             inkscape:connector-curvature="0" /></g><g
           id="g306"
           transform="translate(989.4922,95.2407)"><path
             d="m 0,0 c -0.483,0.44 -1.078,0.748 -1.76,0.748 -1.187,0 -1.958,-0.506 -1.958,-2.508 V -8.009 H -6.754 V 3.542 h 3.036 v -0.77 c 0.529,0.55 1.298,1.013 2.376,1.013 0.99,0 1.738,-0.397 2.135,-0.815 z"
             style="fill:#4c4c4c;fill-opacity:1;fill-rule:nonzero;stroke:none"
             id="path308"
             inkscape:connector-curvature="0" /></g><g
           id="g310"
           transform="translate(867.8623,61.2314)"><path
             d="m 0,0 v 0.9 c -0.468,-0.684 -1.404,-1.098 -2.376,-1.098 -2.197,0 -3.367,1.44 -3.367,4.231 v 5.42 H -3.89 V 4.105 c 0,-1.908 0.721,-2.592 1.946,-2.592 C -0.702,1.513 0,2.395 0,3.925 V 9.453 H 1.854 V 0 Z"
             style="fill:#4c4c4c;fill-opacity:1;fill-rule:nonzero;stroke:none"
             id="path312"
             inkscape:connector-curvature="0" /></g><g
           id="g314"
           transform="translate(875.5117,61.0332)"><path
             d="m 0,0 c -1.279,0 -2.665,0.504 -3.619,1.207 l 0.846,1.404 c 0.882,-0.612 1.873,-0.936 2.754,-0.936 1.171,0 1.729,0.378 1.729,1.044 0,0.72 -0.828,1.062 -2.196,1.585 -2.035,0.792 -2.774,1.476 -2.774,2.97 0,1.693 1.333,2.575 3.223,2.575 1.189,0 2.359,-0.432 3.205,-1.044 L 2.358,7.382 c -0.774,0.54 -1.547,0.81 -2.448,0.81 -0.9,0 -1.297,-0.359 -1.297,-0.864 0,-0.468 0.325,-0.81 1.746,-1.368 C 2.467,5.15 3.547,4.574 3.547,2.791 3.547,0.702 1.854,0 0,0"
             style="fill:#4c4c4c;fill-opacity:1;fill-rule:nonzero;stroke:none"
             id="path316"
             inkscape:connector-curvature="0" /></g><g
           id="g318"
           transform="translate(884.8174,69.208)"><path
             d="M 0,0 C -1.243,0 -1.999,-0.864 -2.161,-2.377 H 2.232 C 2.143,-1.081 1.53,0 0,0 m 4.052,-3.907 h -6.248 c 0.197,-1.819 1.224,-2.593 2.377,-2.593 0.791,0 1.422,0.288 2.051,0.756 l 1.099,-1.188 c -0.828,-0.793 -1.818,-1.243 -3.26,-1.243 -2.214,0 -4.086,1.783 -4.086,4.916 0,3.205 1.692,4.933 4.141,4.933 2.683,0 3.978,-2.178 3.978,-4.735 0,-0.342 -0.035,-0.648 -0.052,-0.846"
             style="fill:#4c4c4c;fill-opacity:1;fill-rule:nonzero;stroke:none"
             id="path320"
             inkscape:connector-curvature="0" /></g><g
           id="g322"
           transform="translate(896.3555,68.7217)"><path
             d="m 0,0 c -0.396,0.216 -0.811,0.342 -1.422,0.342 -1.171,0 -1.855,-0.828 -1.855,-2.431 V -7.49 h -1.854 v 9.452 h 1.854 v -0.9 c 0.432,0.63 1.224,1.099 2.161,1.099 0.756,0 1.223,-0.144 1.602,-0.396 z"
             style="fill:#4c4c4c;fill-opacity:1;fill-rule:nonzero;stroke:none"
             id="path324"
             inkscape:connector-curvature="0" /></g><path
           d="m 897.379,59.755 h 9.004 v -1.71 h -9.004 z"
           style="fill:#4c4c4c;fill-opacity:1;fill-rule:nonzero;stroke:none"
           id="path326"
           inkscape:connector-curvature="0" /><g
           id="g328"
           transform="translate(913.4922,61.2314)"><path
             d="M 0,0 V 5.348 C 0,7.256 -0.721,7.94 -1.945,7.94 -3.188,7.94 -3.89,7.058 -3.89,5.528 V 0 h -1.854 v 12.154 l 1.854,0.972 V 8.553 c 0.468,0.684 1.405,1.098 2.376,1.098 2.198,0 3.368,-1.441 3.368,-4.232 V 0 Z"
             style="fill:#4c4c4c;fill-opacity:1;fill-rule:nonzero;stroke:none"
             id="path330"
             inkscape:connector-curvature="0" /></g><g
           id="g332"
           transform="translate(921.6992,69.1177)"><path
             d="m 0,0 c -1.404,0 -2.27,-1.242 -2.27,-3.115 0,-2.071 0.956,-3.205 2.36,-3.205 1.404,0 2.322,1.423 2.322,3.151 C 2.412,-1.242 1.494,0 0,0 m 0.018,-8.084 c -2.377,0 -4.16,1.962 -4.16,4.915 0,3.097 1.837,4.934 4.213,4.934 2.413,0 4.214,-1.927 4.214,-4.88 0,-3.133 -1.837,-4.969 -4.267,-4.969"
             style="fill:#4c4c4c;fill-opacity:1;fill-rule:nonzero;stroke:none"
             id="path334"
             inkscape:connector-curvature="0" /></g><g
           id="g336"
           transform="translate(939.251,61.2314)"><path
             d="m 0,0 v 5.348 c 0,1.908 -0.595,2.592 -1.818,2.592 -1.244,0 -1.82,-0.882 -1.82,-2.412 V 0 h -1.853 v 5.348 c 0,1.908 -0.594,2.592 -1.819,2.592 -1.242,0 -1.818,-0.882 -1.818,-2.412 V 0 h -1.855 v 9.453 h 1.855 v -0.9 c 0.467,0.684 1.277,1.098 2.25,1.098 1.278,0 2.088,-0.486 2.593,-1.386 0.684,0.846 1.423,1.386 2.899,1.386 2.197,0 3.24,-1.441 3.24,-4.232 V 0 Z"
             style="fill:#4c4c4c;fill-opacity:1;fill-rule:nonzero;stroke:none"
             id="path338"
             inkscape:connector-curvature="0" /></g><g
           id="g340"
           transform="translate(947.3301,69.208)"><path
             d="M 0,0 C -1.242,0 -1.998,-0.864 -2.16,-2.377 H 2.232 C 2.143,-1.081 1.531,0 0,0 M 4.052,-3.907 H -2.196 C -1.998,-5.726 -0.973,-6.5 0.18,-6.5 c 0.793,0 1.424,0.288 2.052,0.756 l 1.1,-1.188 c -0.829,-0.793 -1.819,-1.243 -3.26,-1.243 -2.215,0 -4.087,1.783 -4.087,4.916 0,3.205 1.693,4.933 4.142,4.933 2.682,0 3.978,-2.178 3.978,-4.735 0,-0.342 -0.035,-0.648 -0.053,-0.846"
             style="fill:#4c4c4c;fill-opacity:1;fill-rule:nonzero;stroke:none"
             id="path342"
             inkscape:connector-curvature="0" /></g><path
           d="m 952.369,59.755 h 9.002 v -1.71 h -9.002 z"
           style="fill:#4c4c4c;fill-opacity:1;fill-rule:nonzero;stroke:none"
           id="path344"
           inkscape:connector-curvature="0" /><g
           id="g346"
           transform="translate(968.4453,67.9297)"><path
             d="m 0,0 c -0.414,0.558 -1.279,1.242 -2.215,1.242 -1.332,0 -2.053,-1.008 -2.053,-3.007 0,-2.377 0.756,-3.421 2.125,-3.421 0.882,0 1.657,0.594 2.143,1.207 z m -0.019,-6.698 v 0.9 c -0.684,-0.63 -1.476,-1.098 -2.466,-1.098 -2.035,0 -3.638,1.476 -3.638,5.077 0,3.241 1.766,4.772 3.728,4.772 0.954,0 1.854,-0.505 2.376,-1.081 V 5.474 L 1.818,6.428 V -6.698 Z"
             style="fill:#4c4c4c;fill-opacity:1;fill-rule:nonzero;stroke:none"
             id="path348"
             inkscape:connector-curvature="0" /></g><path
           d="m 973.088,70.684 h 1.854 v -9.453 h -1.854 z m 0.935,1.225 c -0.666,0 -1.206,0.54 -1.206,1.188 0,0.666 0.54,1.206 1.206,1.206 0.649,0 1.189,-0.54 1.189,-1.206 0,-0.648 -0.54,-1.188 -1.189,-1.188"
           style="fill:#4c4c4c;fill-opacity:1;fill-rule:nonzero;stroke:none"
           id="path350"
           inkscape:connector-curvature="0" /><g
           id="g352"
           transform="translate(982.8984,68.7217)"><path
             d="m 0,0 c -0.396,0.216 -0.811,0.342 -1.422,0.342 -1.17,0 -1.854,-0.828 -1.854,-2.431 V -7.49 h -1.855 v 9.452 h 1.855 v -0.9 c 0.432,0.63 1.223,1.099 2.161,1.099 0.756,0 1.223,-0.144 1.601,-0.396 z"
             style="fill:#4c4c4c;fill-opacity:1;fill-rule:nonzero;stroke:none"
             id="path354"
             inkscape:connector-curvature="0" /></g><path
           d="m 983.923,59.755 h 9.003 v -1.71 h -9.003 z"
           style="fill:#4c4c4c;fill-opacity:1;fill-rule:nonzero;stroke:none"
           id="path356"
           inkscape:connector-curvature="0" /><g
           id="g358"
           transform="translate(998.8105,61.4653)"><path
             d="m 0,0 c -0.451,-0.252 -1.08,-0.432 -1.818,-0.432 -1.315,0 -2.125,0.81 -2.125,2.503 v 5.455 h -1.352 v 1.693 h 1.352 v 2.701 l 1.818,0.972 V 9.219 h 2.34 V 7.526 h -2.34 V 2.395 c 0,-0.882 0.287,-1.134 0.973,-1.134 0.486,0 1.025,0.179 1.367,0.378 z"
             style="fill:#4c4c4c;fill-opacity:1;fill-rule:nonzero;stroke:none"
             id="path360"
             inkscape:connector-curvature="0" /></g><g
           id="g362"
           transform="translate(78.5146,272.0508)"><path
             d="M 0,0 H -2.993 L 4.181,19.363 H 7.173 Z"
             style="fill:#4c4c4c;fill-opacity:1;fill-rule:nonzero;stroke:none"
             id="path364"
             inkscape:connector-curvature="0" /></g><g
           id="g366"
           transform="translate(92.6831,274.0312)"><path
             d="m 0,0 h -3.125 l -4.158,11.552 h 3.345 l 1.694,-5.347 c 0.286,-0.88 0.594,-1.98 0.726,-2.531 0.132,0.573 0.44,1.629 0.726,2.531 l 1.694,5.347 h 3.257 z"
             style="fill:#4c4c4c;fill-opacity:1;fill-rule:nonzero;stroke:none"
             id="path368"
             inkscape:connector-curvature="0" /></g><g
           id="g370"
           transform="translate(104.6748,278.8721)"><path
             d="m 0,0 c -0.528,0.33 -1.034,0.484 -2.112,0.484 -1.144,0 -1.761,-0.528 -1.761,-1.452 0,-0.814 0.463,-1.54 1.761,-1.54 0.99,0 1.782,0.506 2.112,1.056 z m 0,-4.841 v 0.77 c -0.55,-0.572 -1.518,-1.012 -2.596,-1.012 -2.156,0 -4.313,1.32 -4.313,4.115 0,2.552 2.068,3.828 4.687,3.828 1.056,0 1.738,-0.22 2.222,-0.462 L 0,2.97 c 0,0.814 -0.55,1.474 -1.65,1.474 -1.386,0 -2.112,-0.197 -3.168,-0.77 l -1.167,2.113 c 1.342,0.77 2.464,1.166 4.335,1.166 2.795,0 4.687,-1.453 4.687,-4.049 v -7.745 z"
             style="fill:#4c4c4c;fill-opacity:1;fill-rule:nonzero;stroke:none"
             id="path372"
             inkscape:connector-curvature="0" /></g><g
           id="g374"
           transform="translate(117.3027,282.0405)"><path
             d="m 0,0 c -0.484,0.44 -1.078,0.748 -1.76,0.748 -1.188,0 -1.958,-0.506 -1.958,-2.508 V -8.009 H -6.755 V 3.542 h 3.037 v -0.77 c 0.528,0.55 1.298,1.013 2.376,1.013 0.99,0 1.738,-0.397 2.134,-0.815 z"
             style="fill:#4c4c4c;fill-opacity:1;fill-rule:nonzero;stroke:none"
             id="path376"
             inkscape:connector-curvature="0" /></g><g
           id="g378"
           transform="translate(119.5884,272.0508)"><path
             d="M 0,0 H -2.993 L 4.181,19.363 H 7.173 Z"
             style="fill:#4c4c4c;fill-opacity:1;fill-rule:nonzero;stroke:none"
             id="path380"
             inkscape:connector-curvature="0" /></g><g
           id="g382"
           transform="translate(138.3774,274.0312)"><path
             d="M 0,0 H -2.53 L -3.674,4.533 C -3.895,5.435 -4.203,6.711 -4.291,7.261 -4.378,6.711 -4.687,5.435 -4.907,4.533 L -6.051,0 h -2.53 l -3.322,11.552 h 3.08 l 1.012,-4.269 c 0.198,-0.88 0.462,-2.09 0.55,-2.64 0.088,0.572 0.374,1.738 0.616,2.64 l 1.145,4.269 h 2.508 l 1.144,-4.269 c 0.242,-0.902 0.528,-2.068 0.616,-2.64 0.088,0.55 0.352,1.76 0.55,2.64 l 1.012,4.269 h 2.993 z"
             style="fill:#4c4c4c;fill-opacity:1;fill-rule:nonzero;stroke:none"
             id="path384"
             inkscape:connector-curvature="0" /></g><g
           id="g386"
           transform="translate(154.7012,274.0312)"><path
             d="M 0,0 H -2.53 L -3.674,4.533 C -3.895,5.435 -4.203,6.711 -4.291,7.261 -4.378,6.711 -4.687,5.435 -4.907,4.533 L -6.051,0 h -2.53 l -3.322,11.552 h 3.08 l 1.012,-4.269 c 0.198,-0.88 0.462,-2.09 0.55,-2.64 0.088,0.572 0.374,1.738 0.616,2.64 l 1.145,4.269 h 2.508 l 1.144,-4.269 c 0.242,-0.902 0.528,-2.068 0.616,-2.64 0.088,0.55 0.352,1.76 0.55,2.64 l 1.012,4.269 h 2.993 z"
             style="fill:#4c4c4c;fill-opacity:1;fill-rule:nonzero;stroke:none"
             id="path388"
             inkscape:connector-curvature="0" /></g><g
           id="g390"
           transform="translate(171.0249,274.0312)"><path
             d="M 0,0 H -2.53 L -3.674,4.533 C -3.895,5.435 -4.203,6.711 -4.291,7.261 -4.378,6.711 -4.687,5.435 -4.907,4.533 L -6.051,0 h -2.53 l -3.322,11.552 h 3.08 l 1.012,-4.269 c 0.198,-0.88 0.462,-2.09 0.55,-2.64 0.088,0.572 0.374,1.738 0.616,2.64 l 1.145,4.269 h 2.508 l 1.144,-4.269 c 0.242,-0.902 0.528,-2.068 0.616,-2.64 0.088,0.55 0.352,1.76 0.55,2.64 l 1.012,4.269 h 2.993 z"
             style="fill:#4c4c4c;fill-opacity:1;fill-rule:nonzero;stroke:none"
             id="path392"
             inkscape:connector-curvature="0" /></g><g
           id="g394"
           transform="translate(176.4771,272.0508)"><path
             d="M 0,0 H -2.993 L 4.181,19.363 H 7.173 Z"
             style="fill:#4c4c4c;fill-opacity:1;fill-rule:nonzero;stroke:none"
             id="path396"
             inkscape:connector-curvature="0" /></g><g
           id="g398"
           transform="translate(191.9653,274.0312)"><path
             d="m 0,0 v 6.249 c 0,2.068 -0.704,2.684 -1.958,2.684 -1.254,0 -1.98,-0.616 -1.98,-2.618 V 0 h -3.037 v 14.522 l 3.037,1.519 v -5.259 c 0.527,0.55 1.496,1.012 2.706,1.012 2.948,0 4.269,-2.024 4.269,-5.281 L 3.037,0 Z"
             style="fill:#4c4c4c;fill-opacity:1;fill-rule:nonzero;stroke:none"
             id="path400"
             inkscape:connector-curvature="0" /></g><g
           id="g402"
           transform="translate(204.1777,274.4932)"><path
             d="m 0,0 c -0.506,-0.396 -1.408,-0.704 -2.354,-0.704 -1.871,0 -3.081,1.452 -3.081,3.476 v 5.457 h -1.936 v 2.861 h 1.936 v 2.97 l 3.037,1.519 V 11.09 H 0.374 V 8.229 H -2.398 V 3.587 c 0,-1.101 0.396,-1.386 1.122,-1.386 0.549,0 0.968,0.241 1.716,0.88 z"
             style="fill:#4c4c4c;fill-opacity:1;fill-rule:nonzero;stroke:none"
             id="path404"
             inkscape:connector-curvature="0" /></g><g
           id="g406"
           transform="translate(220.9639,274.0312)"><path
             d="m 0,0 v 6.249 c 0,2.068 -0.594,2.684 -1.848,2.684 -1.255,0 -1.871,-0.616 -1.871,-2.618 V 0 h -3.036 v 6.249 c 0,2.068 -0.594,2.684 -1.848,2.684 -1.254,0 -1.87,-0.616 -1.87,-2.618 V 0 h -3.037 v 11.552 h 3.037 v -0.77 c 0.528,0.55 1.32,1.012 2.53,1.012 1.474,0 2.333,-0.419 3.191,-1.475 0.792,0.815 1.76,1.475 3.674,1.475 2.948,0 4.115,-2.024 4.115,-5.281 L 3.037,0 Z"
             style="fill:#4c4c4c;fill-opacity:1;fill-rule:nonzero;stroke:none"
             id="path408"
             inkscape:connector-curvature="0" /></g><g
           id="g410"
           transform="translate(226.9463,274.0312)"><path
             d="m 0,0 v 14.522 l 3.037,1.519 V 0 Z"
             style="fill:#4c4c4c;fill-opacity:1;fill-rule:nonzero;stroke:none"
             id="path412"
             inkscape:connector-curvature="0" /></g><g
           id="g414"
           transform="translate(75.5322,246.0312)"><path
             d="M 0,0 V 5.348 C 0,7.256 -0.72,7.94 -1.945,7.94 -3.187,7.94 -3.889,7.058 -3.889,5.528 V 0 h -1.855 v 12.154 l 1.855,0.972 V 8.553 c 0.468,0.684 1.404,1.098 2.376,1.098 2.197,0 3.367,-1.441 3.367,-4.232 V 0 Z"
             style="fill:#4c4c4c;fill-opacity:1;fill-rule:nonzero;stroke:none"
             id="path416"
             inkscape:connector-curvature="0" /></g><g
           id="g418"
           transform="translate(84.4795,246.2651)"><path
             d="m 0,0 c -0.45,-0.252 -1.08,-0.432 -1.818,-0.432 -1.315,0 -2.125,0.81 -2.125,2.503 v 5.455 h -1.35 v 1.693 h 1.35 v 2.701 l 1.818,0.972 V 9.219 H 0.216 V 7.526 H -2.125 V 2.395 c 0,-0.882 0.289,-1.134 0.973,-1.134 0.486,0 1.026,0.179 1.368,0.378 z"
             style="fill:#4c4c4c;fill-opacity:1;fill-rule:nonzero;stroke:none"
             id="path420"
             inkscape:connector-curvature="0" /></g><g
           id="g422"
           transform="translate(91.4653,246.2651)"><path
             d="m 0,0 c -0.45,-0.252 -1.08,-0.432 -1.818,-0.432 -1.315,0 -2.125,0.81 -2.125,2.503 v 5.455 h -1.35 v 1.693 h 1.35 v 2.701 l 1.818,0.972 V 9.219 H 0.216 V 7.526 H -2.125 V 2.395 c 0,-0.882 0.289,-1.134 0.973,-1.134 0.486,0 1.026,0.179 1.368,0.378 z"
             style="fill:#4c4c4c;fill-opacity:1;fill-rule:nonzero;stroke:none"
             id="path424"
             inkscape:connector-curvature="0" /></g><g
           id="g426"
           transform="translate(98.1616,253.9717)"><path
             d="m 0,0 c -0.882,0 -1.657,-0.594 -2.143,-1.207 v -3.979 c 0.414,-0.558 1.279,-1.242 2.215,-1.242 1.332,0 2.053,1.008 2.053,3.007 C 2.125,-1.044 1.369,0 0,0 m 0.252,-8.139 c -0.954,0 -1.855,0.505 -2.377,1.081 v -3.403 l -1.836,-0.955 V 1.512 h 1.836 v -0.9 c 0.685,0.63 1.477,1.098 2.467,1.098 2.034,0 3.637,-1.476 3.637,-5.077 0,-3.241 -1.764,-4.772 -3.727,-4.772"
             style="fill:#4c4c4c;fill-opacity:1;fill-rule:nonzero;stroke:none"
             id="path428"
             inkscape:connector-curvature="0" /></g><g
           id="g430"
           transform="translate(110.168,252.7295)"><path
             d="m 0,0 c -0.414,0.558 -1.278,1.242 -2.215,1.242 -1.332,0 -2.053,-1.008 -2.053,-3.007 0,-2.377 0.757,-3.421 2.125,-3.421 0.883,0 1.657,0.594 2.143,1.207 z m -0.018,-6.698 v 0.9 c -0.684,-0.63 -1.477,-1.098 -2.467,-1.098 -2.035,0 -3.637,1.476 -3.637,5.077 0,3.241 1.765,4.772 3.727,4.772 0.955,0 1.855,-0.505 2.377,-1.081 V 5.474 L 1.818,6.428 V -6.698 Z"
             style="fill:#4c4c4c;fill-opacity:1;fill-rule:nonzero;stroke:none"
             id="path432"
             inkscape:connector-curvature="0" /></g><path
           d="m 113.352,244.555 h 9.003 v -1.71 h -9.003 z"
           style="fill:#4c4c4c;fill-opacity:1;fill-rule:nonzero;stroke:none"
           id="path434"
           inkscape:connector-curvature="0" /><g
           id="g436"
           transform="translate(126.7808,245.833)"><path
             d="m 0,0 c -1.278,0 -2.665,0.504 -3.619,1.207 l 0.846,1.404 c 0.882,-0.612 1.873,-0.936 2.755,-0.936 1.17,0 1.728,0.378 1.728,1.044 0,0.72 -0.828,1.062 -2.196,1.585 -2.035,0.792 -2.773,1.476 -2.773,2.97 0,1.693 1.333,2.575 3.223,2.575 1.188,0 2.359,-0.432 3.205,-1.044 L 2.359,7.382 c -0.775,0.54 -1.548,0.81 -2.449,0.81 -0.9,0 -1.296,-0.359 -1.296,-0.864 0,-0.468 0.324,-0.81 1.746,-1.368 C 2.467,5.15 3.547,4.574 3.547,2.791 3.547,0.702 1.854,0 0,0"
             style="fill:#4c4c4c;fill-opacity:1;fill-rule:nonzero;stroke:none"
             id="path438"
             inkscape:connector-curvature="0" /></g><g
           id="g440"
           transform="translate(135.5488,242.7002)"><path
             d="m 0,0 h -1.963 l 1.369,3.511 -3.475,9.273 h 2.034 L -0.486,8.156 C -0.198,7.328 0.234,5.924 0.342,5.402 0.504,5.96 0.9,7.31 1.188,8.121 l 1.603,4.663 h 1.962 z"
             style="fill:#4c4c4c;fill-opacity:1;fill-rule:nonzero;stroke:none"
             id="path442"
             inkscape:connector-curvature="0" /></g><g
           id="g444"
           transform="translate(144.9619,245.833)"><path
             d="m 0,0 c -1.278,0 -2.665,0.504 -3.619,1.207 l 0.847,1.404 c 0.881,-0.612 1.872,-0.936 2.754,-0.936 1.17,0 1.728,0.378 1.728,1.044 0,0.72 -0.828,1.062 -2.196,1.585 -2.035,0.792 -2.773,1.476 -2.773,2.97 0,1.693 1.333,2.575 3.223,2.575 1.188,0 2.359,-0.432 3.205,-1.044 L 2.359,7.382 c -0.775,0.54 -1.548,0.81 -2.449,0.81 -0.9,0 -1.296,-0.359 -1.296,-0.864 0,-0.468 0.324,-0.81 1.746,-1.368 C 2.467,5.15 3.547,4.574 3.547,2.791 3.547,0.702 1.854,0 0,0"
             style="fill:#4c4c4c;fill-opacity:1;fill-rule:nonzero;stroke:none"
             id="path446"
             inkscape:connector-curvature="0" /></g><path
           d="m 149.515,244.555 h 9.003 v -1.71 h -9.003 z"
           style="fill:#4c4c4c;fill-opacity:1;fill-rule:nonzero;stroke:none"
           id="path448"
           inkscape:connector-curvature="0" /><g
           id="g450"
           transform="translate(165.8247,252.7651)"><path
             d="m 0,0 c -0.774,0.792 -1.458,1.152 -2.305,1.152 -1.35,0 -2.214,-1.206 -2.214,-3.132 0,-1.855 0.792,-3.187 2.269,-3.187 0.882,0 1.404,0.396 2.142,1.17 l 1.189,-1.17 c -0.739,-0.937 -1.675,-1.765 -3.386,-1.765 -2.304,0 -4.087,1.945 -4.087,4.897 0,3.134 1.837,4.952 4.142,4.952 1.386,0 2.466,-0.558 3.349,-1.603 z"
             style="fill:#4c4c4c;fill-opacity:1;fill-rule:nonzero;stroke:none"
             id="path452"
             inkscape:connector-curvature="0" /></g><g
           id="g454"
           transform="translate(172.6626,253.9175)"><path
             d="m 0,0 c -1.404,0 -2.269,-1.242 -2.269,-3.115 0,-2.071 0.955,-3.205 2.359,-3.205 1.405,0 2.323,1.423 2.323,3.151 C 2.413,-1.242 1.495,0 0,0 m 0.018,-8.084 c -2.377,0 -4.159,1.962 -4.159,4.915 0,3.097 1.836,4.934 4.213,4.934 2.413,0 4.213,-1.927 4.213,-4.88 0,-3.133 -1.836,-4.969 -4.267,-4.969"
             style="fill:#4c4c4c;fill-opacity:1;fill-rule:nonzero;stroke:none"
             id="path456"
             inkscape:connector-curvature="0" /></g><g
           id="g458"
           transform="translate(184.9751,246.0312)"><path
             d="M 0,0 V 5.348 C 0,7.256 -0.72,7.94 -1.945,7.94 -3.187,7.94 -3.889,7.058 -3.889,5.528 V 0 h -1.855 v 9.453 h 1.855 v -0.9 c 0.468,0.684 1.404,1.098 2.376,1.098 2.197,0 3.367,-1.441 3.367,-4.232 V 0 Z"
             style="fill:#4c4c4c;fill-opacity:1;fill-rule:nonzero;stroke:none"
             id="path460"
             inkscape:connector-curvature="0" /></g><g
           id="g462"
           transform="translate(193.9224,246.2651)"><path
             d="m 0,0 c -0.45,-0.252 -1.08,-0.432 -1.818,-0.432 -1.315,0 -2.125,0.81 -2.125,2.503 v 5.455 h -1.35 v 1.693 h 1.35 v 2.701 l 1.818,0.972 V 9.219 H 0.216 V 7.526 H -2.125 V 2.395 c 0,-0.882 0.289,-1.134 0.973,-1.134 0.486,0 1.026,0.179 1.368,0.378 z"
             style="fill:#4c4c4c;fill-opacity:1;fill-rule:nonzero;stroke:none"
             id="path464"
             inkscape:connector-curvature="0" /></g><g
           id="g466"
           transform="translate(199.8618,254.0078)"><path
             d="M 0,0 C -1.243,0 -1.999,-0.864 -2.161,-2.377 H 2.232 C 2.143,-1.081 1.53,0 0,0 M 4.051,-3.907 H -2.197 C -1.999,-5.726 -0.972,-6.5 0.18,-6.5 c 0.792,0 1.423,0.288 2.052,0.756 L 3.331,-6.932 C 2.502,-7.725 1.512,-8.175 0.072,-8.175 c -2.215,0 -4.087,1.783 -4.087,4.916 0,3.205 1.692,4.933 4.141,4.933 2.683,0 3.979,-2.178 3.979,-4.735 0,-0.342 -0.036,-0.648 -0.054,-0.846"
             style="fill:#4c4c4c;fill-opacity:1;fill-rule:nonzero;stroke:none"
             id="path468"
             inkscape:connector-curvature="0" /></g><g
           id="g470"
           transform="translate(212.0122,246.0312)"><path
             d="M 0,0 V 5.348 C 0,7.256 -0.72,7.94 -1.945,7.94 -3.187,7.94 -3.889,7.058 -3.889,5.528 V 0 h -1.855 v 9.453 h 1.855 v -0.9 c 0.468,0.684 1.404,1.098 2.376,1.098 2.197,0 3.367,-1.441 3.367,-4.232 V 0 Z"
             style="fill:#4c4c4c;fill-opacity:1;fill-rule:nonzero;stroke:none"
             id="path472"
             inkscape:connector-curvature="0" /></g><g
           id="g474"
           transform="translate(220.96,246.2651)"><path
             d="m 0,0 c -0.45,-0.252 -1.08,-0.432 -1.818,-0.432 -1.315,0 -2.125,0.81 -2.125,2.503 v 5.455 h -1.351 v 1.693 h 1.351 v 2.701 l 1.818,0.972 V 9.219 H 0.216 V 7.526 H -2.125 V 2.395 c 0,-0.882 0.288,-1.134 0.973,-1.134 0.486,0 1.026,0.179 1.368,0.378 z"
             style="fill:#4c4c4c;fill-opacity:1;fill-rule:nonzero;stroke:none"
             id="path476"
             inkscape:connector-curvature="0" /></g><path
           d="m 222.326,244.555 h 9.003 v -1.71 h -9.003 z"
           style="fill:#4c4c4c;fill-opacity:1;fill-rule:nonzero;stroke:none"
           id="path478"
           inkscape:connector-curvature="0" /><g
           id="g480"
           transform="translate(237.2139,246.2651)"><path
             d="m 0,0 c -0.45,-0.252 -1.08,-0.432 -1.818,-0.432 -1.315,0 -2.125,0.81 -2.125,2.503 v 5.455 h -1.351 v 1.693 h 1.351 v 2.701 l 1.818,0.972 V 9.219 H 0.216 V 7.526 H -2.125 V 2.395 c 0,-0.882 0.288,-1.134 0.973,-1.134 0.486,0 1.026,0.179 1.368,0.378 z"
             style="fill:#4c4c4c;fill-opacity:1;fill-rule:nonzero;stroke:none"
             id="path482"
             inkscape:connector-curvature="0" /></g><g
           id="g484"
           transform="translate(82.2412,85.251)"><path
             d="M 0,0 H -2.993 L 4.181,19.363 H 7.173 Z"
             style="fill:#4c4c4c;fill-opacity:1;fill-rule:nonzero;stroke:none"
             id="path486"
             inkscape:connector-curvature="0" /></g><g
           id="g488"
           transform="translate(96.4097,87.2314)"><path
             d="m 0,0 h -3.125 l -4.158,11.552 h 3.345 l 1.694,-5.347 c 0.286,-0.88 0.594,-1.98 0.726,-2.531 0.132,0.573 0.44,1.629 0.726,2.531 l 1.694,5.347 h 3.257 z"
             style="fill:#4c4c4c;fill-opacity:1;fill-rule:nonzero;stroke:none"
             id="path490"
             inkscape:connector-curvature="0" /></g><g
           id="g492"
           transform="translate(108.4014,92.0723)"><path
             d="m 0,0 c -0.528,0.33 -1.034,0.484 -2.112,0.484 -1.144,0 -1.761,-0.528 -1.761,-1.452 0,-0.814 0.463,-1.54 1.761,-1.54 0.99,0 1.782,0.506 2.112,1.056 z m 0,-4.841 v 0.77 c -0.55,-0.572 -1.518,-1.012 -2.596,-1.012 -2.156,0 -4.313,1.32 -4.313,4.115 0,2.552 2.068,3.828 4.687,3.828 1.056,0 1.738,-0.22 2.222,-0.462 L 0,2.97 c 0,0.814 -0.55,1.474 -1.65,1.474 -1.386,0 -2.112,-0.197 -3.168,-0.77 l -1.167,2.113 c 1.342,0.77 2.464,1.166 4.335,1.166 2.795,0 4.687,-1.453 4.687,-4.049 v -7.745 z"
             style="fill:#4c4c4c;fill-opacity:1;fill-rule:nonzero;stroke:none"
             id="path494"
             inkscape:connector-curvature="0" /></g><g
           id="g496"
           transform="translate(121.0293,95.2407)"><path
             d="m 0,0 c -0.484,0.44 -1.078,0.748 -1.76,0.748 -1.188,0 -1.958,-0.506 -1.958,-2.508 V -8.009 H -6.755 V 3.542 h 3.037 v -0.77 c 0.528,0.55 1.298,1.013 2.376,1.013 0.99,0 1.738,-0.397 2.134,-0.815 z"
             style="fill:#4c4c4c;fill-opacity:1;fill-rule:nonzero;stroke:none"
             id="path498"
             inkscape:connector-curvature="0" /></g><g
           id="g500"
           transform="translate(123.3149,85.251)"><path
             d="M 0,0 H -2.993 L 4.181,19.363 H 7.173 Z"
             style="fill:#4c4c4c;fill-opacity:1;fill-rule:nonzero;stroke:none"
             id="path502"
             inkscape:connector-curvature="0" /></g><g
           id="g504"
           transform="translate(131.9385,87.2314)"><path
             d="m 0,0 v 14.522 l 3.036,1.519 V 0 Z"
             style="fill:#4c4c4c;fill-opacity:1;fill-rule:nonzero;stroke:none"
             id="path506"
             inkscape:connector-curvature="0" /></g><g
           id="g508"
           transform="translate(142.6523,96.0986)"><path
             d="m 0,0 c -1.452,0 -2.134,-1.32 -2.134,-3.103 0,-1.782 0.682,-3.08 2.134,-3.08 1.452,0 2.156,1.475 2.156,3.08 C 2.156,-1.342 1.452,0 0,0 m 0,-9.109 c -3.014,0 -5.215,2.464 -5.215,6.006 0,3.543 2.201,6.03 5.215,6.03 3.015,0 5.237,-2.487 5.237,-6.03 0,-3.542 -2.222,-6.006 -5.237,-6.006"
             style="fill:#4c4c4c;fill-opacity:1;fill-rule:nonzero;stroke:none"
             id="path510"
             inkscape:connector-curvature="0" /></g><g
           id="g512"
           transform="translate(156.5786,95.1748)"><path
             d="m 0,0 c -0.462,0.638 -1.166,0.99 -2.046,0.99 -1.166,0 -1.805,-1.012 -1.805,-2.948 0,-2.377 0.793,-3.367 1.981,-3.367 0.946,0 1.43,0.396 1.87,0.968 z m -1.936,-12.19 -1.078,2.288 C -0.638,-9.572 0,-9 0,-7.217 c -0.572,-0.506 -1.342,-0.969 -2.442,-0.969 -2.465,0 -4.489,1.849 -4.489,6.162 0,3.454 1.628,5.875 4.489,5.875 1.012,0 1.892,-0.397 2.442,-0.903 v 0.66 h 3.037 v -9.593 c 0,-3.807 -0.925,-5.765 -4.973,-6.205"
             style="fill:#4c4c4c;fill-opacity:1;fill-rule:nonzero;stroke:none"
             id="path514"
             inkscape:connector-curvature="0" /></g><g
           id="g516"
           transform="translate(164.2124,85.251)"><path
             d="M 0,0 H -2.993 L 4.181,19.363 H 7.173 Z"
             style="fill:#4c4c4c;fill-opacity:1;fill-rule:nonzero;stroke:none"
             id="path518"
             inkscape:connector-curvature="0" /></g><g
           id="g520"
           transform="translate(179.7002,87.2314)"><path
             d="m 0,0 v 6.249 c 0,2.068 -0.704,2.684 -1.958,2.684 -1.254,0 -1.98,-0.616 -1.98,-2.618 V 0 h -3.037 v 14.522 l 3.037,1.519 v -5.259 c 0.527,0.55 1.496,1.012 2.706,1.012 2.948,0 4.269,-2.024 4.269,-5.281 L 3.037,0 Z"
             style="fill:#4c4c4c;fill-opacity:1;fill-rule:nonzero;stroke:none"
             id="path522"
             inkscape:connector-curvature="0" /></g><g
           id="g524"
           transform="translate(191.9131,87.6934)"><path
             d="m 0,0 c -0.506,-0.396 -1.408,-0.704 -2.354,-0.704 -1.871,0 -3.081,1.452 -3.081,3.476 v 5.457 h -1.936 v 2.861 h 1.936 v 2.97 l 3.037,1.519 V 11.09 H 0.374 V 8.229 H -2.398 V 3.587 c 0,-1.101 0.396,-1.386 1.122,-1.386 0.549,0 0.968,0.241 1.716,0.88 z"
             style="fill:#4c4c4c;fill-opacity:1;fill-rule:nonzero;stroke:none"
             id="path526"
             inkscape:connector-curvature="0" /></g><g
           id="g528"
           transform="translate(201.3086,87.6934)"><path
             d="m 0,0 c -0.506,-0.396 -1.408,-0.704 -2.354,-0.704 -1.871,0 -3.081,1.452 -3.081,3.476 v 5.457 h -1.936 v 2.861 h 1.936 v 2.97 l 3.037,1.519 V 11.09 H 0.375 V 8.229 H -2.398 V 3.587 c 0,-1.101 0.396,-1.386 1.122,-1.386 0.55,0 0.968,0.241 1.716,0.88 z"
             style="fill:#4c4c4c;fill-opacity:1;fill-rule:nonzero;stroke:none"
             id="path530"
             inkscape:connector-curvature="0" /></g><g
           id="g532"
           transform="translate(209.4922,96.1646)"><path
             d="m 0,0 c -0.946,0 -1.43,-0.396 -1.87,-0.968 v -4.357 c 0.462,-0.638 1.166,-0.99 2.046,-0.99 1.166,0 1.804,1.012 1.804,2.949 C 1.98,-0.99 1.188,0 0,0 m 0.572,-9.175 c -1.012,0 -1.892,0.396 -2.442,0.902 v -3.389 L -4.907,-13.18 V 2.619 H -1.87 V 1.893 c 0.572,0.505 1.342,0.968 2.442,0.968 2.464,0 4.489,-1.849 4.489,-6.161 0,-3.455 -1.628,-5.875 -4.489,-5.875"
             style="fill:#4c4c4c;fill-opacity:1;fill-rule:nonzero;stroke:none"
             id="path534"
             inkscape:connector-curvature="0" /></g><g
           id="g536"
           transform="translate(223.2871,95.1748)"><path
             d="m 0,0 c -0.463,0.638 -1.167,0.99 -2.047,0.99 -1.166,0 -1.804,-1.012 -1.804,-2.948 0,-2.377 0.792,-3.367 1.98,-3.367 0.946,0 1.431,0.396 1.871,0.968 z m 0,-7.943 v 0.726 c -0.572,-0.506 -1.343,-0.969 -2.442,-0.969 -2.465,0 -4.49,1.849 -4.49,6.162 0,3.454 1.629,5.875 4.49,5.875 1.011,0 1.891,-0.397 2.442,-0.903 v 3.631 l 3.036,1.518 v -16.04 z"
             style="fill:#4c4c4c;fill-opacity:1;fill-rule:nonzero;stroke:none"
             id="path538"
             inkscape:connector-curvature="0" /></g><g
           id="g540"
           transform="translate(112.8745,61.2314)"><path
             d="M 0,0 V 5.348 C 0,7.256 -0.72,7.94 -1.945,7.94 -3.187,7.94 -3.889,7.058 -3.889,5.528 V 0 h -1.855 v 12.154 l 1.855,0.972 V 8.553 c 0.468,0.684 1.404,1.098 2.376,1.098 2.197,0 3.367,-1.441 3.367,-4.232 V 0 Z"
             style="fill:#4c4c4c;fill-opacity:1;fill-rule:nonzero;stroke:none"
             id="path542"
             inkscape:connector-curvature="0" /></g><g
           id="g544"
           transform="translate(121.8218,61.4653)"><path
             d="m 0,0 c -0.45,-0.252 -1.08,-0.432 -1.818,-0.432 -1.315,0 -2.125,0.81 -2.125,2.503 v 5.455 h -1.35 v 1.693 h 1.35 v 2.701 l 1.818,0.972 V 9.219 H 0.216 V 7.526 H -2.125 V 2.395 c 0,-0.882 0.289,-1.134 0.973,-1.134 0.486,0 1.026,0.179 1.368,0.378 z"
             style="fill:#4c4c4c;fill-opacity:1;fill-rule:nonzero;stroke:none"
             id="path546"
             inkscape:connector-curvature="0" /></g><g
           id="g548"
           transform="translate(128.8076,61.4653)"><path
             d="m 0,0 c -0.45,-0.252 -1.08,-0.432 -1.818,-0.432 -1.315,0 -2.125,0.81 -2.125,2.503 v 5.455 h -1.35 v 1.693 h 1.35 v 2.701 l 1.818,0.972 V 9.219 H 0.216 V 7.526 H -2.125 V 2.395 c 0,-0.882 0.289,-1.134 0.973,-1.134 0.486,0 1.026,0.179 1.368,0.378 z"
             style="fill:#4c4c4c;fill-opacity:1;fill-rule:nonzero;stroke:none"
             id="path550"
             inkscape:connector-curvature="0" /></g><g
           id="g552"
           transform="translate(135.5039,69.1719)"><path
             d="m 0,0 c -0.882,0 -1.656,-0.594 -2.143,-1.207 v -3.979 c 0.414,-0.558 1.279,-1.242 2.215,-1.242 1.332,0 2.053,1.008 2.053,3.007 C 2.125,-1.044 1.368,0 0,0 m 0.252,-8.139 c -0.954,0 -1.855,0.505 -2.377,1.081 v -3.403 l -1.836,-0.955 V 1.512 h 1.836 v -0.9 c 0.685,0.63 1.477,1.098 2.467,1.098 2.035,0 3.637,-1.476 3.637,-5.077 0,-3.241 -1.764,-4.772 -3.727,-4.772"
             style="fill:#4c4c4c;fill-opacity:1;fill-rule:nonzero;stroke:none"
             id="path554"
             inkscape:connector-curvature="0" /></g><g
           id="g556"
           transform="translate(147.5103,67.9297)"><path
             d="m 0,0 c -0.414,0.558 -1.278,1.242 -2.215,1.242 -1.332,0 -2.052,-1.008 -2.052,-3.007 0,-2.377 0.756,-3.421 2.124,-3.421 0.883,0 1.657,0.594 2.143,1.207 z m -0.018,-6.698 v 0.9 c -0.684,-0.63 -1.477,-1.098 -2.467,-1.098 -2.035,0 -3.637,1.476 -3.637,5.077 0,3.241 1.765,4.772 3.727,4.772 0.955,0 1.855,-0.505 2.377,-1.081 V 5.474 L 1.818,6.428 V -6.698 Z"
             style="fill:#4c4c4c;fill-opacity:1;fill-rule:nonzero;stroke:none"
             id="path558"
             inkscape:connector-curvature="0" /></g><path
           d="m 150.694,59.755 h 9.002 v -1.71 h -9.002 z"
           style="fill:#4c4c4c;fill-opacity:1;fill-rule:nonzero;stroke:none"
           id="path560"
           inkscape:connector-curvature="0" /><g
           id="g562"
           transform="translate(161.1523,61.2314)"><path
             d="m 0,0 v 12.154 l 1.854,0.972 V 0 Z"
             style="fill:#4c4c4c;fill-opacity:1;fill-rule:nonzero;stroke:none"
             id="path564"
             inkscape:connector-curvature="0" /></g><g
           id="g566"
           transform="translate(169.5234,69.1177)"><path
             d="m 0,0 c -1.404,0 -2.269,-1.242 -2.269,-3.115 0,-2.071 0.955,-3.205 2.359,-3.205 1.404,0 2.323,1.423 2.323,3.151 C 2.413,-1.242 1.494,0 0,0 m 0.018,-8.084 c -2.377,0 -4.159,1.962 -4.159,4.915 0,3.097 1.836,4.934 4.213,4.934 2.413,0 4.213,-1.927 4.213,-4.88 0,-3.133 -1.836,-4.969 -4.267,-4.969"
             style="fill:#4c4c4c;fill-opacity:1;fill-rule:nonzero;stroke:none"
             id="path568"
             inkscape:connector-curvature="0" /></g><g
           id="g570"
           transform="translate(181.7998,67.9297)"><path
             d="m 0,0 c -0.414,0.558 -1.278,1.242 -2.215,1.242 -1.332,0 -2.053,-1.008 -2.053,-3.007 0,-2.377 0.757,-3.421 2.125,-3.421 0.883,0 1.657,0.594 2.143,1.207 z m -2.647,-10.173 -0.63,1.404 c 2.665,0.126 3.241,0.846 3.241,2.809 v 0.162 c -0.684,-0.63 -1.459,-1.098 -2.449,-1.098 -2.016,0 -3.637,1.476 -3.637,5.077 0,3.241 1.783,4.772 3.727,4.772 0.955,0 1.855,-0.505 2.359,-1.081 v 0.882 h 1.854 v -8.552 c 0,-2.881 -1.044,-4.267 -4.465,-4.375"
             style="fill:#4c4c4c;fill-opacity:1;fill-rule:nonzero;stroke:none"
             id="path572"
             inkscape:connector-curvature="0" /></g><path
           d="m 184.983,59.755 h 9.003 v -1.71 h -9.003 z"
           style="fill:#4c4c4c;fill-opacity:1;fill-rule:nonzero;stroke:none"
           id="path574"
           inkscape:connector-curvature="0" /><g
           id="g576"
           transform="translate(199.8711,61.4653)"><path
             d="m 0,0 c -0.45,-0.252 -1.08,-0.432 -1.818,-0.432 -1.315,0 -2.125,0.81 -2.125,2.503 v 5.455 h -1.35 v 1.693 h 1.35 v 2.701 l 1.818,0.972 V 9.219 H 0.216 V 7.526 H -2.125 V 2.395 c 0,-0.882 0.289,-1.134 0.973,-1.134 0.486,0 1.026,0.179 1.368,0.378 z"
             style="fill:#4c4c4c;fill-opacity:1;fill-rule:nonzero;stroke:none"
             id="path578"
             inkscape:connector-curvature="0" /></g><g
           id="g580"
           transform="translate(755,173)"><path
             d="m 0,0 c 0,-8.836 -7.163,-16 -16,-16 -8.837,0 -16,7.164 -16,16 0,8.836 7.163,16 16,16 C -7.163,16 0,8.836 0,0"
             style="fill:#cb0000;fill-opacity:1;fill-rule:nonzero;stroke:none"
             id="path582"
             inkscape:connector-curvature="0" /></g><g
           id="g584"
           transform="translate(741.6152,172.1499)"><path
             d="m 0,0 c -0.811,0.822 -0.811,0.822 -0.727,1.023 0.018,0.042 0.043,0.08 0.076,0.11 0.037,0.037 0.313,0.323 0.645,0.667 L 5.927,7.947 C 6.164,8.192 6.16,8.588 5.919,8.83 L 5.271,9.479 C 5.039,9.709 4.628,9.711 4.396,9.482 l -6.13,-6.023 c -0.76,-0.747 -0.76,-0.747 -0.908,-0.747 -0.068,0 -0.134,0.022 -0.19,0.062 -0.028,0.02 -0.031,0.023 -0.709,0.709 l -5.981,6.055 c -0.229,0.231 -0.632,0.233 -0.863,0.003 l -0.832,-0.833 c -0.24,-0.24 -0.241,-0.631 -0.003,-0.873 l 5.949,-6.029 c 0.338,-0.342 0.622,-0.628 0.66,-0.665 0.057,-0.055 0.094,-0.13 0.101,-0.211 0.014,-0.161 0.014,-0.161 -0.74,-0.933 l -5.97,-6.123 c -0.237,-0.244 -0.234,-0.638 0.006,-0.879 l 0.838,-0.837 c 0.23,-0.229 0.628,-0.226 0.854,0.006 l 5.972,6.157 c 0.747,0.77 0.747,0.77 0.908,0.77 0.019,0 0.038,-0.002 0.056,-0.005 0.123,-0.022 0.123,-0.022 0.857,-0.764 L 4.292,-7.772 C 4.52,-8.004 4.924,-8.006 5.154,-7.775 l 0.832,0.832 c 0.241,0.24 0.242,0.632 0.003,0.873 z"
             style="fill:#ffffff;fill-opacity:1;fill-rule:nonzero;stroke:none"
             id="path586"
             inkscape:connector-curvature="0" /></g></g></g></g></svg>