<?xml version="1.0" encoding="UTF-8" standalone="no"?>
<!-- Created with Inkscape (http://www.inkscape.org/) -->

<svg
   xmlns:dc="http://purl.org/dc/elements/1.1/"
   xmlns:cc="http://creativecommons.org/ns#"
   xmlns:rdf="http://www.w3.org/1999/02/22-rdf-syntax-ns#"
   xmlns:svg="http://www.w3.org/2000/svg"
   xmlns="http://www.w3.org/2000/svg"
   xmlns:sodipodi="http://sodipodi.sourceforge.net/DTD/sodipodi-0.dtd"
   xmlns:inkscape="http://www.inkscape.org/namespaces/inkscape"
   version="1.1"
   id="svg2"
   xml:space="preserve"
   width="1837.3333"
   height="901.33331"
   viewBox="0 0 1837.3333 901.33331"
   sodipodi:docname="RHEL_Security-Guide_453350_0717_ECE_NBDE.svg"
   inkscape:version="0.92.2 5c3e80d, 2017-08-06"><metadata
     id="metadata8"><rdf:RDF><cc:Work
         rdf:about=""><dc:format>image/svg+xml</dc:format><dc:type
           rdf:resource="http://purl.org/dc/dcmitype/StillImage" /><dc:title></dc:title><dc:subject><rdf:Bag><rdf:li>nbde clevis encryption security tang</rdf:li></rdf:Bag></dc:subject></cc:Work></rdf:RDF></metadata><defs
     id="defs6"><clipPath
       clipPathUnits="userSpaceOnUse"
       id="clipPath20"><path
         d="M 0,676 H 1378 V 0 H 0 Z"
         id="path18"
         inkscape:connector-curvature="0" /></clipPath></defs><sodipodi:namedview
     pagecolor="#ffffff"
     bordercolor="#666666"
     borderopacity="1"
     objecttolerance="10"
     gridtolerance="10"
     guidetolerance="10"
     inkscape:pageopacity="0"
     inkscape:pageshadow="2"
     inkscape:window-width="680"
     inkscape:window-height="480"
     id="namedview4"
     showgrid="false"
     inkscape:zoom="0.26183433"
     inkscape:cx="918.66663"
     inkscape:cy="450.66666"
     inkscape:window-x="0"
     inkscape:window-y="0"
     inkscape:window-maximized="0"
     inkscape:current-layer="g10" /><g
     id="g10"
     inkscape:groupmode="layer"
     inkscape:label="RHEL_Security-Guide_453350_0717_ECE_NBDE"
     transform="matrix(1.3333333,0,0,-1.3333333,0,901.33333)"><path
       d="M 565.085,436 H 52.028 v 191.5 h 513.057 z"
       style="fill:#e6e6e6;fill-opacity:1;fill-rule:nonzero;stroke:none"
       id="path12"
       inkscape:connector-curvature="0" /><g
       id="g14"><g
         id="g16"
         clip-path="url(#clipPath20)"><g
           id="g22"
           transform="translate(593.25,315.5)"><path
             d="m 0,0 h -3 c -0.552,0 -1,0.448 -1,1 0,0.552 0.448,1 1,1 h 2 V 4 C -1,4.552 -0.552,5 0,5 0.552,5 1,4.552 1,4 V 1 C 1,0.448 0.552,0 0,0"
             style="fill:#dcdcdc;fill-opacity:1;fill-rule:nonzero;stroke:none"
             id="path24"
             inkscape:connector-curvature="0" /></g><g
           id="g26"
           transform="translate(39.8462,315.5)"><path
             d="m 0,0 h -6.048 c -0.553,0 -1,0.448 -1,1 0,0.552 0.447,1 1,1 H 0 C 0.552,2 1,1.552 1,1 1,0.448 0.552,0 0,0 M 12.097,0 H 6.048 c -0.552,0 -1,0.448 -1,1 0,0.552 0.448,1 1,1 h 6.049 c 0.552,0 1,-0.448 1,-1 0,-0.552 -0.448,-1 -1,-1 m 12.097,0 h -6.048 c -0.553,0 -1,0.448 -1,1 0,0.552 0.447,1 1,1 h 6.048 c 0.552,0 1,-0.448 1,-1 0,-0.552 -0.448,-1 -1,-1 m 12.097,0 h -6.049 c -0.552,0 -1,0.448 -1,1 0,0.552 0.448,1 1,1 h 6.049 c 0.552,0 1,-0.448 1,-1 0,-0.552 -0.448,-1 -1,-1 m 12.096,0 h -6.048 c -0.552,0 -1,0.448 -1,1 0,0.552 0.448,1 1,1 h 6.048 c 0.552,0 1,-0.448 1,-1 0,-0.552 -0.448,-1 -1,-1 m 12.097,0 h -6.048 c -0.553,0 -1,0.448 -1,1 0,0.552 0.447,1 1,1 h 6.048 c 0.553,0 1,-0.448 1,-1 0,-0.552 -0.447,-1 -1,-1 m 12.097,0 h -6.048 c -0.553,0 -1,0.448 -1,1 0,0.552 0.447,1 1,1 h 6.048 c 0.552,0 1,-0.448 1,-1 0,-0.552 -0.448,-1 -1,-1 m 12.097,0 h -6.049 c -0.552,0 -1,0.448 -1,1 0,0.552 0.448,1 1,1 h 6.049 c 0.552,0 1,-0.448 1,-1 0,-0.552 -0.448,-1 -1,-1 m 12.096,0 h -6.048 c -0.552,0 -1,0.448 -1,1 0,0.552 0.448,1 1,1 h 6.048 c 0.553,0 1,-0.448 1,-1 0,-0.552 -0.447,-1 -1,-1 m 12.098,0 h -6.049 c -0.552,0 -1,0.448 -1,1 0,0.552 0.448,1 1,1 h 6.049 c 0.552,0 1,-0.448 1,-1 0,-0.552 -0.448,-1 -1,-1 m 12.096,0 h -6.048 c -0.552,0 -1,0.448 -1,1 0,0.552 0.448,1 1,1 h 6.048 c 0.553,0 1,-0.448 1,-1 0,-0.552 -0.447,-1 -1,-1 m 12.097,0 h -6.048 c -0.553,0 -1,0.448 -1,1 0,0.552 0.447,1 1,1 h 6.048 c 0.552,0 1,-0.448 1,-1 0,-0.552 -0.448,-1 -1,-1 m 12.097,0 h -6.049 c -0.552,0 -1,0.448 -1,1 0,0.552 0.448,1 1,1 h 6.049 c 0.552,0 1,-0.448 1,-1 0,-0.552 -0.448,-1 -1,-1 m 12.097,0 h -6.049 c -0.552,0 -1,0.448 -1,1 0,0.552 0.448,1 1,1 h 6.049 c 0.552,0 1,-0.448 1,-1 0,-0.552 -0.448,-1 -1,-1 m 12.096,0 h -6.048 c -0.552,0 -1,0.448 -1,1 0,0.552 0.448,1 1,1 h 6.048 c 0.553,0 1,-0.448 1,-1 0,-0.552 -0.447,-1 -1,-1 m 12.097,0 h -6.048 c -0.552,0 -1,0.448 -1,1 0,0.552 0.448,1 1,1 h 6.048 c 0.552,0 1,-0.448 1,-1 0,-0.552 -0.448,-1 -1,-1 m 12.097,0 H 187.5 c -0.552,0 -1,0.448 -1,1 0,0.552 0.448,1 1,1 h 6.049 c 0.552,0 1,-0.448 1,-1 0,-0.552 -0.448,-1 -1,-1 m 12.097,0 h -6.049 c -0.552,0 -1,0.448 -1,1 0,0.552 0.448,1 1,1 h 6.049 c 0.552,0 1,-0.448 1,-1 0,-0.552 -0.448,-1 -1,-1 m 12.097,0 h -6.049 c -0.552,0 -1,0.448 -1,1 0,0.552 0.448,1 1,1 h 6.049 c 0.552,0 1,-0.448 1,-1 0,-0.552 -0.448,-1 -1,-1 m 12.096,0 h -6.048 c -0.552,0 -1,0.448 -1,1 0,0.552 0.448,1 1,1 h 6.048 c 0.553,0 1,-0.448 1,-1 0,-0.552 -0.447,-1 -1,-1 m 12.097,0 h -6.048 c -0.553,0 -1,0.448 -1,1 0,0.552 0.447,1 1,1 h 6.048 c 0.552,0 1,-0.448 1,-1 0,-0.552 -0.448,-1 -1,-1 m 12.097,0 h -6.049 c -0.552,0 -1,0.448 -1,1 0,0.552 0.448,1 1,1 h 6.049 c 0.552,0 1,-0.448 1,-1 0,-0.552 -0.448,-1 -1,-1 m 12.097,0 h -6.048 c -0.553,0 -1,0.448 -1,1 0,0.552 0.447,1 1,1 h 6.048 c 0.552,0 1,-0.448 1,-1 0,-0.552 -0.448,-1 -1,-1 m 12.097,0 h -6.049 c -0.552,0 -1,0.448 -1,1 0,0.552 0.448,1 1,1 h 6.049 c 0.552,0 1,-0.448 1,-1 0,-0.552 -0.448,-1 -1,-1 m 12.096,0 h -6.048 c -0.552,0 -1,0.448 -1,1 0,0.552 0.448,1 1,1 h 6.048 c 0.552,0 1,-0.448 1,-1 0,-0.552 -0.448,-1 -1,-1 m 12.097,0 h -6.048 c -0.553,0 -1,0.448 -1,1 0,0.552 0.447,1 1,1 h 6.048 c 0.552,0 1,-0.448 1,-1 0,-0.552 -0.448,-1 -1,-1 m 12.097,0 h -6.049 c -0.552,0 -1,0.448 -1,1 0,0.552 0.448,1 1,1 h 6.049 c 0.552,0 1,-0.448 1,-1 0,-0.552 -0.448,-1 -1,-1 m 12.097,0 h -6.049 c -0.552,0 -1,0.448 -1,1 0,0.552 0.448,1 1,1 h 6.049 c 0.552,0 1,-0.448 1,-1 0,-0.552 -0.448,-1 -1,-1 m 12.096,0 h -6.048 c -0.552,0 -1,0.448 -1,1 0,0.552 0.448,1 1,1 h 6.048 c 0.553,0 1,-0.448 1,-1 0,-0.552 -0.447,-1 -1,-1 m 12.097,0 h -6.048 c -0.552,0 -1,0.448 -1,1 0,0.552 0.448,1 1,1 h 6.048 c 0.552,0 1,-0.448 1,-1 0,-0.552 -0.448,-1 -1,-1 m 12.097,0 h -6.049 c -0.552,0 -1,0.448 -1,1 0,0.552 0.448,1 1,1 h 6.049 c 0.552,0 1,-0.448 1,-1 0,-0.552 -0.448,-1 -1,-1 M 375,0 h -6.048 c -0.552,0 -1,0.448 -1,1 0,0.552 0.448,1 1,1 H 375 c 0.553,0 1,-0.448 1,-1 0,-0.552 -0.447,-1 -1,-1 m 12.098,0 h -6.049 c -0.552,0 -1,0.448 -1,1 0,0.552 0.448,1 1,1 h 6.049 c 0.552,0 1,-0.448 1,-1 0,-0.552 -0.448,-1 -1,-1 m 12.096,0 h -6.048 c -0.552,0 -1,0.448 -1,1 0,0.552 0.448,1 1,1 h 6.048 c 0.553,0 1,-0.448 1,-1 0,-0.552 -0.447,-1 -1,-1 m 12.097,0 h -6.048 c -0.553,0 -1,0.448 -1,1 0,0.552 0.447,1 1,1 h 6.048 c 0.552,0 1,-0.448 1,-1 0,-0.552 -0.448,-1 -1,-1 m 12.097,0 h -6.049 c -0.552,0 -1,0.448 -1,1 0,0.552 0.448,1 1,1 h 6.049 c 0.552,0 1,-0.448 1,-1 0,-0.552 -0.448,-1 -1,-1 m 12.096,0 h -6.048 c -0.552,0 -1,0.448 -1,1 0,0.552 0.448,1 1,1 h 6.048 c 0.553,0 1,-0.448 1,-1 0,-0.552 -0.447,-1 -1,-1 m 12.097,0 h -6.048 c -0.553,0 -1,0.448 -1,1 0,0.552 0.447,1 1,1 h 6.048 c 0.552,0 1,-0.448 1,-1 0,-0.552 -0.448,-1 -1,-1 m 12.097,0 h -6.048 c -0.552,0 -1,0.448 -1,1 0,0.552 0.448,1 1,1 h 6.048 c 0.552,0 1,-0.448 1,-1 0,-0.552 -0.448,-1 -1,-1 m 12.097,0 h -6.048 c -0.553,0 -1,0.448 -1,1 0,0.552 0.447,1 1,1 h 6.048 c 0.552,0 1,-0.448 1,-1 0,-0.552 -0.448,-1 -1,-1 m 12.097,0 h -6.049 c -0.552,0 -1,0.448 -1,1 0,0.552 0.448,1 1,1 h 6.049 c 0.552,0 1,-0.448 1,-1 0,-0.552 -0.448,-1 -1,-1 m 12.096,0 h -6.048 c -0.552,0 -1,0.448 -1,1 0,0.552 0.448,1 1,1 h 6.048 c 0.553,0 1,-0.448 1,-1 0,-0.552 -0.447,-1 -1,-1 m 12.097,0 h -6.048 c -0.553,0 -1,0.448 -1,1 0,0.552 0.447,1 1,1 h 6.048 c 0.552,0 1,-0.448 1,-1 0,-0.552 -0.448,-1 -1,-1 m 12.097,0 h -6.048 c -0.552,0 -1,0.448 -1,1 0,0.552 0.448,1 1,1 h 6.048 c 0.552,0 1,-0.448 1,-1 0,-0.552 -0.448,-1 -1,-1 m 12.097,0 h -6.049 c -0.552,0 -1,0.448 -1,1 0,0.552 0.448,1 1,1 h 6.049 c 0.552,0 1,-0.448 1,-1 0,-0.552 -0.448,-1 -1,-1 m 12.096,0 h -6.048 c -0.552,0 -1,0.448 -1,1 0,0.552 0.448,1 1,1 h 6.048 c 0.553,0 1,-0.448 1,-1 0,-0.552 -0.447,-1 -1,-1"
             style="fill:#dcdcdc;fill-opacity:1;fill-rule:nonzero;stroke:none"
             id="path28"
             inkscape:connector-curvature="0" /></g><g
           id="g30"
           transform="translate(27.75,315.5)"><path
             d="m 0,0 h -3 c -0.552,0 -1,0.448 -1,1 v 3 c 0,0.552 0.448,1 1,1 0.552,0 1,-0.448 1,-1 V 2 H 0 C 0.552,2 1,1.552 1,1 1,0.448 0.552,0 0,0"
             style="fill:#dcdcdc;fill-opacity:1;fill-rule:nonzero;stroke:none"
             id="path32"
             inkscape:connector-curvature="0" /></g><g
           id="g34"
           transform="translate(24.75,640.3545)"><path
             d="m 0,0 c -0.552,0 -1,0.448 -1,1 v 6.073 c 0,0.552 0.448,1 1,1 0.552,0 1,-0.448 1,-1 V 1 C 1,0.448 0.552,0 0,0 m 0,-12.145 c -0.552,0 -1,0.448 -1,1 v 6.073 c 0,0.552 0.448,1 1,1 0.552,0 1,-0.448 1,-1 v -6.073 c 0,-0.552 -0.448,-1 -1,-1 m 0,-12.146 c -0.552,0 -1,0.448 -1,1 v 6.073 c 0,0.552 0.448,1 1,1 0.552,0 1,-0.448 1,-1 v -6.073 c 0,-0.552 -0.448,-1 -1,-1 m 0,-12.145 c -0.552,0 -1,0.448 -1,1 v 6.073 c 0,0.552 0.448,1 1,1 0.552,0 1,-0.448 1,-1 v -6.073 c 0,-0.552 -0.448,-1 -1,-1 m 0,-12.146 c -0.552,0 -1,0.448 -1,1 v 6.073 c 0,0.552 0.448,1 1,1 0.552,0 1,-0.448 1,-1 v -6.073 c 0,-0.552 -0.448,-1 -1,-1 m 0,-12.145 c -0.552,0 -1,0.448 -1,1 v 6.073 c 0,0.552 0.448,1 1,1 0.552,0 1,-0.448 1,-1 v -6.073 c 0,-0.552 -0.448,-1 -1,-1 m 0,-12.146 c -0.552,0 -1,0.448 -1,1 v 6.073 c 0,0.552 0.448,1 1,1 0.552,0 1,-0.448 1,-1 v -6.073 c 0,-0.552 -0.448,-1 -1,-1 m 0,-12.145 c -0.552,0 -1,0.448 -1,1 v 6.073 c 0,0.552 0.448,1 1,1 0.552,0 1,-0.448 1,-1 v -6.073 c 0,-0.552 -0.448,-1 -1,-1 m 0,-12.146 c -0.552,0 -1,0.448 -1,1 v 6.073 c 0,0.552 0.448,1 1,1 0.552,0 1,-0.448 1,-1 v -6.073 c 0,-0.552 -0.448,-1 -1,-1 m 0,-12.145 c -0.552,0 -1,0.448 -1,1 v 6.073 c 0,0.552 0.448,1 1,1 0.552,0 1,-0.448 1,-1 v -6.073 c 0,-0.552 -0.448,-1 -1,-1 m 0,-12.146 c -0.552,0 -1,0.448 -1,1 v 6.073 c 0,0.552 0.448,1 1,1 0.552,0 1,-0.448 1,-1 v -6.073 c 0,-0.552 -0.448,-1 -1,-1 M 0,-133.6 c -0.552,0 -1,0.448 -1,1 v 6.073 c 0,0.552 0.448,1 1,1 0.552,0 1,-0.448 1,-1 v -6.073 c 0,-0.552 -0.448,-1 -1,-1 m 0,-12.146 c -0.552,0 -1,0.448 -1,1 v 6.073 c 0,0.552 0.448,1 1,1 0.552,0 1,-0.448 1,-1 v -6.073 c 0,-0.552 -0.448,-1 -1,-1 m 0,-12.145 c -0.552,0 -1,0.448 -1,1 v 6.073 c 0,0.552 0.448,1 1,1 0.552,0 1,-0.448 1,-1 v -6.073 c 0,-0.552 -0.448,-1 -1,-1 m 0,-12.145 c -0.552,0 -1,0.448 -1,1 v 6.073 c 0,0.552 0.448,1 1,1 0.552,0 1,-0.448 1,-1 v -6.073 c 0,-0.552 -0.448,-1 -1,-1 m 0,-12.146 c -0.552,0 -1,0.448 -1,1 v 6.073 c 0,0.552 0.448,1 1,1 0.552,0 1,-0.448 1,-1 v -6.073 c 0,-0.552 -0.448,-1 -1,-1 m 0,-12.145 c -0.552,0 -1,0.448 -1,1 v 6.073 c 0,0.552 0.448,1 1,1 0.552,0 1,-0.448 1,-1 v -6.073 c 0,-0.552 -0.448,-1 -1,-1 m 0,-12.146 c -0.552,0 -1,0.448 -1,1 v 6.073 c 0,0.552 0.448,1 1,1 0.552,0 1,-0.448 1,-1 v -6.073 c 0,-0.552 -0.448,-1 -1,-1 m 0,-12.145 c -0.552,0 -1,0.448 -1,1 v 6.073 c 0,0.552 0.448,1 1,1 0.552,0 1,-0.448 1,-1 v -6.073 c 0,-0.552 -0.448,-1 -1,-1 m 0,-12.146 c -0.552,0 -1,0.448 -1,1 v 6.073 c 0,0.552 0.448,1 1,1 0.552,0 1,-0.448 1,-1 v -6.073 c 0,-0.552 -0.448,-1 -1,-1 m 0,-12.145 c -0.552,0 -1,0.448 -1,1 v 6.073 c 0,0.552 0.448,1 1,1 0.552,0 1,-0.448 1,-1 v -6.073 c 0,-0.552 -0.448,-1 -1,-1 m 0,-12.146 c -0.552,0 -1,0.448 -1,1 v 6.073 c 0,0.552 0.448,1 1,1 0.552,0 1,-0.448 1,-1 v -6.073 c 0,-0.552 -0.448,-1 -1,-1 M 0,-267.2 c -0.552,0 -1,0.448 -1,1 v 6.073 c 0,0.552 0.448,1 1,1 0.552,0 1,-0.448 1,-1 v -6.073 c 0,-0.552 -0.448,-1 -1,-1 m 0,-12.145 c -0.552,0 -1,0.448 -1,1 v 6.073 c 0,0.552 0.448,1 1,1 0.552,0 1,-0.448 1,-1 v -6.073 c 0,-0.552 -0.448,-1 -1,-1 m 0,-12.146 c -0.552,0 -1,0.448 -1,1 v 6.073 c 0,0.552 0.448,1 1,1 0.552,0 1,-0.448 1,-1 v -6.073 c 0,-0.552 -0.448,-1 -1,-1 m 0,-12.145 c -0.552,0 -1,0.448 -1,1 v 6.073 c 0,0.552 0.448,1 1,1 0.552,0 1,-0.448 1,-1 v -6.073 c 0,-0.552 -0.448,-1 -1,-1 m 0,-12.146 c -0.552,0 -1,0.448 -1,1 v 6.073 c 0,0.552 0.448,1 1,1 0.552,0 1,-0.448 1,-1 v -6.073 c 0,-0.552 -0.448,-1 -1,-1"
             style="fill:#dcdcdc;fill-opacity:1;fill-rule:nonzero;stroke:none"
             id="path36"
             inkscape:connector-curvature="0" /></g><g
           id="g38"
           transform="translate(24.75,652.5)"><path
             d="m 0,0 c -0.552,0 -1,0.448 -1,1 v 3 c 0,0.552 0.448,1 1,1 H 3 C 3.552,5 4,4.552 4,4 4,3.448 3.552,3 3,3 H 1 V 1 C 1,0.448 0.552,0 0,0"
             style="fill:#dcdcdc;fill-opacity:1;fill-rule:nonzero;stroke:none"
             id="path40"
             inkscape:connector-curvature="0" /></g><g
           id="g42"
           transform="translate(39.8467,655.5)"><path
             d="m 0,0 h -6.048 c -0.553,0 -1,0.448 -1,1 0,0.552 0.447,1 1,1 H 0 C 0.552,2 1,1.552 1,1 1,0.448 0.552,0 0,0 M 12.097,0 H 6.048 c -0.552,0 -1,0.448 -1,1 0,0.552 0.448,1 1,1 h 6.049 c 0.552,0 1,-0.448 1,-1 0,-0.552 -0.448,-1 -1,-1 m 12.096,0 h -6.048 c -0.552,0 -1,0.448 -1,1 0,0.552 0.448,1 1,1 h 6.048 c 0.553,0 1,-0.448 1,-1 0,-0.552 -0.447,-1 -1,-1 m 12.098,0 h -6.049 c -0.552,0 -1,0.448 -1,1 0,0.552 0.448,1 1,1 h 6.049 c 0.552,0 1,-0.448 1,-1 0,-0.552 -0.448,-1 -1,-1 m 12.096,0 h -6.048 c -0.552,0 -1,0.448 -1,1 0,0.552 0.448,1 1,1 h 6.048 c 0.552,0 1,-0.448 1,-1 0,-0.552 -0.448,-1 -1,-1 m 12.097,0 h -6.048 c -0.553,0 -1,0.448 -1,1 0,0.552 0.447,1 1,1 h 6.048 c 0.552,0 1,-0.448 1,-1 0,-0.552 -0.448,-1 -1,-1 m 12.097,0 h -6.049 c -0.552,0 -1,0.448 -1,1 0,0.552 0.448,1 1,1 h 6.049 c 0.552,0 1,-0.448 1,-1 0,-0.552 -0.448,-1 -1,-1 m 12.096,0 h -6.048 c -0.552,0 -1,0.448 -1,1 0,0.552 0.448,1 1,1 h 6.048 c 0.552,0 1,-0.448 1,-1 0,-0.552 -0.448,-1 -1,-1 m 12.097,0 h -6.048 c -0.552,0 -1,0.448 -1,1 0,0.552 0.448,1 1,1 h 6.048 c 0.553,0 1,-0.448 1,-1 0,-0.552 -0.447,-1 -1,-1 m 12.097,0 h -6.048 c -0.552,0 -1,0.448 -1,1 0,0.552 0.448,1 1,1 h 6.048 c 0.552,0 1,-0.448 1,-1 0,-0.552 -0.448,-1 -1,-1 m 12.097,0 h -6.049 c -0.552,0 -1,0.448 -1,1 0,0.552 0.448,1 1,1 h 6.049 c 0.552,0 1,-0.448 1,-1 0,-0.552 -0.448,-1 -1,-1 m 12.096,0 h -6.048 c -0.552,0 -1,0.448 -1,1 0,0.552 0.448,1 1,1 h 6.048 c 0.553,0 1,-0.448 1,-1 0,-0.552 -0.447,-1 -1,-1 m 12.097,0 h -6.048 c -0.552,0 -1,0.448 -1,1 0,0.552 0.448,1 1,1 h 6.048 c 0.552,0 1,-0.448 1,-1 0,-0.552 -0.448,-1 -1,-1 m 12.097,0 h -6.049 c -0.552,0 -1,0.448 -1,1 0,0.552 0.448,1 1,1 h 6.049 c 0.552,0 1,-0.448 1,-1 0,-0.552 -0.448,-1 -1,-1 m 12.097,0 h -6.048 c -0.553,0 -1,0.448 -1,1 0,0.552 0.447,1 1,1 h 6.048 c 0.552,0 1,-0.448 1,-1 0,-0.552 -0.448,-1 -1,-1 m 12.097,0 h -6.049 c -0.552,0 -1,0.448 -1,1 0,0.552 0.448,1 1,1 h 6.049 c 0.552,0 1,-0.448 1,-1 0,-0.552 -0.448,-1 -1,-1 m 12.096,0 H 187.5 c -0.552,0 -1,0.448 -1,1 0,0.552 0.448,1 1,1 h 6.048 c 0.553,0 1,-0.448 1,-1 0,-0.552 -0.447,-1 -1,-1 m 12.097,0 h -6.048 c -0.553,0 -1,0.448 -1,1 0,0.552 0.447,1 1,1 h 6.048 c 0.552,0 1,-0.448 1,-1 0,-0.552 -0.448,-1 -1,-1 m 12.097,0 h -6.049 c -0.552,0 -1,0.448 -1,1 0,0.552 0.448,1 1,1 h 6.049 c 0.552,0 1,-0.448 1,-1 0,-0.552 -0.448,-1 -1,-1 m 12.097,0 h -6.049 c -0.552,0 -1,0.448 -1,1 0,0.552 0.448,1 1,1 h 6.049 c 0.552,0 1,-0.448 1,-1 0,-0.552 -0.448,-1 -1,-1 m 12.097,0 h -6.049 c -0.552,0 -1,0.448 -1,1 0,0.552 0.448,1 1,1 h 6.049 c 0.552,0 1,-0.448 1,-1 0,-0.552 -0.448,-1 -1,-1 m 12.096,0 h -6.048 c -0.552,0 -1,0.448 -1,1 0,0.552 0.448,1 1,1 h 6.048 c 0.552,0 1,-0.448 1,-1 0,-0.552 -0.448,-1 -1,-1 m 12.097,0 h -6.048 c -0.553,0 -1,0.448 -1,1 0,0.552 0.447,1 1,1 h 6.048 c 0.552,0 1,-0.448 1,-1 0,-0.552 -0.448,-1 -1,-1 m 12.097,0 h -6.049 c -0.552,0 -1,0.448 -1,1 0,0.552 0.448,1 1,1 h 6.049 c 0.552,0 1,-0.448 1,-1 0,-0.552 -0.448,-1 -1,-1 m 12.097,0 h -6.049 c -0.552,0 -1,0.448 -1,1 0,0.552 0.448,1 1,1 h 6.049 c 0.552,0 1,-0.448 1,-1 0,-0.552 -0.448,-1 -1,-1 m 12.096,0 h -6.048 c -0.552,0 -1,0.448 -1,1 0,0.552 0.448,1 1,1 h 6.048 c 0.553,0 1,-0.448 1,-1 0,-0.552 -0.447,-1 -1,-1 m 12.097,0 h -6.048 c -0.552,0 -1,0.448 -1,1 0,0.552 0.448,1 1,1 h 6.048 c 0.552,0 1,-0.448 1,-1 0,-0.552 -0.448,-1 -1,-1 m 12.097,0 h -6.049 c -0.552,0 -1,0.448 -1,1 0,0.552 0.448,1 1,1 h 6.049 c 0.552,0 1,-0.448 1,-1 0,-0.552 -0.448,-1 -1,-1 m 12.097,0 h -6.049 c -0.552,0 -1,0.448 -1,1 0,0.552 0.448,1 1,1 h 6.049 c 0.552,0 1,-0.448 1,-1 0,-0.552 -0.448,-1 -1,-1 m 12.097,0 h -6.049 c -0.552,0 -1,0.448 -1,1 0,0.552 0.448,1 1,1 h 6.049 c 0.552,0 1,-0.448 1,-1 0,-0.552 -0.448,-1 -1,-1 m 12.096,0 h -6.048 c -0.552,0 -1,0.448 -1,1 0,0.552 0.448,1 1,1 h 6.048 c 0.553,0 1,-0.448 1,-1 0,-0.552 -0.447,-1 -1,-1 M 375,0 h -6.048 c -0.553,0 -1,0.448 -1,1 0,0.552 0.447,1 1,1 H 375 c 0.552,0 1,-0.448 1,-1 0,-0.552 -0.448,-1 -1,-1 m 12.097,0 h -6.049 c -0.552,0 -1,0.448 -1,1 0,0.552 0.448,1 1,1 h 6.049 c 0.552,0 1,-0.448 1,-1 0,-0.552 -0.448,-1 -1,-1 m 12.097,0 h -6.048 c -0.553,0 -1,0.448 -1,1 0,0.552 0.447,1 1,1 h 6.048 c 0.552,0 1,-0.448 1,-1 0,-0.552 -0.448,-1 -1,-1 m 12.097,0 h -6.049 c -0.552,0 -1,0.448 -1,1 0,0.552 0.448,1 1,1 h 6.049 c 0.552,0 1,-0.448 1,-1 0,-0.552 -0.448,-1 -1,-1 m 12.096,0 h -6.048 c -0.552,0 -1,0.448 -1,1 0,0.552 0.448,1 1,1 h 6.048 c 0.552,0 1,-0.448 1,-1 0,-0.552 -0.448,-1 -1,-1 m 12.097,0 h -6.048 c -0.553,0 -1,0.448 -1,1 0,0.552 0.447,1 1,1 h 6.048 c 0.553,0 1,-0.448 1,-1 0,-0.552 -0.447,-1 -1,-1 m 12.097,0 h -6.048 c -0.553,0 -1,0.448 -1,1 0,0.552 0.447,1 1,1 h 6.048 c 0.552,0 1,-0.448 1,-1 0,-0.552 -0.448,-1 -1,-1 m 12.097,0 h -6.049 c -0.552,0 -1,0.448 -1,1 0,0.552 0.448,1 1,1 h 6.049 c 0.552,0 1,-0.448 1,-1 0,-0.552 -0.448,-1 -1,-1 m 12.096,0 h -6.048 c -0.552,0 -1,0.448 -1,1 0,0.552 0.448,1 1,1 h 6.048 c 0.553,0 1,-0.448 1,-1 0,-0.552 -0.447,-1 -1,-1 m 12.098,0 h -6.049 c -0.552,0 -1,0.448 -1,1 0,0.552 0.448,1 1,1 h 6.049 c 0.552,0 1,-0.448 1,-1 0,-0.552 -0.448,-1 -1,-1 m 12.096,0 h -6.048 c -0.552,0 -1,0.448 -1,1 0,0.552 0.448,1 1,1 h 6.048 c 0.553,0 1,-0.448 1,-1 0,-0.552 -0.447,-1 -1,-1 m 12.097,0 h -6.048 c -0.553,0 -1,0.448 -1,1 0,0.552 0.447,1 1,1 h 6.048 c 0.552,0 1,-0.448 1,-1 0,-0.552 -0.448,-1 -1,-1 m 12.097,0 h -6.049 c -0.552,0 -1,0.448 -1,1 0,0.552 0.448,1 1,1 h 6.049 c 0.552,0 1,-0.448 1,-1 0,-0.552 -0.448,-1 -1,-1 m 12.097,0 h -6.049 c -0.552,0 -1,0.448 -1,1 0,0.552 0.448,1 1,1 h 6.049 c 0.552,0 1,-0.448 1,-1 0,-0.552 -0.448,-1 -1,-1 m 12.096,0 h -6.048 c -0.552,0 -1,0.448 -1,1 0,0.552 0.448,1 1,1 h 6.048 c 0.553,0 1,-0.448 1,-1 0,-0.552 -0.447,-1 -1,-1"
             style="fill:#dcdcdc;fill-opacity:1;fill-rule:nonzero;stroke:none"
             id="path44"
             inkscape:connector-curvature="0" /></g><g
           id="g46"
           transform="translate(593.25,652.5)"><path
             d="m 0,0 c -0.552,0 -1,0.448 -1,1 v 2 h -2 c -0.552,0 -1,0.448 -1,1 0,0.552 0.448,1 1,1 H 0 C 0.552,5 1,4.552 1,4 V 1 C 1,0.448 0.552,0 0,0"
             style="fill:#dcdcdc;fill-opacity:1;fill-rule:nonzero;stroke:none"
             id="path48"
             inkscape:connector-curvature="0" /></g><g
           id="g50"
           transform="translate(593.25,640.3545)"><path
             d="m 0,0 c -0.552,0 -1,0.448 -1,1 v 6.073 c 0,0.552 0.448,1 1,1 0.552,0 1,-0.448 1,-1 V 1 C 1,0.448 0.552,0 0,0 m 0,-12.146 c -0.552,0 -1,0.448 -1,1 v 6.073 c 0,0.552 0.448,1 1,1 0.552,0 1,-0.448 1,-1 v -6.073 c 0,-0.552 -0.448,-1 -1,-1 m 0,-12.145 c -0.552,0 -1,0.448 -1,1 v 6.073 c 0,0.552 0.448,1 1,1 0.552,0 1,-0.448 1,-1 v -6.073 c 0,-0.552 -0.448,-1 -1,-1 m 0,-12.146 c -0.552,0 -1,0.448 -1,1 v 6.073 c 0,0.552 0.448,1 1,1 0.552,0 1,-0.448 1,-1 v -6.073 c 0,-0.552 -0.448,-1 -1,-1 m 0,-12.145 c -0.552,0 -1,0.448 -1,1 v 6.073 c 0,0.552 0.448,1 1,1 0.552,0 1,-0.448 1,-1 v -6.073 c 0,-0.552 -0.448,-1 -1,-1 m 0,-12.145 c -0.552,0 -1,0.448 -1,1 v 6.073 c 0,0.552 0.448,1 1,1 0.552,0 1,-0.448 1,-1 v -6.073 c 0,-0.552 -0.448,-1 -1,-1 m 0,-12.146 c -0.552,0 -1,0.448 -1,1 v 6.073 c 0,0.552 0.448,1 1,1 0.552,0 1,-0.448 1,-1 v -6.073 c 0,-0.552 -0.448,-1 -1,-1 m 0,-12.145 c -0.552,0 -1,0.448 -1,1 v 6.073 c 0,0.552 0.448,1 1,1 0.552,0 1,-0.448 1,-1 v -6.073 c 0,-0.552 -0.448,-1 -1,-1 m 0,-12.146 c -0.552,0 -1,0.448 -1,1 v 6.073 c 0,0.552 0.448,1 1,1 0.552,0 1,-0.448 1,-1 v -6.073 c 0,-0.552 -0.448,-1 -1,-1 m 0,-12.145 c -0.552,0 -1,0.448 -1,1 v 6.073 c 0,0.552 0.448,1 1,1 0.552,0 1,-0.448 1,-1 v -6.073 c 0,-0.552 -0.448,-1 -1,-1 m 0,-12.146 c -0.552,0 -1,0.448 -1,1 v 6.073 c 0,0.552 0.448,1 1,1 0.552,0 1,-0.448 1,-1 v -6.073 c 0,-0.552 -0.448,-1 -1,-1 M 0,-133.6 c -0.552,0 -1,0.448 -1,1 v 6.073 c 0,0.552 0.448,1 1,1 0.552,0 1,-0.448 1,-1 v -6.073 c 0,-0.552 -0.448,-1 -1,-1 m 0,-12.146 c -0.552,0 -1,0.448 -1,1 v 6.073 c 0,0.552 0.448,1 1,1 0.552,0 1,-0.448 1,-1 v -6.073 c 0,-0.552 -0.448,-1 -1,-1 m 0,-12.145 c -0.552,0 -1,0.448 -1,1 v 6.073 c 0,0.552 0.448,1 1,1 0.552,0 1,-0.448 1,-1 v -6.073 c 0,-0.552 -0.448,-1 -1,-1 m 0,-12.145 c -0.552,0 -1,0.448 -1,1 v 6.073 c 0,0.552 0.448,1 1,1 0.552,0 1,-0.448 1,-1 v -6.073 c 0,-0.552 -0.448,-1 -1,-1 m 0,-12.146 c -0.552,0 -1,0.448 -1,1 v 6.073 c 0,0.552 0.448,1 1,1 0.552,0 1,-0.448 1,-1 v -6.073 c 0,-0.552 -0.448,-1 -1,-1 m 0,-12.145 c -0.552,0 -1,0.448 -1,1 v 6.073 c 0,0.552 0.448,1 1,1 0.552,0 1,-0.448 1,-1 v -6.073 c 0,-0.552 -0.448,-1 -1,-1 m 0,-12.146 c -0.552,0 -1,0.448 -1,1 v 6.073 c 0,0.552 0.448,1 1,1 0.552,0 1,-0.448 1,-1 v -6.073 c 0,-0.552 -0.448,-1 -1,-1 m 0,-12.145 c -0.552,0 -1,0.448 -1,1 v 6.073 c 0,0.552 0.448,1 1,1 0.552,0 1,-0.448 1,-1 v -6.073 c 0,-0.552 -0.448,-1 -1,-1 m 0,-12.146 c -0.552,0 -1,0.448 -1,1 v 6.073 c 0,0.552 0.448,1 1,1 0.552,0 1,-0.448 1,-1 v -6.073 c 0,-0.552 -0.448,-1 -1,-1 m 0,-12.145 c -0.552,0 -1,0.448 -1,1 v 6.073 c 0,0.552 0.448,1 1,1 0.552,0 1,-0.448 1,-1 v -6.073 c 0,-0.552 -0.448,-1 -1,-1 m 0,-12.146 c -0.552,0 -1,0.448 -1,1 v 6.073 c 0,0.552 0.448,1 1,1 0.552,0 1,-0.448 1,-1 v -6.073 c 0,-0.552 -0.448,-1 -1,-1 M 0,-267.2 c -0.552,0 -1,0.448 -1,1 v 6.073 c 0,0.552 0.448,1 1,1 0.552,0 1,-0.448 1,-1 v -6.073 c 0,-0.552 -0.448,-1 -1,-1 m 0,-12.146 c -0.552,0 -1,0.448 -1,1 v 6.073 c 0,0.552 0.448,1 1,1 0.552,0 1,-0.448 1,-1 v -6.073 c 0,-0.552 -0.448,-1 -1,-1 m 0,-12.145 c -0.552,0 -1,0.448 -1,1 v 6.073 c 0,0.552 0.448,1 1,1 0.552,0 1,-0.448 1,-1 v -6.073 c 0,-0.552 -0.448,-1 -1,-1 m 0,-12.146 c -0.552,0 -1,0.448 -1,1 v 6.073 c 0,0.552 0.448,1 1,1 0.552,0 1,-0.448 1,-1 v -6.073 c 0,-0.552 -0.448,-1 -1,-1 m 0,-12.145 c -0.552,0 -1,0.448 -1,1 v 6.073 c 0,0.552 0.448,1 1,1 0.552,0 1,-0.448 1,-1 v -6.073 c 0,-0.552 -0.448,-1 -1,-1"
             style="fill:#dcdcdc;fill-opacity:1;fill-rule:nonzero;stroke:none"
             id="path52"
             inkscape:connector-curvature="0" /></g><path
           d="M 565.528,344.5 H 52.471 v 70 h 513.057 z"
           style="fill:#e6e6e6;fill-opacity:1;fill-rule:nonzero;stroke:none"
           id="path54"
           inkscape:connector-curvature="0" /><path
           d="M 538.578,465.5 H 79.436 v 70 h 459.142 z"
           style="fill:#ffffff;fill-opacity:1;fill-rule:nonzero;stroke:none"
           id="path56"
           inkscape:connector-curvature="0" /><path
           d="M 565.528,168 H 52.471 v 70 h 513.057 z"
           style="fill:#e6e6e6;fill-opacity:1;fill-rule:nonzero;stroke:none"
           id="path58"
           inkscape:connector-curvature="0" /><path
           d="M 565.528,19.5 H 52.471 v 70 h 513.057 z"
           style="fill:#e6e6e6;fill-opacity:1;fill-rule:nonzero;stroke:none"
           id="path60"
           inkscape:connector-curvature="0" /><g
           id="g62"
           transform="translate(92.71,586.0439)"><path
             d="m 0,0 c -0.7,1.344 -1.82,2.128 -3.584,2.128 -2.94,0 -4.62,-2.576 -4.62,-6.216 0,-3.528 1.708,-6.216 4.648,-6.216 1.764,0 2.8,0.756 3.836,2.492 l 3.304,-1.96 c -1.344,-2.772 -3.696,-4.424 -7.252,-4.424 -5.124,0 -8.568,3.92 -8.568,10.108 0,5.964 3.584,10.108 8.708,10.108 3.696,0 5.936,-1.792 7.168,-4.34 z"
             style="fill:#4c4c4c;fill-opacity:1;fill-rule:nonzero;stroke:none"
             id="path64"
             inkscape:connector-curvature="0" /></g><g
           id="g66"
           transform="translate(100.27,572.1558)"><path
             d="M 0,0 V 19.6 H 3.92 V 3.864 h 9.828 V 0 Z"
             style="fill:#4c4c4c;fill-opacity:1;fill-rule:nonzero;stroke:none"
             id="path68"
             inkscape:connector-curvature="0" /></g><g
           id="g70"
           transform="translate(117.6299,572.1558)"><path
             d="M 0,0 V 19.6 H 13.608 V 15.764 H 3.92 V 12.376 H 9.548 V 8.568 H 3.92 V 3.836 H 14.028 V 0 Z"
             style="fill:#4c4c4c;fill-opacity:1;fill-rule:nonzero;stroke:none"
             id="path72"
             inkscape:connector-curvature="0" /></g><g
           id="g74"
           transform="translate(144.9292,572.1558)"><path
             d="m 0,0 h -3.808 l -6.972,19.6 h 4.34 L -2.744,8.26 c 0.364,-1.092 0.756,-2.52 0.924,-3.22 0.168,0.728 0.532,2.072 0.896,3.22 L 2.688,19.6 h 4.284 z"
             style="fill:#4c4c4c;fill-opacity:1;fill-rule:nonzero;stroke:none"
             id="path76"
             inkscape:connector-curvature="0" /></g><path
           d="m 155.821,591.756 h 3.92 v -19.6 h -3.92 z"
           style="fill:#4c4c4c;fill-opacity:1;fill-rule:nonzero;stroke:none"
           id="path78"
           inkscape:connector-curvature="0" /><g
           id="g80"
           transform="translate(171.7251,571.8477)"><path
             d="m 0,0 c -3.276,0 -6.132,1.372 -7.616,3.556 l 2.828,2.52 c 1.372,-1.596 3.136,-2.24 5.012,-2.24 2.324,0 3.416,0.644 3.416,2.128 0,1.26 -0.672,1.82 -4.368,2.66 -3.612,0.84 -6.132,1.988 -6.132,5.852 0,3.556 3.136,5.74 7,5.74 3.052,0 5.292,-1.148 7.14,-3.08 L 4.452,14.392 C 3.192,15.68 1.792,16.408 0,16.408 c -2.1,0 -2.8,-0.896 -2.8,-1.764 0,-1.232 0.84,-1.624 3.948,-2.352 C 4.256,11.564 7.7,10.5 7.7,6.244 7.7,2.52 5.348,0 0,0"
             style="fill:#4c4c4c;fill-opacity:1;fill-rule:nonzero;stroke:none"
             id="path82"
             inkscape:connector-curvature="0" /></g><g
           id="g84"
           transform="translate(195.6084,587.9199)"><path
             d="M 0,0 V -3.696 H 5.908 V -7.504 H 0 v -8.26 h -3.92 v 19.6 H 10.108 V 0 Z"
             style="fill:#4c4c4c;fill-opacity:1;fill-rule:nonzero;stroke:none"
             id="path86"
             inkscape:connector-curvature="0" /></g><g
           id="g88"
           transform="translate(218.2324,587.9478)"><path
             d="M 0,0 H -5.124 V -5.04 H 0 c 1.82,0 2.8,0.84 2.8,2.548 C 2.8,-0.728 1.736,0 0,0 m 2.324,-15.792 -3.5,7.056 h -3.948 v -7.056 h -3.92 v 19.6 h 9.128 c 3.696,0 6.748,-2.044 6.748,-6.216 0,-2.94 -1.26,-4.788 -3.752,-5.768 l 3.752,-7.616 z"
             style="fill:#4c4c4c;fill-opacity:1;fill-rule:nonzero;stroke:none"
             id="path90"
             inkscape:connector-curvature="0" /></g><g
           id="g92"
           transform="translate(237.667,583.8037)"><path
             d="M 0,0 C -0.392,1.148 -0.784,2.324 -0.98,3.052 -1.176,2.324 -1.568,1.148 -1.96,0 l -1.26,-3.556 h 4.48 z m 4.144,-11.648 -1.54,4.368 h -7.168 l -1.54,-4.368 h -4.2 l 7.504,19.6 h 3.808 l 7.448,-19.6 z"
             style="fill:#4c4c4c;fill-opacity:1;fill-rule:nonzero;stroke:none"
             id="path94"
             inkscape:connector-curvature="0" /></g><g
           id="g96"
           transform="translate(264.1831,572.1558)"><path
             d="M 0,0 V 7.196 C 0,8.26 0.056,10.752 0.056,11.508 -0.224,10.78 -0.812,9.38 -1.316,8.26 L -5.292,-0.448 -9.268,8.26 c -0.504,1.12 -1.092,2.52 -1.372,3.248 0,-0.756 0.056,-3.248 0.056,-4.312 V 0 h -3.836 v 19.6 h 3.78 l 4.088,-8.876 c 0.504,-1.092 1.092,-2.576 1.344,-3.276 0.252,0.728 0.812,2.156 1.316,3.276 L 0.056,19.6 H 3.92 V 0 Z"
             style="fill:#4c4c4c;fill-opacity:1;fill-rule:nonzero;stroke:none"
             id="path98"
             inkscape:connector-curvature="0" /></g><g
           id="g100"
           transform="translate(273.1431,572.1558)"><path
             d="M 0,0 V 19.6 H 13.608 V 15.764 H 3.92 V 12.376 H 9.548 V 8.568 H 3.92 V 3.836 H 14.028 V 0 Z"
             style="fill:#4c4c4c;fill-opacity:1;fill-rule:nonzero;stroke:none"
             id="path102"
             inkscape:connector-curvature="0" /></g><g
           id="g104"
           transform="translate(307.7222,572.1558)"><path
             d="m 0,0 h -3.836 l -2.408,10.08 c -0.28,1.176 -0.56,2.632 -0.672,3.36 C -7,12.712 -7.28,11.228 -7.56,10.08 L -10.024,0 h -3.668 l -4.088,19.6 h 4.088 l 1.708,-9.548 c 0.168,-0.952 0.392,-2.408 0.476,-3.22 0.14,0.812 0.448,2.268 0.672,3.22 L -8.54,19.6 h 3.416 L -2.8,10.052 c 0.224,-0.952 0.532,-2.408 0.672,-3.22 0.084,0.812 0.308,2.296 0.476,3.22 L 0.056,19.6 h 4.032 z"
             style="fill:#4c4c4c;fill-opacity:1;fill-rule:nonzero;stroke:none"
             id="path106"
             inkscape:connector-curvature="0" /></g><g
           id="g108"
           transform="translate(322.646,588.1719)"><path
             d="m 0,0 c -3.164,0 -4.48,-2.716 -4.48,-6.216 0,-3.5 1.316,-6.216 4.48,-6.216 3.164,0 4.48,2.716 4.48,6.216 C 4.48,-2.716 3.164,0 0,0 m 0,-16.324 c -5.348,0 -8.512,4.144 -8.512,10.108 0,5.964 3.164,10.108 8.512,10.108 5.348,0 8.512,-4.144 8.512,-10.108 0,-5.964 -3.164,-10.108 -8.512,-10.108"
             style="fill:#4c4c4c;fill-opacity:1;fill-rule:nonzero;stroke:none"
             id="path110"
             inkscape:connector-curvature="0" /></g><g
           id="g112"
           transform="translate(344.2056,587.9478)"><path
             d="M 0,0 H -5.124 V -5.04 H 0 c 1.82,0 2.8,0.84 2.8,2.548 C 2.8,-0.728 1.736,0 0,0 m 2.324,-15.792 -3.5,7.056 h -3.948 v -7.056 h -3.92 v 19.6 h 9.128 c 3.696,0 6.748,-2.044 6.748,-6.216 0,-2.94 -1.26,-4.788 -3.752,-5.768 l 3.752,-7.616 z"
             style="fill:#4c4c4c;fill-opacity:1;fill-rule:nonzero;stroke:none"
             id="path114"
             inkscape:connector-curvature="0" /></g><g
           id="g116"
           transform="translate(367.5293,572.1558)"><path
             d="M 0,0 -5.32,9.464 -8.456,5.768 V 0 h -3.92 v 19.6 h 3.92 v -5.572 c 0,-0.728 -0.028,-2.492 -0.056,-3.108 0.28,0.448 1.008,1.344 1.54,1.988 L -1.484,19.6 H 3.248 L -2.492,12.824 4.704,0 Z"
             style="fill:#4c4c4c;fill-opacity:1;fill-rule:nonzero;stroke:none"
             id="path118"
             inkscape:connector-curvature="0" /></g><g
           id="g120"
           transform="translate(196.665,490.9941)"><path
             d="m 0,0 c -5.068,0 -8.288,4.172 -8.288,10.107 0,5.937 3.22,10.109 8.288,10.109 3.192,0 5.32,-1.288 6.664,-3.668 L 4.06,14.924 C 3.052,16.52 2.016,17.275 0,17.275 c -3.416,0 -5.264,-2.771 -5.264,-7.168 0,-4.395 1.848,-7.168 5.264,-7.168 2.044,0 3.304,0.841 4.312,2.437 L 6.748,3.752 C 5.348,1.344 2.968,0 0,0"
             style="fill:#0088ce;fill-opacity:1;fill-rule:nonzero;stroke:none"
             id="path122"
             inkscape:connector-curvature="0" /></g><g
           id="g124"
           transform="translate(207.3608,491.3018)"><path
             d="m 0,0 v 18.9 l 2.884,1.512 V 0 Z"
             style="fill:#0088ce;fill-opacity:1;fill-rule:nonzero;stroke:none"
             id="path126"
             inkscape:connector-curvature="0" /></g><g
           id="g128"
           transform="translate(220.1846,503.7061)"><path
             d="M 0,0 C -1.932,0 -3.108,-1.344 -3.36,-3.696 H 3.472 C 3.332,-1.68 2.38,0 0,0 m 6.3,-6.076 h -9.716 c 0.308,-2.828 1.904,-4.032 3.696,-4.032 1.232,0 2.212,0.448 3.192,1.176 L 5.18,-10.78 c -1.288,-1.232 -2.828,-1.932 -5.068,-1.932 -3.444,0 -6.356,2.772 -6.356,7.644 0,4.984 2.632,7.672 6.44,7.672 4.172,0 6.188,-3.388 6.188,-7.364 0,-0.532 -0.056,-1.009 -0.084,-1.316"
             style="fill:#0088ce;fill-opacity:1;fill-rule:nonzero;stroke:none"
             id="path130"
             inkscape:connector-curvature="0" /></g><g
           id="g132"
           transform="translate(236.481,491.3018)"><path
             d="m 0,0 h -2.884 l -5.264,14.7 h 3.024 L -2.492,6.721 C -2.016,5.292 -1.596,3.92 -1.4,3.108 -1.232,3.92 -0.84,5.292 -0.392,6.721 L 2.128,14.7 H 5.18 Z"
             style="fill:#0088ce;fill-opacity:1;fill-rule:nonzero;stroke:none"
             id="path134"
             inkscape:connector-curvature="0" /></g><path
           d="m 244.853,506.002 h 2.884 v -14.7 h -2.884 z m 1.456,1.904 c -1.036,0 -1.876,0.84 -1.876,1.848 0,1.036 0.84,1.876 1.876,1.876 1.008,0 1.848,-0.84 1.848,-1.876 0,-1.008 -0.84,-1.848 -1.848,-1.848"
           style="fill:#0088ce;fill-opacity:1;fill-rule:nonzero;stroke:none"
           id="path136"
           inkscape:connector-curvature="0" /><g
           id="g138"
           transform="translate(256.8931,490.9941)"><path
             d="M 0,0 C -1.988,0 -4.144,0.784 -5.628,1.876 L -4.312,4.06 C -2.94,3.107 -1.4,2.604 -0.028,2.604 c 1.82,0 2.688,0.587 2.688,1.624 0,1.12 -1.288,1.652 -3.416,2.463 -3.164,1.233 -4.312,2.297 -4.312,4.621 0,2.631 2.072,4.003 5.012,4.003 1.848,0 3.668,-0.671 4.984,-1.624 l -1.26,-2.212 c -1.204,0.84 -2.408,1.261 -3.808,1.261 -1.4,0 -2.016,-0.56 -2.016,-1.344 0,-0.728 0.504,-1.26 2.716,-2.128 C 3.836,8.008 5.516,7.112 5.516,4.34 5.516,1.092 2.884,0 0,0"
             style="fill:#0088ce;fill-opacity:1;fill-rule:nonzero;stroke:none"
             id="path140"
             inkscape:connector-curvature="0" /></g><g
           id="g142"
           transform="translate(282.2319,508.1299)"><path
             d="M 0,0 H -5.264 V -6.748 H 0 c 2.24,0 3.36,1.288 3.36,3.388 C 3.36,-1.204 2.044,0 0,0 m -0.14,-9.52 h -5.124 v -7.308 h -2.884 v 19.6 h 8.204 c 3.612,0 6.3,-2.072 6.3,-6.132 0,-4.032 -2.688,-6.16 -6.496,-6.16"
             style="fill:#0088ce;fill-opacity:1;fill-rule:nonzero;stroke:none"
             id="path144"
             inkscape:connector-curvature="0" /></g><path
           d="m 292.508,510.902 h 2.94 v -19.601 h -2.94 z"
           style="fill:#0088ce;fill-opacity:1;fill-rule:nonzero;stroke:none"
           id="path146"
           inkscape:connector-curvature="0" /><g
           id="g148"
           transform="translate(312.7803,491.3018)"><path
             d="m 0,0 -7.812,12.292 c -0.476,0.729 -1.148,1.904 -1.456,2.408 0,-0.727 0.028,-3.444 0.028,-4.536 V 0 h -2.856 V 19.601 H -9.1 L -1.652,7.645 c 0.504,-0.813 1.344,-2.269 1.624,-2.773 0,0.729 -0.028,3.528 -0.028,4.62 V 19.601 H 2.8 L 2.8,0 Z"
             style="fill:#0088ce;fill-opacity:1;fill-rule:nonzero;stroke:none"
             id="path150"
             inkscape:connector-curvature="0" /></g><g
           id="g152"
           transform="translate(333.0234,509.1104)"><path
             d="m 0,0 c -0.952,0 -1.344,-0.364 -1.344,-1.429 v -1.679 h 2.716 v -2.689 h -2.716 v -12.012 h -2.884 v 12.012 h -1.904 v 2.689 h 1.904 v 1.931 c 0,2.689 1.652,3.697 3.724,3.697 0.756,0 1.568,-0.113 2.184,-0.281 V -0.28 C 1.008,-0.084 0.504,0 0,0"
             style="fill:#0088ce;fill-opacity:1;fill-rule:nonzero;stroke:none"
             id="path154"
             inkscape:connector-curvature="0" /></g><g
           id="g156"
           transform="translate(343.0762,503.5664)"><path
             d="m 0,0 c -2.184,0 -3.528,-1.933 -3.528,-4.845 0,-3.219 1.484,-4.983 3.668,-4.983 2.184,0 3.612,2.212 3.612,4.899 C 3.752,-1.933 2.324,0 0,0 m 0.028,-12.572 c -3.696,0 -6.468,3.051 -6.468,7.643 0,4.817 2.856,7.672 6.552,7.672 3.752,0 6.552,-2.996 6.552,-7.588 0,-4.872 -2.856,-7.727 -6.636,-7.727"
             style="fill:#0088ce;fill-opacity:1;fill-rule:nonzero;stroke:none"
             id="path158"
             inkscape:connector-curvature="0" /></g><g
           id="g160"
           transform="translate(361.2759,502.9502)"><path
             d="m 0,0 c -0.616,0.336 -1.26,0.532 -2.212,0.532 -1.82,0 -2.884,-1.288 -2.884,-3.78 v -8.4 H -7.98 v 14.7 h 2.884 V 1.651 c 0.672,0.981 1.904,1.708 3.36,1.708 1.176,0 1.904,-0.223 2.492,-0.615 z"
             style="fill:#0088ce;fill-opacity:1;fill-rule:nonzero;stroke:none"
             id="path162"
             inkscape:connector-curvature="0" /></g><g
           id="g164"
           transform="translate(380.3994,508.0176)"><path
             d="M 0,0 V -16.716 H -2.94 V 0 H -8.652 V 2.885 H 5.712 L 5.712,0 Z"
             style="fill:#0088ce;fill-opacity:1;fill-rule:nonzero;stroke:none"
             id="path166"
             inkscape:connector-curvature="0" /></g><g
           id="g168"
           transform="translate(394.4839,497.5742)"><path
             d="m 0,0 c -0.784,0.392 -1.792,0.644 -3.36,0.644 -1.848,0 -3.024,-0.84 -3.024,-2.184 0,-1.456 0.924,-2.437 2.828,-2.437 1.54,0 2.884,0.953 3.556,1.876 z m 0,-6.272 v 1.456 c -1.008,-1.008 -2.436,-1.764 -4.032,-1.764 -2.38,0 -5.096,1.344 -5.096,4.956 0,3.275 2.52,4.76 5.852,4.76 1.372,0 2.464,-0.197 3.276,-0.56 V 3.668 C 0,5.264 -0.98,6.16 -2.772,6.16 -4.284,6.16 -5.46,5.88 -6.608,5.235 l -1.12,2.185 c 1.4,0.868 2.968,1.315 5.04,1.315 3.276,0 5.516,-1.595 5.516,-4.927 v -10.08 z"
             style="fill:#0088ce;fill-opacity:1;fill-rule:nonzero;stroke:none"
             id="path170"
             inkscape:connector-curvature="0" /></g><g
           id="g172"
           transform="translate(410.3872,491.3018)"><path
             d="m 0,0 v 8.316 c 0,2.968 -1.12,4.033 -3.024,4.033 -1.932,0 -3.024,-1.372 -3.024,-3.752 V 0 h -2.884 v 14.7 h 2.884 v -1.4 c 0.728,1.064 2.184,1.708 3.696,1.708 3.416,0 5.236,-2.239 5.236,-6.58 V 0 Z"
             style="fill:#0088ce;fill-opacity:1;fill-rule:nonzero;stroke:none"
             id="path174"
             inkscape:connector-curvature="0" /></g><g
           id="g176"
           transform="translate(426.291,501.7178)"><path
             d="m 0,0 c -0.644,0.868 -1.988,1.933 -3.444,1.933 -2.072,0 -3.192,-1.569 -3.192,-4.677 0,-3.695 1.176,-5.319 3.304,-5.319 1.372,0 2.576,0.923 3.332,1.876 z m -4.116,-15.819 -0.98,2.183 c 4.144,0.197 5.04,1.317 5.04,4.368 v 0.252 c -1.064,-0.98 -2.268,-1.708 -3.808,-1.708 -3.136,0 -5.656,2.296 -5.656,7.896 0,5.04 2.772,7.42 5.796,7.42 1.484,0 2.884,-0.783 3.668,-1.68 v 1.372 h 2.884 v -13.3 c 0,-4.48 -1.624,-6.635 -6.944,-6.803"
             style="fill:#0088ce;fill-opacity:1;fill-rule:nonzero;stroke:none"
             id="path178"
             inkscape:connector-curvature="0" /></g><g
           id="g180"
           transform="translate(182.6333,369.9941)"><path
             d="m 0,0 c -3.668,0 -5.852,1.932 -6.832,5.208 l 2.856,0.84 c 0.756,-2.016 1.932,-3.109 4.06,-3.109 2.828,0 3.948,1.597 3.948,5.321 v 11.648 h 2.94 V 8.036 C 6.972,2.771 4.732,0 0,0"
             style="fill:#4c4c4c;fill-opacity:1;fill-rule:nonzero;stroke:none"
             id="path182"
             inkscape:connector-curvature="0" /></g><g
           id="g184"
           transform="translate(201.9253,387.2695)"><path
             d="m 0,0 c -3.416,0 -5.292,-2.771 -5.292,-7.168 0,-4.395 1.876,-7.168 5.292,-7.168 3.444,0 5.32,2.773 5.32,7.168 C 5.32,-2.771 3.444,0 0,0 m 0,-17.275 c -5.068,0 -8.288,4.171 -8.288,10.107 0,5.937 3.22,10.108 8.288,10.108 5.096,0 8.316,-4.171 8.316,-10.108 0,-5.936 -3.22,-10.107 -8.316,-10.107"
             style="fill:#4c4c4c;fill-opacity:1;fill-rule:nonzero;stroke:none"
             id="path186"
             inkscape:connector-curvature="0" /></g><g
           id="g188"
           transform="translate(219.876,369.9941)"><path
             d="m 0,0 c -2.856,0 -5.32,1.231 -6.972,3.164 l 2.1,2.044 c 1.316,-1.428 3.248,-2.324 5.096,-2.324 2.744,0 4.06,0.952 4.06,2.856 0,1.512 -1.148,2.268 -4.424,3.248 -4.144,1.232 -6.132,2.268 -6.132,5.768 0,3.388 2.856,5.46 6.468,5.46 2.66,0 4.676,-0.981 6.412,-2.66 l -2.072,-2.1 c -1.232,1.26 -2.632,1.876 -4.564,1.876 -2.296,0 -3.276,-1.12 -3.276,-2.436 0,-1.373 0.896,-2.044 4.284,-3.052 C 4.844,10.668 7.252,9.436 7.252,5.936 7.252,2.408 5.012,0 0,0"
             style="fill:#4c4c4c;fill-opacity:1;fill-rule:nonzero;stroke:none"
             id="path190"
             inkscape:connector-curvature="0" /></g><g
           id="g192"
           transform="translate(231.5239,370.3018)"><path
             d="M 0,0 V 19.601 H 12.628 V 16.744 H 2.94 V 11.9 H 8.568 V 9.044 H 2.94 V 2.856 H 13.048 V 0 Z"
             style="fill:#4c4c4c;fill-opacity:1;fill-rule:nonzero;stroke:none"
             id="path194"
             inkscape:connector-curvature="0" /></g><g
           id="g196"
           transform="translate(263.6675,369.9941)"><path
             d="m 0,0 c -5.068,0 -8.288,4.172 -8.288,10.107 0,5.937 3.22,10.109 8.288,10.109 3.192,0 5.32,-1.288 6.664,-3.668 L 4.06,14.924 C 3.052,16.52 2.016,17.275 0,17.275 c -3.416,0 -5.264,-2.771 -5.264,-7.168 0,-4.395 1.848,-7.168 5.264,-7.168 2.044,0 3.304,0.841 4.312,2.437 L 6.748,3.752 C 5.348,1.344 2.968,0 0,0"
             style="fill:#4c4c4c;fill-opacity:1;fill-rule:nonzero;stroke:none"
             id="path198"
             inkscape:connector-curvature="0" /></g><g
           id="g200"
           transform="translate(282.2031,381.9502)"><path
             d="m 0,0 c -0.616,0.336 -1.26,0.532 -2.212,0.532 -1.82,0 -2.884,-1.288 -2.884,-3.78 v -8.4 H -7.98 v 14.7 h 2.884 V 1.651 c 0.672,0.981 1.904,1.708 3.36,1.708 1.176,0 1.904,-0.223 2.492,-0.615 z"
             style="fill:#4c4c4c;fill-opacity:1;fill-rule:nonzero;stroke:none"
             id="path202"
             inkscape:connector-curvature="0" /></g><g
           id="g204"
           transform="translate(291.0513,365.1221)"><path
             d="m 0,0 h -3.052 l 2.128,5.46 -5.404,14.42 h 3.164 l 2.408,-7.196 C -0.308,11.396 0.364,9.212 0.532,8.4 0.784,9.268 1.4,11.368 1.848,12.628 L 4.34,19.88 h 3.052 z"
             style="fill:#4c4c4c;fill-opacity:1;fill-rule:nonzero;stroke:none"
             id="path206"
             inkscape:connector-curvature="0" /></g><g
           id="g208"
           transform="translate(307.6558,382.6504)"><path
             d="m 0,0 c -1.372,0 -2.576,-0.925 -3.332,-1.876 v -6.188 c 0.644,-0.869 1.988,-1.932 3.444,-1.932 2.072,0 3.192,1.567 3.192,4.676 C 3.304,-1.624 2.128,0 0,0 m 0.392,-12.656 c -1.484,0 -2.884,0.784 -3.696,1.679 v -5.292 L -6.16,-17.752 V 2.352 h 2.856 V 0.951 c 1.064,0.981 2.296,1.708 3.836,1.708 3.164,0 5.656,-2.296 5.656,-7.895 0,-5.04 -2.744,-7.42 -5.796,-7.42"
             style="fill:#4c4c4c;fill-opacity:1;fill-rule:nonzero;stroke:none"
             id="path210"
             inkscape:connector-curvature="0" /></g><g
           id="g212"
           transform="translate(324.3462,370.666)"><path
             d="m 0,0 c -0.7,-0.392 -1.68,-0.672 -2.828,-0.672 -2.044,0 -3.304,1.26 -3.304,3.892 v 8.484 h -2.1 v 2.632 h 2.1 v 4.2 l 2.828,1.512 v -5.712 h 3.64 v -2.632 h -3.64 v -7.98 c 0,-1.372 0.448,-1.764 1.512,-1.764 0.756,0 1.596,0.28 2.128,0.588 z"
             style="fill:#4c4c4c;fill-opacity:1;fill-rule:nonzero;stroke:none"
             id="path214"
             inkscape:connector-curvature="0" /></g><g
           id="g216"
           transform="translate(333.7822,382.5664)"><path
             d="m 0,0 c -2.184,0 -3.528,-1.933 -3.528,-4.845 0,-3.219 1.484,-4.983 3.668,-4.983 2.184,0 3.612,2.212 3.612,4.899 C 3.752,-1.933 2.324,0 0,0 m 0.028,-12.572 c -3.696,0 -6.468,3.051 -6.468,7.643 0,4.817 2.856,7.672 6.552,7.672 3.752,0 6.552,-2.996 6.552,-7.588 0,-4.872 -2.856,-7.727 -6.636,-7.727"
             style="fill:#4c4c4c;fill-opacity:1;fill-rule:nonzero;stroke:none"
             id="path218"
             inkscape:connector-curvature="0" /></g><g
           id="g220"
           transform="translate(351.9814,370.3018)"><path
             d="M 0,0 V 19.601 H 2.94 V 2.884 h 9.772 V 0 Z"
             style="fill:#4c4c4c;fill-opacity:1;fill-rule:nonzero;stroke:none"
             id="path222"
             inkscape:connector-curvature="0" /></g><path
           d="m 368.361,385.002 h 2.884 v -14.7 h -2.884 z m 1.456,1.904 c -1.036,0 -1.876,0.84 -1.876,1.848 0,1.036 0.84,1.876 1.876,1.876 1.008,0 1.848,-0.84 1.848,-1.876 0,-1.008 -0.84,-1.848 -1.848,-1.848"
           style="fill:#4c4c4c;fill-opacity:1;fill-rule:nonzero;stroke:none"
           id="path224"
           inkscape:connector-curvature="0" /><g
           id="g226"
           transform="translate(381.8013,382.6504)"><path
             d="m 0,0 c -1.372,0 -2.576,-0.925 -3.332,-1.876 v -6.188 c 0.644,-0.869 1.988,-1.932 3.444,-1.932 2.072,0 3.192,1.567 3.192,4.676 C 3.304,-1.624 2.128,0 0,0 m 0.392,-12.656 c -1.484,0 -2.884,0.784 -3.696,1.679 v -1.372 H -6.16 V 6.579 l 2.856,1.484 V 0.951 c 1.064,0.981 2.296,1.708 3.836,1.708 3.164,0 5.656,-2.296 5.656,-7.895 0,-5.04 -2.744,-7.42 -5.796,-7.42"
             style="fill:#4c4c4c;fill-opacity:1;fill-rule:nonzero;stroke:none"
             id="path228"
             inkscape:connector-curvature="0" /></g><g
           id="g230"
           transform="translate(399.5806,381.9502)"><path
             d="m 0,0 c -0.616,0.336 -1.26,0.532 -2.212,0.532 -1.82,0 -2.884,-1.288 -2.884,-3.78 v -8.4 H -7.98 v 14.7 h 2.884 V 1.651 c 0.672,0.981 1.904,1.708 3.36,1.708 1.176,0 1.904,-0.223 2.492,-0.615 z"
             style="fill:#4c4c4c;fill-opacity:1;fill-rule:nonzero;stroke:none"
             id="path232"
             inkscape:connector-curvature="0" /></g><g
           id="g234"
           transform="translate(410.7554,376.5742)"><path
             d="m 0,0 c -0.784,0.392 -1.792,0.644 -3.36,0.644 -1.848,0 -3.024,-0.84 -3.024,-2.184 0,-1.456 0.924,-2.437 2.828,-2.437 1.54,0 2.884,0.953 3.556,1.876 z m 0,-6.272 v 1.456 c -1.008,-1.008 -2.436,-1.764 -4.032,-1.764 -2.38,0 -5.096,1.344 -5.096,4.956 0,3.275 2.52,4.76 5.852,4.76 1.372,0 2.464,-0.197 3.276,-0.56 V 3.668 C 0,5.264 -0.98,6.16 -2.772,6.16 -4.284,6.16 -5.46,5.88 -6.608,5.235 l -1.12,2.185 c 1.4,0.868 2.968,1.315 5.04,1.315 3.276,0 5.516,-1.595 5.516,-4.927 v -10.08 z"
             style="fill:#4c4c4c;fill-opacity:1;fill-rule:nonzero;stroke:none"
             id="path236"
             inkscape:connector-curvature="0" /></g><g
           id="g238"
           transform="translate(425.707,381.9502)"><path
             d="m 0,0 c -0.616,0.336 -1.26,0.532 -2.212,0.532 -1.82,0 -2.884,-1.288 -2.884,-3.78 v -8.4 H -7.98 v 14.7 h 2.884 V 1.651 c 0.672,0.981 1.904,1.708 3.36,1.708 1.176,0 1.904,-0.223 2.492,-0.615 z"
             style="fill:#4c4c4c;fill-opacity:1;fill-rule:nonzero;stroke:none"
             id="path240"
             inkscape:connector-curvature="0" /></g><g
           id="g242"
           transform="translate(434.5547,365.1221)"><path
             d="m 0,0 h -3.052 l 2.128,5.46 -5.404,14.42 h 3.164 l 2.408,-7.196 C -0.308,11.396 0.364,9.212 0.532,8.4 0.784,9.268 1.4,11.368 1.848,12.628 L 4.34,19.88 h 3.052 z"
             style="fill:#4c4c4c;fill-opacity:1;fill-rule:nonzero;stroke:none"
             id="path244"
             inkscape:connector-curvature="0" /></g><path
           d="M 1325.085,436 H 812.028 v 191.5 h 513.057 z"
           style="fill:#e6e6e6;fill-opacity:1;fill-rule:nonzero;stroke:none"
           id="path246"
           inkscape:connector-curvature="0" /><g
           id="g248"
           transform="translate(1353.25,315.5)"><path
             d="m 0,0 h -3 c -0.553,0 -1,0.448 -1,1 0,0.552 0.447,1 1,1 h 2 V 4 C -1,4.552 -0.553,5 0,5 0.553,5 1,4.552 1,4 V 1 C 1,0.448 0.553,0 0,0"
             style="fill:#dcdcdc;fill-opacity:1;fill-rule:nonzero;stroke:none"
             id="path250"
             inkscape:connector-curvature="0" /></g><g
           id="g252"
           transform="translate(799.8457,315.5)"><path
             d="m 0,0 h -6.048 c -0.553,0 -1,0.448 -1,1 0,0.552 0.447,1 1,1 H 0 C 0.552,2 1,1.552 1,1 1,0.448 0.552,0 0,0 M 12.097,0 H 6.048 c -0.552,0 -1,0.448 -1,1 0,0.552 0.448,1 1,1 h 6.049 c 0.552,0 1,-0.448 1,-1 0,-0.552 -0.448,-1 -1,-1 m 12.097,0 h -6.048 c -0.553,0 -1,0.448 -1,1 0,0.552 0.447,1 1,1 h 6.048 c 0.552,0 1,-0.448 1,-1 0,-0.552 -0.448,-1 -1,-1 m 12.097,0 h -6.049 c -0.552,0 -1,0.448 -1,1 0,0.552 0.448,1 1,1 h 6.049 c 0.552,0 1,-0.448 1,-1 0,-0.552 -0.448,-1 -1,-1 m 12.096,0 h -6.048 c -0.552,0 -1,0.448 -1,1 0,0.552 0.448,1 1,1 h 6.048 c 0.552,0 1,-0.448 1,-1 0,-0.552 -0.448,-1 -1,-1 m 12.097,0 h -6.048 c -0.553,0 -1,0.448 -1,1 0,0.552 0.447,1 1,1 h 6.048 c 0.552,0 1,-0.448 1,-1 0,-0.552 -0.448,-1 -1,-1 m 12.097,0 h -6.048 c -0.553,0 -1,0.448 -1,1 0,0.552 0.447,1 1,1 h 6.048 c 0.553,0 1,-0.448 1,-1 0,-0.552 -0.447,-1 -1,-1 m 12.097,0 h -6.049 c -0.553,0 -1,0.448 -1,1 0,0.552 0.447,1 1,1 h 6.049 c 0.552,0 1,-0.448 1,-1 0,-0.552 -0.448,-1 -1,-1 m 12.096,0 h -6.047 c -0.553,0 -1,0.448 -1,1 0,0.552 0.447,1 1,1 h 6.047 c 0.553,0 1,-0.448 1,-1 0,-0.552 -0.447,-1 -1,-1 m 12.097,0 h -6.048 c -0.552,0 -1,0.448 -1,1 0,0.552 0.448,1 1,1 h 6.048 c 0.553,0 1,-0.448 1,-1 0,-0.552 -0.447,-1 -1,-1 m 12.097,0 h -6.048 c -0.553,0 -1,0.448 -1,1 0,0.552 0.447,1 1,1 h 6.048 c 0.553,0 1,-0.448 1,-1 0,-0.552 -0.447,-1 -1,-1 m 12.096,0 h -6.047 c -0.553,0 -1,0.448 -1,1 0,0.552 0.447,1 1,1 h 6.047 c 0.553,0 1,-0.448 1,-1 0,-0.552 -0.447,-1 -1,-1 m 12.098,0 h -6.049 c -0.552,0 -1,0.448 -1,1 0,0.552 0.448,1 1,1 h 6.049 c 0.553,0 1,-0.448 1,-1 0,-0.552 -0.447,-1 -1,-1 m 12.097,0 h -6.049 c -0.553,0 -1,0.448 -1,1 0,0.552 0.447,1 1,1 h 6.049 c 0.553,0 1,-0.448 1,-1 0,-0.552 -0.447,-1 -1,-1 m 12.096,0 h -6.048 c -0.553,0 -1,0.448 -1,1 0,0.552 0.447,1 1,1 h 6.048 c 0.553,0 1,-0.448 1,-1 0,-0.552 -0.447,-1 -1,-1 m 12.097,0 h -6.049 c -0.552,0 -1,0.448 -1,1 0,0.552 0.448,1 1,1 h 6.049 c 0.553,0 1,-0.448 1,-1 0,-0.552 -0.447,-1 -1,-1 m 12.097,0 H 187.5 c -0.553,0 -1,0.448 -1,1 0,0.552 0.447,1 1,1 h 6.049 c 0.553,0 1,-0.448 1,-1 0,-0.552 -0.447,-1 -1,-1 m 12.097,0 h -6.048 c -0.553,0 -1,0.448 -1,1 0,0.552 0.447,1 1,1 h 6.048 c 0.552,0 1,-0.448 1,-1 0,-0.552 -0.448,-1 -1,-1 m 12.096,0 h -6.048 c -0.552,0 -1,0.448 -1,1 0,0.552 0.448,1 1,1 h 6.048 c 0.553,0 1,-0.448 1,-1 0,-0.552 -0.447,-1 -1,-1 m 12.097,0 h -6.048 c -0.553,0 -1,0.448 -1,1 0,0.552 0.447,1 1,1 h 6.048 c 0.553,0 1,-0.448 1,-1 0,-0.552 -0.447,-1 -1,-1 m 12.097,0 h -6.048 c -0.553,0 -1,0.448 -1,1 0,0.552 0.447,1 1,1 h 6.048 c 0.552,0 1,-0.448 1,-1 0,-0.552 -0.448,-1 -1,-1 m 12.097,0 h -6.049 c -0.552,0 -1,0.448 -1,1 0,0.552 0.448,1 1,1 h 6.049 c 0.553,0 1,-0.448 1,-1 0,-0.552 -0.447,-1 -1,-1 m 12.097,0 h -6.049 c -0.553,0 -1,0.448 -1,1 0,0.552 0.447,1 1,1 h 6.049 c 0.553,0 1,-0.448 1,-1 0,-0.552 -0.447,-1 -1,-1 m 12.097,0 h -6.049 c -0.553,0 -1,0.448 -1,1 0,0.552 0.447,1 1,1 h 6.049 c 0.552,0 1,-0.448 1,-1 0,-0.552 -0.448,-1 -1,-1 m 12.096,0 h -6.049 c -0.552,0 -1,0.448 -1,1 0,0.552 0.448,1 1,1 h 6.049 c 0.553,0 1,-0.448 1,-1 0,-0.552 -0.447,-1 -1,-1 m 12.097,0 h -6.049 c -0.553,0 -1,0.448 -1,1 0,0.552 0.447,1 1,1 h 6.049 c 0.553,0 1,-0.448 1,-1 0,-0.552 -0.447,-1 -1,-1 m 12.097,0 h -6.048 c -0.553,0 -1,0.448 -1,1 0,0.552 0.447,1 1,1 h 6.048 c 0.552,0 1,-0.448 1,-1 0,-0.552 -0.448,-1 -1,-1 m 12.096,0 h -6.048 c -0.552,0 -1,0.448 -1,1 0,0.552 0.448,1 1,1 h 6.048 c 0.553,0 1,-0.448 1,-1 0,-0.552 -0.447,-1 -1,-1 m 12.097,0 h -6.048 c -0.553,0 -1,0.448 -1,1 0,0.552 0.447,1 1,1 h 6.048 c 0.553,0 1,-0.448 1,-1 0,-0.552 -0.447,-1 -1,-1 m 12.097,0 h -6.048 c -0.553,0 -1,0.448 -1,1 0,0.552 0.447,1 1,1 h 6.048 c 0.552,0 1,-0.448 1,-1 0,-0.552 -0.448,-1 -1,-1 m 12.097,0 h -6.049 c -0.552,0 -1,0.448 -1,1 0,0.552 0.448,1 1,1 h 6.049 c 0.553,0 1,-0.448 1,-1 0,-0.552 -0.447,-1 -1,-1 m 12.097,0 h -6.049 c -0.553,0 -1,0.448 -1,1 0,0.552 0.447,1 1,1 h 6.049 c 0.553,0 1,-0.448 1,-1 0,-0.552 -0.447,-1 -1,-1 m 12.097,0 h -6.049 c -0.553,0 -1,0.448 -1,1 0,0.552 0.447,1 1,1 h 6.049 c 0.552,0 1,-0.448 1,-1 0,-0.552 -0.448,-1 -1,-1 m 12.096,0 h -6.048 c -0.553,0 -1,0.448 -1,1 0,0.552 0.447,1 1,1 h 6.048 c 0.553,0 1,-0.448 1,-1 0,-0.552 -0.447,-1 -1,-1 m 12.097,0 h -6.049 c -0.553,0 -1,0.448 -1,1 0,0.552 0.447,1 1,1 h 6.049 c 0.553,0 1,-0.448 1,-1 0,-0.552 -0.447,-1 -1,-1 m 12.097,0 h -6.049 c -0.553,0 -1,0.448 -1,1 0,0.552 0.447,1 1,1 h 6.049 c 0.552,0 1,-0.448 1,-1 0,-0.552 -0.448,-1 -1,-1 m 12.096,0 h -6.047 c -0.553,0 -1,0.448 -1,1 0,0.552 0.447,1 1,1 h 6.047 c 0.553,0 1,-0.448 1,-1 0,-0.552 -0.447,-1 -1,-1 m 12.097,0 h -6.048 c -0.553,0 -1,0.448 -1,1 0,0.552 0.447,1 1,1 h 6.048 c 0.553,0 1,-0.448 1,-1 0,-0.552 -0.447,-1 -1,-1 m 12.097,0 h -6.048 c -0.553,0 -1,0.448 -1,1 0,0.552 0.447,1 1,1 h 6.048 c 0.552,0 1,-0.448 1,-1 0,-0.552 -0.448,-1 -1,-1 m 12.096,0 h -6.047 c -0.553,0 -1,0.448 -1,1 0,0.552 0.447,1 1,1 h 6.047 c 0.553,0 1,-0.448 1,-1 0,-0.552 -0.447,-1 -1,-1 m 12.098,0 h -6.049 c -0.552,0 -1,0.448 -1,1 0,0.552 0.448,1 1,1 h 6.049 c 0.553,0 1,-0.448 1,-1 0,-0.552 -0.447,-1 -1,-1 m 12.097,0 h -6.049 c -0.553,0 -1,0.448 -1,1 0,0.552 0.447,1 1,1 h 6.049 c 0.552,0 1,-0.448 1,-1 0,-0.552 -0.448,-1 -1,-1 m 12.096,0 h -6.048 c -0.553,0 -1,0.448 -1,1 0,0.552 0.447,1 1,1 h 6.048 c 0.553,0 1,-0.448 1,-1 0,-0.552 -0.447,-1 -1,-1 m 12.097,0 h -6.049 c -0.552,0 -1,0.448 -1,1 0,0.552 0.448,1 1,1 h 6.049 c 0.553,0 1,-0.448 1,-1 0,-0.552 -0.447,-1 -1,-1 m 12.097,0 h -6.049 c -0.553,0 -1,0.448 -1,1 0,0.552 0.447,1 1,1 h 6.049 c 0.553,0 1,-0.448 1,-1 0,-0.552 -0.447,-1 -1,-1 m 12.096,0 h -6.048 c -0.553,0 -1,0.448 -1,1 0,0.552 0.447,1 1,1 h 6.048 c 0.553,0 1,-0.448 1,-1 0,-0.552 -0.447,-1 -1,-1"
             style="fill:#dcdcdc;fill-opacity:1;fill-rule:nonzero;stroke:none"
             id="path254"
             inkscape:connector-curvature="0" /></g><g
           id="g256"
           transform="translate(787.75,315.5)"><path
             d="m 0,0 h -3 c -0.552,0 -1,0.448 -1,1 v 3 c 0,0.552 0.448,1 1,1 0.552,0 1,-0.448 1,-1 V 2 H 0 C 0.552,2 1,1.552 1,1 1,0.448 0.552,0 0,0"
             style="fill:#dcdcdc;fill-opacity:1;fill-rule:nonzero;stroke:none"
             id="path258"
             inkscape:connector-curvature="0" /></g><g
           id="g260"
           transform="translate(784.75,640.3545)"><path
             d="m 0,0 c -0.552,0 -1,0.448 -1,1 v 6.073 c 0,0.552 0.448,1 1,1 0.552,0 1,-0.448 1,-1 V 1 C 1,0.448 0.552,0 0,0 m 0,-12.145 c -0.552,0 -1,0.448 -1,1 v 6.073 c 0,0.552 0.448,1 1,1 0.552,0 1,-0.448 1,-1 v -6.073 c 0,-0.552 -0.448,-1 -1,-1 m 0,-12.146 c -0.552,0 -1,0.448 -1,1 v 6.073 c 0,0.552 0.448,1 1,1 0.552,0 1,-0.448 1,-1 v -6.073 c 0,-0.552 -0.448,-1 -1,-1 m 0,-12.145 c -0.552,0 -1,0.448 -1,1 v 6.073 c 0,0.552 0.448,1 1,1 0.552,0 1,-0.448 1,-1 v -6.073 c 0,-0.552 -0.448,-1 -1,-1 m 0,-12.146 c -0.552,0 -1,0.448 -1,1 v 6.073 c 0,0.552 0.448,1 1,1 0.552,0 1,-0.448 1,-1 v -6.073 c 0,-0.552 -0.448,-1 -1,-1 m 0,-12.145 c -0.552,0 -1,0.448 -1,1 v 6.073 c 0,0.552 0.448,1 1,1 0.552,0 1,-0.448 1,-1 v -6.073 c 0,-0.552 -0.448,-1 -1,-1 m 0,-12.146 c -0.552,0 -1,0.448 -1,1 v 6.073 c 0,0.552 0.448,1 1,1 0.552,0 1,-0.448 1,-1 v -6.073 c 0,-0.552 -0.448,-1 -1,-1 m 0,-12.145 c -0.552,0 -1,0.448 -1,1 v 6.073 c 0,0.552 0.448,1 1,1 0.552,0 1,-0.448 1,-1 v -6.073 c 0,-0.552 -0.448,-1 -1,-1 m 0,-12.146 c -0.552,0 -1,0.448 -1,1 v 6.073 c 0,0.552 0.448,1 1,1 0.552,0 1,-0.448 1,-1 v -6.073 c 0,-0.552 -0.448,-1 -1,-1 m 0,-12.145 c -0.552,0 -1,0.448 -1,1 v 6.073 c 0,0.552 0.448,1 1,1 0.552,0 1,-0.448 1,-1 v -6.073 c 0,-0.552 -0.448,-1 -1,-1 m 0,-12.146 c -0.552,0 -1,0.448 -1,1 v 6.073 c 0,0.552 0.448,1 1,1 0.552,0 1,-0.448 1,-1 v -6.073 c 0,-0.552 -0.448,-1 -1,-1 M 0,-133.6 c -0.552,0 -1,0.448 -1,1 v 6.073 c 0,0.552 0.448,1 1,1 0.552,0 1,-0.448 1,-1 v -6.073 c 0,-0.552 -0.448,-1 -1,-1 m 0,-12.146 c -0.552,0 -1,0.448 -1,1 v 6.073 c 0,0.552 0.448,1 1,1 0.552,0 1,-0.448 1,-1 v -6.073 c 0,-0.552 -0.448,-1 -1,-1 m 0,-12.145 c -0.552,0 -1,0.448 -1,1 v 6.073 c 0,0.552 0.448,1 1,1 0.552,0 1,-0.448 1,-1 v -6.073 c 0,-0.552 -0.448,-1 -1,-1 m 0,-12.145 c -0.552,0 -1,0.448 -1,1 v 6.073 c 0,0.552 0.448,1 1,1 0.552,0 1,-0.448 1,-1 v -6.073 c 0,-0.552 -0.448,-1 -1,-1 m 0,-12.146 c -0.552,0 -1,0.448 -1,1 v 6.073 c 0,0.552 0.448,1 1,1 0.552,0 1,-0.448 1,-1 v -6.073 c 0,-0.552 -0.448,-1 -1,-1 m 0,-12.145 c -0.552,0 -1,0.448 -1,1 v 6.073 c 0,0.552 0.448,1 1,1 0.552,0 1,-0.448 1,-1 v -6.073 c 0,-0.552 -0.448,-1 -1,-1 m 0,-12.146 c -0.552,0 -1,0.448 -1,1 v 6.073 c 0,0.552 0.448,1 1,1 0.552,0 1,-0.448 1,-1 v -6.073 c 0,-0.552 -0.448,-1 -1,-1 m 0,-12.145 c -0.552,0 -1,0.448 -1,1 v 6.073 c 0,0.552 0.448,1 1,1 0.552,0 1,-0.448 1,-1 v -6.073 c 0,-0.552 -0.448,-1 -1,-1 m 0,-12.146 c -0.552,0 -1,0.448 -1,1 v 6.073 c 0,0.552 0.448,1 1,1 0.552,0 1,-0.448 1,-1 v -6.073 c 0,-0.552 -0.448,-1 -1,-1 m 0,-12.145 c -0.552,0 -1,0.448 -1,1 v 6.073 c 0,0.552 0.448,1 1,1 0.552,0 1,-0.448 1,-1 v -6.073 c 0,-0.552 -0.448,-1 -1,-1 m 0,-12.146 c -0.552,0 -1,0.448 -1,1 v 6.073 c 0,0.552 0.448,1 1,1 0.552,0 1,-0.448 1,-1 v -6.073 c 0,-0.552 -0.448,-1 -1,-1 M 0,-267.2 c -0.552,0 -1,0.448 -1,1 v 6.073 c 0,0.552 0.448,1 1,1 0.552,0 1,-0.448 1,-1 v -6.073 c 0,-0.552 -0.448,-1 -1,-1 m 0,-12.145 c -0.552,0 -1,0.448 -1,1 v 6.073 c 0,0.552 0.448,1 1,1 0.552,0 1,-0.448 1,-1 v -6.073 c 0,-0.552 -0.448,-1 -1,-1 m 0,-12.146 c -0.552,0 -1,0.448 -1,1 v 6.073 c 0,0.552 0.448,1 1,1 0.552,0 1,-0.448 1,-1 v -6.073 c 0,-0.552 -0.448,-1 -1,-1 m 0,-12.145 c -0.552,0 -1,0.448 -1,1 v 6.073 c 0,0.552 0.448,1 1,1 0.552,0 1,-0.448 1,-1 v -6.073 c 0,-0.552 -0.448,-1 -1,-1 m 0,-12.146 c -0.552,0 -1,0.448 -1,1 v 6.073 c 0,0.552 0.448,1 1,1 0.552,0 1,-0.448 1,-1 v -6.073 c 0,-0.552 -0.448,-1 -1,-1"
             style="fill:#dcdcdc;fill-opacity:1;fill-rule:nonzero;stroke:none"
             id="path262"
             inkscape:connector-curvature="0" /></g><g
           id="g264"
           transform="translate(784.75,652.5)"><path
             d="m 0,0 c -0.552,0 -1,0.448 -1,1 v 3 c 0,0.552 0.448,1 1,1 H 3 C 3.552,5 4,4.552 4,4 4,3.448 3.552,3 3,3 H 1 V 1 C 1,0.448 0.552,0 0,0"
             style="fill:#dcdcdc;fill-opacity:1;fill-rule:nonzero;stroke:none"
             id="path266"
             inkscape:connector-curvature="0" /></g><g
           id="g268"
           transform="translate(799.8467,655.5)"><path
             d="m 0,0 h -6.048 c -0.553,0 -1,0.448 -1,1 0,0.552 0.447,1 1,1 H 0 C 0.552,2 1,1.552 1,1 1,0.448 0.552,0 0,0 M 12.097,0 H 6.048 c -0.552,0 -1,0.448 -1,1 0,0.552 0.448,1 1,1 h 6.049 c 0.552,0 1,-0.448 1,-1 0,-0.552 -0.448,-1 -1,-1 m 12.096,0 h -6.048 c -0.552,0 -1,0.448 -1,1 0,0.552 0.448,1 1,1 h 6.048 c 0.553,0 1,-0.448 1,-1 0,-0.552 -0.447,-1 -1,-1 m 12.098,0 h -6.049 c -0.552,0 -1,0.448 -1,1 0,0.552 0.448,1 1,1 h 6.049 c 0.552,0 1,-0.448 1,-1 0,-0.552 -0.448,-1 -1,-1 m 12.096,0 h -6.048 c -0.552,0 -1,0.448 -1,1 0,0.552 0.448,1 1,1 h 6.048 c 0.552,0 1,-0.448 1,-1 0,-0.552 -0.448,-1 -1,-1 m 12.097,0 h -6.048 c -0.553,0 -1,0.448 -1,1 0,0.552 0.447,1 1,1 h 6.048 c 0.552,0 1,-0.448 1,-1 0,-0.552 -0.448,-1 -1,-1 m 12.097,0 h -6.049 c -0.552,0 -1,0.448 -1,1 0,0.552 0.448,1 1,1 h 6.049 c 0.553,0 1,-0.448 1,-1 0,-0.552 -0.447,-1 -1,-1 m 12.097,0 h -6.049 c -0.553,0 -1,0.448 -1,1 0,0.552 0.447,1 1,1 h 6.049 c 0.552,0 1,-0.448 1,-1 0,-0.552 -0.448,-1 -1,-1 m 12.096,0 h -6.048 c -0.553,0 -1,0.448 -1,1 0,0.552 0.447,1 1,1 h 6.048 c 0.553,0 1,-0.448 1,-1 0,-0.552 -0.447,-1 -1,-1 m 12.097,0 h -6.049 c -0.552,0 -1,0.448 -1,1 0,0.552 0.448,1 1,1 h 6.049 c 0.553,0 1,-0.448 1,-1 0,-0.552 -0.447,-1 -1,-1 m 12.097,0 h -6.049 c -0.553,0 -1,0.448 -1,1 0,0.552 0.447,1 1,1 h 6.049 c 0.553,0 1,-0.448 1,-1 0,-0.552 -0.447,-1 -1,-1 m 12.096,0 h -6.047 c -0.553,0 -1,0.448 -1,1 0,0.552 0.447,1 1,1 h 6.047 c 0.553,0 1,-0.448 1,-1 0,-0.552 -0.447,-1 -1,-1 m 12.097,0 h -6.048 c -0.552,0 -1,0.448 -1,1 0,0.552 0.448,1 1,1 h 6.048 c 0.553,0 1,-0.448 1,-1 0,-0.552 -0.447,-1 -1,-1 m 12.097,0 h -6.048 c -0.553,0 -1,0.448 -1,1 0,0.552 0.447,1 1,1 h 6.048 c 0.553,0 1,-0.448 1,-1 0,-0.552 -0.447,-1 -1,-1 m 12.096,0 h -6.047 c -0.553,0 -1,0.448 -1,1 0,0.552 0.447,1 1,1 h 6.047 c 0.553,0 1,-0.448 1,-1 0,-0.552 -0.447,-1 -1,-1 m 12.097,0 h -6.048 c -0.552,0 -1,0.448 -1,1 0,0.552 0.448,1 1,1 h 6.048 c 0.553,0 1,-0.448 1,-1 0,-0.552 -0.447,-1 -1,-1 m 12.098,0 H 187.5 c -0.553,0 -1,0.448 -1,1 0,0.552 0.447,1 1,1 h 6.049 c 0.553,0 1,-0.448 1,-1 0,-0.552 -0.447,-1 -1,-1 m 12.097,0 h -6.049 c -0.553,0 -1,0.448 -1,1 0,0.552 0.447,1 1,1 h 6.049 c 0.552,0 1,-0.448 1,-1 0,-0.552 -0.448,-1 -1,-1 m 12.096,0 h -6.049 c -0.552,0 -1,0.448 -1,1 0,0.552 0.448,1 1,1 h 6.049 c 0.553,0 1,-0.448 1,-1 0,-0.552 -0.447,-1 -1,-1 m 12.097,0 h -6.049 c -0.553,0 -1,0.448 -1,1 0,0.552 0.447,1 1,1 h 6.049 c 0.553,0 1,-0.448 1,-1 0,-0.552 -0.447,-1 -1,-1 m 12.097,0 h -6.049 c -0.553,0 -1,0.448 -1,1 0,0.552 0.447,1 1,1 h 6.049 c 0.552,0 1,-0.448 1,-1 0,-0.552 -0.448,-1 -1,-1 m 12.096,0 h -6.049 c -0.552,0 -1,0.448 -1,1 0,0.552 0.448,1 1,1 h 6.049 c 0.553,0 1,-0.448 1,-1 0,-0.552 -0.447,-1 -1,-1 m 12.097,0 h -6.048 c -0.553,0 -1,0.448 -1,1 0,0.552 0.447,1 1,1 h 6.048 c 0.553,0 1,-0.448 1,-1 0,-0.552 -0.447,-1 -1,-1 m 12.097,0 h -6.048 c -0.553,0 -1,0.448 -1,1 0,0.552 0.447,1 1,1 h 6.048 c 0.552,0 1,-0.448 1,-1 0,-0.552 -0.448,-1 -1,-1 m 12.096,0 h -6.048 c -0.552,0 -1,0.448 -1,1 0,0.552 0.448,1 1,1 h 6.048 c 0.553,0 1,-0.448 1,-1 0,-0.552 -0.447,-1 -1,-1 m 12.097,0 h -6.048 c -0.553,0 -1,0.448 -1,1 0,0.552 0.447,1 1,1 h 6.048 c 0.553,0 1,-0.448 1,-1 0,-0.552 -0.447,-1 -1,-1 m 12.098,0 h -6.049 c -0.553,0 -1,0.448 -1,1 0,0.552 0.447,1 1,1 h 6.049 c 0.552,0 1,-0.448 1,-1 0,-0.552 -0.448,-1 -1,-1 m 12.096,0 h -6.049 c -0.552,0 -1,0.448 -1,1 0,0.552 0.448,1 1,1 h 6.049 c 0.553,0 1,-0.448 1,-1 0,-0.552 -0.447,-1 -1,-1 m 12.097,0 h -6.049 c -0.553,0 -1,0.448 -1,1 0,0.552 0.447,1 1,1 h 6.049 c 0.553,0 1,-0.448 1,-1 0,-0.552 -0.447,-1 -1,-1 m 12.097,0 h -6.049 c -0.553,0 -1,0.448 -1,1 0,0.552 0.447,1 1,1 h 6.049 c 0.552,0 1,-0.448 1,-1 0,-0.552 -0.448,-1 -1,-1 m 12.096,0 h -6.049 c -0.552,0 -1,0.448 -1,1 0,0.552 0.448,1 1,1 h 6.049 c 0.553,0 1,-0.448 1,-1 0,-0.552 -0.447,-1 -1,-1 M 375,0 h -6.048 c -0.553,0 -1,0.448 -1,1 0,0.552 0.447,1 1,1 H 375 c 0.553,0 1,-0.448 1,-1 0,-0.552 -0.447,-1 -1,-1 m 12.097,0 h -6.048 c -0.553,0 -1,0.448 -1,1 0,0.552 0.447,1 1,1 h 6.048 c 0.552,0 1,-0.448 1,-1 0,-0.552 -0.448,-1 -1,-1 m 12.096,0 h -6.047 c -0.553,0 -1,0.448 -1,1 0,0.552 0.447,1 1,1 h 6.047 c 0.553,0 1,-0.448 1,-1 0,-0.552 -0.447,-1 -1,-1 m 12.098,0 h -6.049 c -0.553,0 -1,0.448 -1,1 0,0.552 0.447,1 1,1 h 6.049 c 0.553,0 1,-0.448 1,-1 0,-0.552 -0.447,-1 -1,-1 m 12.097,0 h -6.049 c -0.553,0 -1,0.448 -1,1 0,0.552 0.447,1 1,1 h 6.049 c 0.552,0 1,-0.448 1,-1 0,-0.552 -0.448,-1 -1,-1 m 12.096,0 h -6.048 c -0.553,0 -1,0.448 -1,1 0,0.552 0.447,1 1,1 h 6.048 c 0.553,0 1,-0.448 1,-1 0,-0.552 -0.447,-1 -1,-1 m 12.097,0 h -6.049 c -0.553,0 -1,0.448 -1,1 0,0.552 0.447,1 1,1 h 6.049 c 0.553,0 1,-0.448 1,-1 0,-0.552 -0.447,-1 -1,-1 m 12.097,0 h -6.049 c -0.553,0 -1,0.448 -1,1 0,0.552 0.447,1 1,1 h 6.049 c 0.552,0 1,-0.448 1,-1 0,-0.552 -0.448,-1 -1,-1 m 12.096,0 h -6.047 c -0.553,0 -1,0.448 -1,1 0,0.552 0.447,1 1,1 h 6.047 c 0.553,0 1,-0.448 1,-1 0,-0.552 -0.447,-1 -1,-1 m 12.097,0 h -6.048 c -0.552,0 -1,0.448 -1,1 0,0.552 0.448,1 1,1 h 6.048 c 0.553,0 1,-0.448 1,-1 0,-0.552 -0.447,-1 -1,-1 m 12.097,0 h -6.048 c -0.553,0 -1,0.448 -1,1 0,0.552 0.447,1 1,1 h 6.048 c 0.553,0 1,-0.448 1,-1 0,-0.552 -0.447,-1 -1,-1 m 12.097,0 h -6.048 c -0.553,0 -1,0.448 -1,1 0,0.552 0.447,1 1,1 h 6.048 c 0.553,0 1,-0.448 1,-1 0,-0.552 -0.447,-1 -1,-1 m 12.097,0 h -6.049 c -0.552,0 -1,0.448 -1,1 0,0.552 0.448,1 1,1 h 6.049 c 0.553,0 1,-0.448 1,-1 0,-0.552 -0.447,-1 -1,-1 m 12.097,0 h -6.049 c -0.553,0 -1,0.448 -1,1 0,0.552 0.447,1 1,1 h 6.049 c 0.553,0 1,-0.448 1,-1 0,-0.552 -0.447,-1 -1,-1 m 12.096,0 h -6.048 c -0.553,0 -1,0.448 -1,1 0,0.552 0.447,1 1,1 h 6.048 c 0.553,0 1,-0.448 1,-1 0,-0.552 -0.447,-1 -1,-1"
             style="fill:#dcdcdc;fill-opacity:1;fill-rule:nonzero;stroke:none"
             id="path270"
             inkscape:connector-curvature="0" /></g><g
           id="g272"
           transform="translate(1353.25,652.5)"><path
             d="m 0,0 c -0.553,0 -1,0.448 -1,1 v 2 h -2 c -0.553,0 -1,0.448 -1,1 0,0.552 0.447,1 1,1 H 0 C 0.553,5 1,4.552 1,4 V 1 C 1,0.448 0.553,0 0,0"
             style="fill:#dcdcdc;fill-opacity:1;fill-rule:nonzero;stroke:none"
             id="path274"
             inkscape:connector-curvature="0" /></g><g
           id="g276"
           transform="translate(1353.25,640.3545)"><path
             d="m 0,0 c -0.553,0 -1,0.448 -1,1 v 6.073 c 0,0.552 0.447,1 1,1 0.553,0 1,-0.448 1,-1 V 1 C 1,0.448 0.553,0 0,0 m 0,-12.146 c -0.553,0 -1,0.448 -1,1 v 6.073 c 0,0.552 0.447,1 1,1 0.553,0 1,-0.448 1,-1 v -6.073 c 0,-0.552 -0.447,-1 -1,-1 m 0,-12.145 c -0.553,0 -1,0.448 -1,1 v 6.073 c 0,0.552 0.447,1 1,1 0.553,0 1,-0.448 1,-1 v -6.073 c 0,-0.552 -0.447,-1 -1,-1 m 0,-12.146 c -0.553,0 -1,0.448 -1,1 v 6.073 c 0,0.552 0.447,1 1,1 0.553,0 1,-0.448 1,-1 v -6.073 c 0,-0.552 -0.447,-1 -1,-1 m 0,-12.145 c -0.553,0 -1,0.448 -1,1 v 6.073 c 0,0.552 0.447,1 1,1 0.553,0 1,-0.448 1,-1 v -6.073 c 0,-0.552 -0.447,-1 -1,-1 m 0,-12.145 c -0.553,0 -1,0.448 -1,1 v 6.073 c 0,0.552 0.447,1 1,1 0.553,0 1,-0.448 1,-1 v -6.073 c 0,-0.552 -0.447,-1 -1,-1 m 0,-12.146 c -0.553,0 -1,0.448 -1,1 v 6.073 c 0,0.552 0.447,1 1,1 0.553,0 1,-0.448 1,-1 v -6.073 c 0,-0.552 -0.447,-1 -1,-1 m 0,-12.145 c -0.553,0 -1,0.448 -1,1 v 6.073 c 0,0.552 0.447,1 1,1 0.553,0 1,-0.448 1,-1 v -6.073 c 0,-0.552 -0.447,-1 -1,-1 m 0,-12.146 c -0.553,0 -1,0.448 -1,1 v 6.073 c 0,0.552 0.447,1 1,1 0.553,0 1,-0.448 1,-1 v -6.073 c 0,-0.552 -0.447,-1 -1,-1 m 0,-12.145 c -0.553,0 -1,0.448 -1,1 v 6.073 c 0,0.552 0.447,1 1,1 0.553,0 1,-0.448 1,-1 v -6.073 c 0,-0.552 -0.447,-1 -1,-1 m 0,-12.146 c -0.553,0 -1,0.448 -1,1 v 6.073 c 0,0.552 0.447,1 1,1 0.553,0 1,-0.448 1,-1 v -6.073 c 0,-0.552 -0.447,-1 -1,-1 M 0,-133.6 c -0.553,0 -1,0.448 -1,1 v 6.073 c 0,0.552 0.447,1 1,1 0.553,0 1,-0.448 1,-1 v -6.073 c 0,-0.552 -0.447,-1 -1,-1 m 0,-12.146 c -0.553,0 -1,0.448 -1,1 v 6.073 c 0,0.552 0.447,1 1,1 0.553,0 1,-0.448 1,-1 v -6.073 c 0,-0.552 -0.447,-1 -1,-1 m 0,-12.145 c -0.553,0 -1,0.448 -1,1 v 6.073 c 0,0.552 0.447,1 1,1 0.553,0 1,-0.448 1,-1 v -6.073 c 0,-0.552 -0.447,-1 -1,-1 m 0,-12.145 c -0.553,0 -1,0.448 -1,1 v 6.073 c 0,0.552 0.447,1 1,1 0.553,0 1,-0.448 1,-1 v -6.073 c 0,-0.552 -0.447,-1 -1,-1 m 0,-12.146 c -0.553,0 -1,0.448 -1,1 v 6.073 c 0,0.552 0.447,1 1,1 0.553,0 1,-0.448 1,-1 v -6.073 c 0,-0.552 -0.447,-1 -1,-1 m 0,-12.145 c -0.553,0 -1,0.448 -1,1 v 6.073 c 0,0.552 0.447,1 1,1 0.553,0 1,-0.448 1,-1 v -6.073 c 0,-0.552 -0.447,-1 -1,-1 m 0,-12.146 c -0.553,0 -1,0.448 -1,1 v 6.073 c 0,0.552 0.447,1 1,1 0.553,0 1,-0.448 1,-1 v -6.073 c 0,-0.552 -0.447,-1 -1,-1 m 0,-12.145 c -0.553,0 -1,0.448 -1,1 v 6.073 c 0,0.552 0.447,1 1,1 0.553,0 1,-0.448 1,-1 v -6.073 c 0,-0.552 -0.447,-1 -1,-1 m 0,-12.146 c -0.553,0 -1,0.448 -1,1 v 6.073 c 0,0.552 0.447,1 1,1 0.553,0 1,-0.448 1,-1 v -6.073 c 0,-0.552 -0.447,-1 -1,-1 m 0,-12.145 c -0.553,0 -1,0.448 -1,1 v 6.073 c 0,0.552 0.447,1 1,1 0.553,0 1,-0.448 1,-1 v -6.073 c 0,-0.552 -0.447,-1 -1,-1 m 0,-12.146 c -0.553,0 -1,0.448 -1,1 v 6.073 c 0,0.552 0.447,1 1,1 0.553,0 1,-0.448 1,-1 v -6.073 c 0,-0.552 -0.447,-1 -1,-1 M 0,-267.2 c -0.553,0 -1,0.448 -1,1 v 6.073 c 0,0.552 0.447,1 1,1 0.553,0 1,-0.448 1,-1 v -6.073 c 0,-0.552 -0.447,-1 -1,-1 m 0,-12.146 c -0.553,0 -1,0.448 -1,1 v 6.073 c 0,0.552 0.447,1 1,1 0.553,0 1,-0.448 1,-1 v -6.073 c 0,-0.552 -0.447,-1 -1,-1 m 0,-12.145 c -0.553,0 -1,0.448 -1,1 v 6.073 c 0,0.552 0.447,1 1,1 0.553,0 1,-0.448 1,-1 v -6.073 c 0,-0.552 -0.447,-1 -1,-1 m 0,-12.146 c -0.553,0 -1,0.448 -1,1 v 6.073 c 0,0.552 0.447,1 1,1 0.553,0 1,-0.448 1,-1 v -6.073 c 0,-0.552 -0.447,-1 -1,-1 m 0,-12.145 c -0.553,0 -1,0.448 -1,1 v 6.073 c 0,0.552 0.447,1 1,1 0.553,0 1,-0.448 1,-1 v -6.073 c 0,-0.552 -0.447,-1 -1,-1"
             style="fill:#dcdcdc;fill-opacity:1;fill-rule:nonzero;stroke:none"
             id="path278"
             inkscape:connector-curvature="0" /></g><path
           d="M 1325.528,344.5 H 812.471 v 70 h 513.057 z"
           style="fill:#e6e6e6;fill-opacity:1;fill-rule:nonzero;stroke:none"
           id="path280"
           inkscape:connector-curvature="0" /><g
           id="g282"
           transform="translate(849.7983,587.8916)"><path
             d="M 0,0 V -15.736 H -3.92 V 0 H -9.548 V 3.864 H 5.628 V 0 Z"
             style="fill:#4c4c4c;fill-opacity:1;fill-rule:nonzero;stroke:none"
             id="path284"
             inkscape:connector-curvature="0" /></g><g
           id="g286"
           transform="translate(865.4507,583.8037)"><path
             d="M 0,0 C -0.392,1.148 -0.784,2.324 -0.98,3.052 -1.176,2.324 -1.568,1.148 -1.96,0 l -1.26,-3.556 h 4.48 z m 4.144,-11.648 -1.54,4.368 h -7.168 l -1.54,-4.368 h -4.2 l 7.504,19.6 h 3.808 l 7.449,-19.6 z"
             style="fill:#4c4c4c;fill-opacity:1;fill-rule:nonzero;stroke:none"
             id="path288"
             inkscape:connector-curvature="0" /></g><g
           id="g290"
           transform="translate(889.9229,572.1558)"><path
             d="m 0,0 -7.195,10.696 c -0.477,0.728 -1.12,1.708 -1.372,2.212 0,-0.728 0.055,-3.192 0.055,-4.284 V 0 h -3.864 v 19.6 h 3.752 L -1.68,9.24 c 0.476,-0.728 1.12,-1.708 1.372,-2.212 0,0.728 -0.056,3.192 -0.056,4.284 V 19.6 H 3.5 L 3.5,0 Z"
             style="fill:#4c4c4c;fill-opacity:1;fill-rule:nonzero;stroke:none"
             id="path292"
             inkscape:connector-curvature="0" /></g><g
           id="g294"
           transform="translate(905.9951,571.8477)"><path
             d="m 0,0 c -5.124,0 -8.568,3.92 -8.568,10.108 0,5.964 3.584,10.108 8.708,10.108 4.004,0 6.131,-1.876 7.42,-4.9 l -3.724,-1.54 c -0.728,1.456 -1.624,2.548 -3.752,2.548 -2.94,0 -4.62,-2.576 -4.62,-6.216 0,-3.612 1.708,-6.272 4.648,-6.272 2.688,0 3.612,1.26 3.836,2.968 H 0.84 v 3.668 H 7.868 V 7.896 C 7.868,2.856 4.536,0 0,0"
             style="fill:#4c4c4c;fill-opacity:1;fill-rule:nonzero;stroke:none"
             id="path296"
             inkscape:connector-curvature="0" /></g><g
           id="g298"
           transform="translate(932.791,571.8477)"><path
             d="m 0,0 c -3.276,0 -6.133,1.372 -7.616,3.556 l 2.828,2.52 c 1.372,-1.596 3.136,-2.24 5.012,-2.24 2.324,0 3.416,0.644 3.416,2.128 0,1.26 -0.672,1.82 -4.369,2.66 -3.612,0.84 -6.131,1.988 -6.131,5.852 0,3.556 3.135,5.74 7,5.74 3.051,0 5.292,-1.148 7.139,-3.08 L 4.451,14.392 C 3.191,15.68 1.792,16.408 0,16.408 c -2.101,0 -2.801,-0.896 -2.801,-1.764 0,-1.232 0.841,-1.624 3.948,-2.352 C 4.256,11.564 7.699,10.5 7.699,6.244 7.699,2.52 5.348,0 0,0"
             style="fill:#4c4c4c;fill-opacity:1;fill-rule:nonzero;stroke:none"
             id="path300"
             inkscape:connector-curvature="0" /></g><g
           id="g302"
           transform="translate(944.6348,572.1558)"><path
             d="M 0,0 V 19.6 H 13.607 V 15.764 H 3.92 V 12.376 H 9.548 V 8.568 H 3.92 V 3.836 H 14.027 V 0 Z"
             style="fill:#4c4c4c;fill-opacity:1;fill-rule:nonzero;stroke:none"
             id="path304"
             inkscape:connector-curvature="0" /></g><g
           id="g306"
           transform="translate(971.8779,587.9478)"><path
             d="M 0,0 H -5.124 V -5.04 H 0 c 1.82,0 2.8,0.84 2.8,2.548 C 2.8,-0.728 1.736,0 0,0 m 2.324,-15.792 -3.5,7.056 h -3.948 v -7.056 h -3.92 v 19.6 h 9.128 c 3.696,0 6.748,-2.044 6.748,-6.216 0,-2.94 -1.26,-4.788 -3.752,-5.768 l 3.752,-7.616 z"
             style="fill:#4c4c4c;fill-opacity:1;fill-rule:nonzero;stroke:none"
             id="path308"
             inkscape:connector-curvature="0" /></g><g
           id="g310"
           transform="translate(991.4199,572.1558)"><path
             d="m 0,0 h -3.809 l -6.971,19.6 h 4.34 L -2.744,8.26 c 0.364,-1.092 0.756,-2.52 0.924,-3.22 0.168,0.728 0.532,2.072 0.896,3.22 L 2.688,19.6 h 4.284 z"
             style="fill:#4c4c4c;fill-opacity:1;fill-rule:nonzero;stroke:none"
             id="path312"
             inkscape:connector-curvature="0" /></g><g
           id="g314"
           transform="translate(1002.0312,572.1558)"><path
             d="M 0,0 V 19.6 H 13.608 V 15.764 H 3.92 V 12.376 H 9.548 V 8.568 H 3.92 V 3.836 H 14.028 V 0 Z"
             style="fill:#4c4c4c;fill-opacity:1;fill-rule:nonzero;stroke:none"
             id="path316"
             inkscape:connector-curvature="0" /></g><g
           id="g318"
           transform="translate(1029.2754,587.9478)"><path
             d="M 0,0 H -5.124 V -5.04 H 0 c 1.819,0 2.8,0.84 2.8,2.548 C 2.8,-0.728 1.735,0 0,0 m 2.323,-15.792 -3.499,7.056 h -3.948 v -7.056 h -3.92 v 19.6 h 9.128 c 3.695,0 6.748,-2.044 6.748,-6.216 0,-2.94 -1.261,-4.788 -3.752,-5.768 l 3.752,-7.616 z"
             style="fill:#4c4c4c;fill-opacity:1;fill-rule:nonzero;stroke:none"
             id="path320"
             inkscape:connector-curvature="0" /></g><g
           id="g322"
           transform="translate(942.6338,369.9941)"><path
             d="m 0,0 c -3.668,0 -5.853,1.932 -6.832,5.208 l 2.855,0.84 c 0.757,-2.016 1.933,-3.109 4.061,-3.109 2.828,0 3.948,1.597 3.948,5.321 v 11.648 h 2.94 V 8.036 C 6.972,2.771 4.731,0 0,0"
             style="fill:#4c4c4c;fill-opacity:1;fill-rule:nonzero;stroke:none"
             id="path324"
             inkscape:connector-curvature="0" /></g><g
           id="g326"
           transform="translate(961.9258,387.2695)"><path
             d="m 0,0 c -3.416,0 -5.292,-2.771 -5.292,-7.168 0,-4.395 1.876,-7.168 5.292,-7.168 3.443,0 5.319,2.773 5.319,7.168 C 5.319,-2.771 3.443,0 0,0 m 0,-17.275 c -5.068,0 -8.288,4.171 -8.288,10.107 0,5.937 3.22,10.108 8.288,10.108 5.096,0 8.315,-4.171 8.315,-10.108 0,-5.936 -3.219,-10.107 -8.315,-10.107"
             style="fill:#4c4c4c;fill-opacity:1;fill-rule:nonzero;stroke:none"
             id="path328"
             inkscape:connector-curvature="0" /></g><g
           id="g330"
           transform="translate(979.876,369.9941)"><path
             d="m 0,0 c -2.855,0 -5.319,1.231 -6.972,3.164 l 2.101,2.044 c 1.315,-1.428 3.248,-2.324 5.096,-2.324 2.744,0 4.059,0.952 4.059,2.856 0,1.512 -1.147,2.268 -4.424,3.248 -4.143,1.232 -6.131,2.268 -6.131,5.768 0,3.388 2.856,5.46 6.467,5.46 2.66,0 4.676,-0.981 6.412,-2.66 l -2.072,-2.1 c -1.231,1.26 -2.632,1.876 -4.563,1.876 -2.296,0 -3.277,-1.12 -3.277,-2.436 0,-1.373 0.897,-2.044 4.284,-3.052 C 4.845,10.668 7.253,9.436 7.253,5.936 7.253,2.408 5.013,0 0,0"
             style="fill:#4c4c4c;fill-opacity:1;fill-rule:nonzero;stroke:none"
             id="path332"
             inkscape:connector-curvature="0" /></g><g
           id="g334"
           transform="translate(991.5244,370.3018)"><path
             d="M 0,0 V 19.601 H 12.628 V 16.744 H 2.939 V 11.9 H 8.567 V 9.044 H 2.939 V 2.856 H 13.048 V 0 Z"
             style="fill:#4c4c4c;fill-opacity:1;fill-rule:nonzero;stroke:none"
             id="path336"
             inkscape:connector-curvature="0" /></g><g
           id="g338"
           transform="translate(1023.668,369.9941)"><path
             d="m 0,0 c -5.068,0 -8.288,4.172 -8.288,10.107 0,5.937 3.22,10.109 8.288,10.109 3.191,0 5.319,-1.288 6.664,-3.668 L 4.06,14.924 C 3.052,16.52 2.016,17.275 0,17.275 c -3.416,0 -5.265,-2.771 -5.265,-7.168 0,-4.395 1.849,-7.168 5.265,-7.168 2.044,0 3.304,0.841 4.312,2.437 L 6.748,3.752 C 5.348,1.344 2.968,0 0,0"
             style="fill:#4c4c4c;fill-opacity:1;fill-rule:nonzero;stroke:none"
             id="path340"
             inkscape:connector-curvature="0" /></g><g
           id="g342"
           transform="translate(1042.2031,381.9502)"><path
             d="m 0,0 c -0.615,0.336 -1.26,0.532 -2.212,0.532 -1.819,0 -2.884,-1.288 -2.884,-3.78 v -8.4 h -2.883 v 14.7 h 2.883 V 1.651 c 0.672,0.981 1.905,1.708 3.361,1.708 1.175,0 1.903,-0.223 2.491,-0.615 z"
             style="fill:#4c4c4c;fill-opacity:1;fill-rule:nonzero;stroke:none"
             id="path344"
             inkscape:connector-curvature="0" /></g><g
           id="g346"
           transform="translate(1051.0518,365.1221)"><path
             d="m 0,0 h -3.052 l 2.128,5.46 -5.404,14.42 h 3.164 l 2.408,-7.196 C -0.309,11.396 0.364,9.212 0.532,8.4 0.784,9.268 1.399,11.368 1.848,12.628 L 4.34,19.88 h 3.052 z"
             style="fill:#4c4c4c;fill-opacity:1;fill-rule:nonzero;stroke:none"
             id="path348"
             inkscape:connector-curvature="0" /></g><g
           id="g350"
           transform="translate(1067.6553,382.6504)"><path
             d="m 0,0 c -1.372,0 -2.576,-0.925 -3.332,-1.876 v -6.188 c 0.644,-0.869 1.988,-1.932 3.444,-1.932 2.073,0 3.192,1.567 3.192,4.676 C 3.304,-1.624 2.128,0 0,0 m 0.393,-12.656 c -1.485,0 -2.885,0.784 -3.697,1.679 v -5.292 L -6.16,-17.752 V 2.352 h 2.856 V 0.951 c 1.064,0.981 2.296,1.708 3.836,1.708 3.164,0 5.656,-2.296 5.656,-7.895 0,-5.04 -2.744,-7.42 -5.795,-7.42"
             style="fill:#4c4c4c;fill-opacity:1;fill-rule:nonzero;stroke:none"
             id="path352"
             inkscape:connector-curvature="0" /></g><g
           id="g354"
           transform="translate(1084.3467,370.666)"><path
             d="m 0,0 c -0.7,-0.392 -1.68,-0.672 -2.828,-0.672 -2.044,0 -3.304,1.26 -3.304,3.892 v 8.484 h -2.1 v 2.632 h 2.1 v 4.2 l 2.828,1.512 v -5.712 h 3.64 v -2.632 h -3.64 v -7.98 c 0,-1.372 0.448,-1.764 1.512,-1.764 0.756,0 1.596,0.28 2.128,0.588 z"
             style="fill:#4c4c4c;fill-opacity:1;fill-rule:nonzero;stroke:none"
             id="path356"
             inkscape:connector-curvature="0" /></g><g
           id="g358"
           transform="translate(1093.7822,382.5664)"><path
             d="m 0,0 c -2.184,0 -3.528,-1.933 -3.528,-4.845 0,-3.219 1.484,-4.983 3.668,-4.983 2.184,0 3.612,2.212 3.612,4.899 C 3.752,-1.933 2.324,0 0,0 m 0.028,-12.572 c -3.696,0 -6.467,3.051 -6.467,7.643 0,4.817 2.855,7.672 6.551,7.672 3.752,0 6.552,-2.996 6.552,-7.588 0,-4.872 -2.856,-7.727 -6.636,-7.727"
             style="fill:#4c4c4c;fill-opacity:1;fill-rule:nonzero;stroke:none"
             id="path360"
             inkscape:connector-curvature="0" /></g><g
           id="g362"
           transform="translate(1111.9814,370.3018)"><path
             d="M 0,0 V 19.601 H 2.94 V 2.884 h 9.772 V 0 Z"
             style="fill:#4c4c4c;fill-opacity:1;fill-rule:nonzero;stroke:none"
             id="path364"
             inkscape:connector-curvature="0" /></g><path
           d="m 1128.361,385.002 h 2.884 v -14.7 h -2.884 z m 1.456,1.904 c -1.036,0 -1.876,0.84 -1.876,1.848 0,1.036 0.84,1.876 1.876,1.876 1.008,0 1.848,-0.84 1.848,-1.876 0,-1.008 -0.84,-1.848 -1.848,-1.848"
           style="fill:#4c4c4c;fill-opacity:1;fill-rule:nonzero;stroke:none"
           id="path366"
           inkscape:connector-curvature="0" /><g
           id="g368"
           transform="translate(1141.8018,382.6504)"><path
             d="m 0,0 c -1.372,0 -2.576,-0.925 -3.332,-1.876 v -6.188 c 0.644,-0.869 1.987,-1.932 3.443,-1.932 2.073,0 3.193,1.567 3.193,4.676 C 3.304,-1.624 2.128,0 0,0 m 0.392,-12.656 c -1.485,0 -2.884,0.784 -3.697,1.679 v -1.372 H -6.16 V 6.579 l 2.855,1.484 V 0.951 c 1.065,0.981 2.296,1.708 3.836,1.708 3.164,0 5.656,-2.296 5.656,-7.895 0,-5.04 -2.744,-7.42 -5.795,-7.42"
             style="fill:#4c4c4c;fill-opacity:1;fill-rule:nonzero;stroke:none"
             id="path370"
             inkscape:connector-curvature="0" /></g><g
           id="g372"
           transform="translate(1159.5811,381.9502)"><path
             d="m 0,0 c -0.615,0.336 -1.26,0.532 -2.212,0.532 -1.819,0 -2.884,-1.288 -2.884,-3.78 v -8.4 h -2.883 v 14.7 h 2.883 V 1.651 c 0.672,0.981 1.905,1.708 3.361,1.708 1.175,0 1.903,-0.223 2.491,-0.615 z"
             style="fill:#4c4c4c;fill-opacity:1;fill-rule:nonzero;stroke:none"
             id="path374"
             inkscape:connector-curvature="0" /></g><g
           id="g376"
           transform="translate(1170.7559,376.5742)"><path
             d="m 0,0 c -0.784,0.392 -1.792,0.644 -3.36,0.644 -1.848,0 -3.024,-0.84 -3.024,-2.184 0,-1.456 0.924,-2.437 2.828,-2.437 1.54,0 2.884,0.953 3.556,1.876 z m 0,-6.272 v 1.456 c -1.008,-1.008 -2.436,-1.764 -4.032,-1.764 -2.38,0 -5.096,1.344 -5.096,4.956 0,3.275 2.52,4.76 5.852,4.76 1.372,0 2.464,-0.197 3.276,-0.56 V 3.668 C 0,5.264 -0.979,6.16 -2.771,6.16 -4.284,6.16 -5.46,5.88 -6.608,5.235 l -1.12,2.185 c 1.4,0.868 2.968,1.315 5.04,1.315 3.276,0 5.516,-1.595 5.516,-4.927 v -10.08 z"
             style="fill:#4c4c4c;fill-opacity:1;fill-rule:nonzero;stroke:none"
             id="path378"
             inkscape:connector-curvature="0" /></g><g
           id="g380"
           transform="translate(1185.707,381.9502)"><path
             d="m 0,0 c -0.615,0.336 -1.26,0.532 -2.212,0.532 -1.819,0 -2.884,-1.288 -2.884,-3.78 v -8.4 h -2.883 v 14.7 h 2.883 V 1.651 c 0.672,0.981 1.905,1.708 3.361,1.708 1.175,0 1.903,-0.223 2.491,-0.615 z"
             style="fill:#4c4c4c;fill-opacity:1;fill-rule:nonzero;stroke:none"
             id="path382"
             inkscape:connector-curvature="0" /></g><g
           id="g384"
           transform="translate(1194.5557,365.1221)"><path
             d="m 0,0 h -3.052 l 2.128,5.46 -5.404,14.42 h 3.164 l 2.408,-7.196 C -0.309,11.396 0.364,9.212 0.532,8.4 0.784,9.268 1.399,11.368 1.848,12.628 L 4.34,19.88 h 3.052 z"
             style="fill:#4c4c4c;fill-opacity:1;fill-rule:nonzero;stroke:none"
             id="path386"
             inkscape:connector-curvature="0" /></g><g
           id="g388"
           transform="translate(243.1558,193.8018)"><path
             d="M 0,0 V 19.601 H 2.94 V 2.884 h 9.772 V 0 Z"
             style="fill:#4c4c4c;fill-opacity:1;fill-rule:nonzero;stroke:none"
             id="path390"
             inkscape:connector-curvature="0" /></g><g
           id="g392"
           transform="translate(266.062,193.4941)"><path
             d="m 0,0 c -4.844,0 -7.364,3.136 -7.364,8.54 v 11.368 h 2.94 V 8.624 c 0,-3.696 1.54,-5.685 4.48,-5.685 3.08,0 4.536,1.905 4.536,5.489 v 11.48 h 2.94 V 8.483 C 7.532,2.996 4.872,0 0,0"
             style="fill:#4c4c4c;fill-opacity:1;fill-rule:nonzero;stroke:none"
             id="path394"
             inkscape:connector-curvature="0" /></g><g
           id="g396"
           transform="translate(290.6738,193.8018)"><path
             d="M 0,0 -5.628,10.052 -9.268,5.656 V 0 h -2.856 v 19.601 h 2.856 V 12.88 c 0,-0.728 -0.028,-2.856 -0.056,-3.472 0.336,0.504 1.624,2.128 2.268,2.941 l 5.796,7.252 H 2.072 L -3.668,12.488 3.332,0 Z"
             style="fill:#4c4c4c;fill-opacity:1;fill-rule:nonzero;stroke:none"
             id="path398"
             inkscape:connector-curvature="0" /></g><g
           id="g400"
           transform="translate(302.6323,193.4941)"><path
             d="m 0,0 c -2.856,0 -5.32,1.231 -6.972,3.164 l 2.1,2.044 c 1.316,-1.428 3.248,-2.324 5.096,-2.324 2.744,0 4.06,0.952 4.06,2.856 0,1.512 -1.148,2.268 -4.424,3.248 -4.144,1.232 -6.132,2.268 -6.132,5.768 0,3.388 2.856,5.46 6.468,5.46 2.66,0 4.676,-0.981 6.412,-2.66 l -2.072,-2.1 c -1.232,1.26 -2.632,1.876 -4.564,1.876 -2.296,0 -3.276,-1.12 -3.276,-2.436 0,-1.373 0.896,-2.044 4.284,-3.052 C 4.844,10.668 7.252,9.436 7.252,5.936 7.252,2.408 5.012,0 0,0"
             style="fill:#4c4c4c;fill-opacity:1;fill-rule:nonzero;stroke:none"
             id="path402"
             inkscape:connector-curvature="0" /></g><g
           id="g404"
           transform="translate(330.9404,193.8018)"><path
             d="m 0,0 v 8.316 c 0,2.968 -0.924,4.033 -2.828,4.033 -1.932,0 -2.828,-1.372 -2.828,-3.752 V 0 H -8.54 v 8.316 c 0,2.968 -0.924,4.033 -2.828,4.033 -1.932,0 -2.828,-1.372 -2.828,-3.752 V 0 h -2.884 v 14.7 h 2.884 v -1.4 c 0.728,1.064 1.988,1.708 3.5,1.708 1.988,0 3.248,-0.756 4.032,-2.155 1.064,1.315 2.212,2.155 4.508,2.155 3.416,0 5.04,-2.239 5.04,-6.58 L 2.884,0 Z"
             style="fill:#4c4c4c;fill-opacity:1;fill-rule:nonzero;stroke:none"
             id="path406"
             inkscape:connector-curvature="0" /></g><g
           id="g408"
           transform="translate(343.5122,206.2061)"><path
             d="M 0,0 C -1.932,0 -3.108,-1.344 -3.36,-3.696 H 3.472 C 3.332,-1.68 2.38,0 0,0 m 6.3,-6.076 h -9.716 c 0.308,-2.828 1.904,-4.032 3.696,-4.032 1.232,0 2.212,0.448 3.192,1.176 L 5.18,-10.78 c -1.288,-1.232 -2.828,-1.932 -5.068,-1.932 -3.444,0 -6.356,2.772 -6.356,7.644 0,4.984 2.632,7.672 6.44,7.672 4.172,0 6.188,-3.388 6.188,-7.364 0,-0.532 -0.056,-1.009 -0.084,-1.316"
             style="fill:#4c4c4c;fill-opacity:1;fill-rule:nonzero;stroke:none"
             id="path410"
             inkscape:connector-curvature="0" /></g><g
           id="g412"
           transform="translate(360.2822,194.166)"><path
             d="m 0,0 c -0.7,-0.392 -1.68,-0.672 -2.828,-0.672 -2.044,0 -3.304,1.26 -3.304,3.892 v 8.484 h -2.1 v 2.632 h 2.1 v 4.2 l 2.828,1.512 v -5.712 h 3.64 v -2.632 h -3.64 v -7.98 c 0,-1.372 0.448,-1.764 1.512,-1.764 0.756,0 1.596,0.28 2.128,0.588 z"
             style="fill:#4c4c4c;fill-opacity:1;fill-rule:nonzero;stroke:none"
             id="path414"
             inkscape:connector-curvature="0" /></g><g
           id="g416"
           transform="translate(372.5498,200.0742)"><path
             d="m 0,0 c -0.784,0.392 -1.792,0.644 -3.36,0.644 -1.848,0 -3.024,-0.84 -3.024,-2.184 0,-1.456 0.924,-2.437 2.828,-2.437 1.54,0 2.884,0.953 3.556,1.876 z m 0,-6.272 v 1.456 c -1.008,-1.008 -2.436,-1.764 -4.032,-1.764 -2.38,0 -5.096,1.344 -5.096,4.956 0,3.275 2.52,4.76 5.852,4.76 1.372,0 2.464,-0.197 3.276,-0.56 V 3.668 C 0,5.264 -0.98,6.16 -2.772,6.16 -4.284,6.16 -5.46,5.88 -6.608,5.235 l -1.12,2.185 c 1.4,0.868 2.968,1.315 5.04,1.315 3.276,0 5.516,-1.595 5.516,-4.927 v -10.08 z"
             style="fill:#4c4c4c;fill-opacity:1;fill-rule:nonzero;stroke:none"
             id="path418"
             inkscape:connector-curvature="0" /></g><g
           id="g420"
           transform="translate(275.9858,45.3018)"><path
             d="M 0,0 V 19.601 H 2.94 V 2.884 h 9.772 V 0 Z"
             style="fill:#4c4c4c;fill-opacity:1;fill-rule:nonzero;stroke:none"
             id="path422"
             inkscape:connector-curvature="0" /></g><g
           id="g424"
           transform="translate(298.8921,44.9941)"><path
             d="m 0,0 c -4.844,0 -7.364,3.136 -7.364,8.54 v 11.368 h 2.94 V 8.624 c 0,-3.696 1.54,-5.685 4.48,-5.685 3.08,0 4.536,1.905 4.536,5.489 v 11.48 h 2.94 V 8.483 C 7.532,2.996 4.872,0 0,0"
             style="fill:#4c4c4c;fill-opacity:1;fill-rule:nonzero;stroke:none"
             id="path426"
             inkscape:connector-curvature="0" /></g><g
           id="g428"
           transform="translate(323.5039,45.3018)"><path
             d="M 0,0 -5.628,10.052 -9.268,5.656 V 0 h -2.856 v 19.601 h 2.856 V 12.88 c 0,-0.728 -0.028,-2.856 -0.056,-3.472 0.336,0.504 1.624,2.128 2.268,2.941 l 5.796,7.252 H 2.072 L -3.668,12.488 3.332,0 Z"
             style="fill:#4c4c4c;fill-opacity:1;fill-rule:nonzero;stroke:none"
             id="path430"
             inkscape:connector-curvature="0" /></g><g
           id="g432"
           transform="translate(335.4624,44.9941)"><path
             d="m 0,0 c -2.856,0 -5.32,1.231 -6.972,3.164 l 2.1,2.044 c 1.316,-1.428 3.248,-2.324 5.096,-2.324 2.744,0 4.06,0.952 4.06,2.856 0,1.512 -1.148,2.268 -4.424,3.248 -4.144,1.232 -6.132,2.268 -6.132,5.768 0,3.388 2.856,5.46 6.468,5.46 2.66,0 4.676,-0.981 6.412,-2.66 l -2.072,-2.1 c -1.232,1.26 -2.632,1.876 -4.564,1.876 -2.296,0 -3.276,-1.12 -3.276,-2.436 0,-1.373 0.896,-2.044 4.284,-3.052 C 4.844,10.668 7.252,9.436 7.252,5.936 7.252,2.408 5.012,0 0,0"
             style="fill:#4c4c4c;fill-opacity:1;fill-rule:nonzero;stroke:none"
             id="path434"
             inkscape:connector-curvature="0" /></g><path
           d="m 310,255.853 h -2 v 45.295 h 2 z"
           style="fill:#4c4c4c;fill-opacity:1;fill-rule:nonzero;stroke:none"
           id="path436"
           inkscape:connector-curvature="0" /><g
           id="g438"
           transform="translate(299.0273,298.2295)"><path
             d="M 0,0 9.973,17.271 19.945,0 Z"
             style="fill:#4c4c4c;fill-opacity:1;fill-rule:nonzero;stroke:none"
             id="path440"
             inkscape:connector-curvature="0" /></g><g
           id="g442"
           transform="translate(299.0273,258.7705)"><path
             d="M 0,0 9.973,-17.271 19.945,0 Z"
             style="fill:#4c4c4c;fill-opacity:1;fill-rule:nonzero;stroke:none"
             id="path444"
             inkscape:connector-curvature="0" /></g><path
           d="M 770.676,485.5 H 607.381 v 2 h 163.295 z"
           style="fill:#4c4c4c;fill-opacity:1;fill-rule:nonzero;stroke:none"
           id="path446"
           inkscape:connector-curvature="0" /><g
           id="g448"
           transform="translate(610.2988,476.5273)"><path
             d="M 0,0 -17.271,9.973 0,19.945 Z"
             style="fill:#4c4c4c;fill-opacity:1;fill-rule:nonzero;stroke:none"
             id="path450"
             inkscape:connector-curvature="0" /></g><g
           id="g452"
           transform="translate(767.7578,476.5273)"><path
             d="M 0,0 17.271,9.973 0,19.945 Z"
             style="fill:#4c4c4c;fill-opacity:1;fill-rule:nonzero;stroke:none"
             id="path454"
             inkscape:connector-curvature="0" /></g><path
           d="m 310.028,104.353 h -2 v 45.295 h 2 z"
           style="fill:#4c4c4c;fill-opacity:1;fill-rule:nonzero;stroke:none"
           id="path456"
           inkscape:connector-curvature="0" /><g
           id="g458"
           transform="translate(299.0557,146.7295)"><path
             d="M 0,0 9.973,17.271 19.945,0 Z"
             style="fill:#4c4c4c;fill-opacity:1;fill-rule:nonzero;stroke:none"
             id="path460"
             inkscape:connector-curvature="0" /></g><g
           id="g462"
           transform="translate(299.0557,107.2705)"><path
             d="M 0,0 9.973,-17.271 19.945,0 Z"
             style="fill:#4c4c4c;fill-opacity:1;fill-rule:nonzero;stroke:none"
             id="path464"
             inkscape:connector-curvature="0" /></g></g></g></g></svg>